<svg width="100" height="46" viewBox="0 0 100 46" fill="none" xmlns="http://www.w3.org/2000/svg">
<path d="M15.8598 38.7112C15.8912 39.0317 15.9226 39.3403 15.9501 39.6528C16.005 40.2379 16.06 40.8189 16.1228 41.4039C16.1306 41.4921 16.1149 41.5321 16.0286 41.5642C15.5457 41.7565 15.2905 42.2494 15.3887 42.7703C15.4829 43.2552 15.9147 43.6118 16.4094 43.6078C16.9119 43.6038 17.3319 43.2432 17.4261 42.7343C17.5243 42.1933 17.1788 41.6443 16.6528 41.5241C16.5703 41.5041 16.5468 41.472 16.5389 41.3879C16.4879 40.7628 16.429 40.1417 16.374 39.5166C16.3466 39.2281 16.323 38.9396 16.2994 38.6471C17.2141 38.3225 17.752 37.6854 17.7441 36.6876C17.7363 35.7179 17.2024 35.0928 16.3073 34.7723C16.3348 34.4637 16.3662 34.1552 16.3937 33.8466C16.4015 33.7665 16.4486 33.7745 16.4997 33.7705C17.2848 33.7064 17.7245 32.8368 17.3123 32.1556C17.1042 31.8191 16.798 31.6428 16.4054 31.6588C16.3191 31.6628 16.2877 31.6347 16.2602 31.5546C16.06 30.9896 15.8558 30.4286 15.6556 29.8676C15.6399 29.8276 15.6478 29.7634 15.6713 29.7314C15.9658 29.2906 15.8715 28.7216 15.4476 28.4331C15.0236 28.1446 14.474 28.2688 14.1953 28.7256C14.156 28.7897 14.1167 28.7977 14.0539 28.7817C13.3748 28.6214 12.6917 28.4612 12.0126 28.2969C11.9851 28.2888 11.9458 28.2488 11.9458 28.2247C11.9537 27.7599 11.832 27.3392 11.565 26.9585C11.5611 26.9545 11.5611 26.9465 11.5611 26.9305C11.8241 26.7101 12.095 26.4857 12.3619 26.2613C13.0568 25.6803 13.7556 25.0992 14.4504 24.5142C14.5211 24.4541 14.5682 24.4541 14.6428 24.5102C15.0668 24.8388 15.5536 24.967 16.0678 24.8869C17.0689 24.7346 17.6499 23.9292 17.7441 23.1358C17.8619 22.094 17.1474 21.1242 16.1542 20.9479C15.5614 20.8438 15.0354 20.992 14.5564 21.3687C13.5632 20.5352 12.57 19.6977 11.569 18.8603C11.7456 18.6038 11.8712 18.3193 11.9144 18.0068C11.934 17.8745 11.938 17.7423 11.9419 17.6101C11.9419 17.546 11.9537 17.5179 12.0165 17.5019C12.6956 17.3336 13.3787 17.1653 14.0579 16.997C14.1246 16.981 14.1442 17.017 14.1717 17.0651C14.3837 17.4418 14.7684 17.6141 15.1767 17.5179C15.7734 17.3736 16.0443 16.6243 15.6792 16.1114C15.6242 16.0353 15.6281 15.9832 15.6556 15.9031C15.8558 15.3621 16.0521 14.8212 16.2445 14.2762C16.2759 14.1921 16.3073 14.156 16.4015 14.16C16.959 14.18 17.4301 13.7393 17.4615 13.1823C17.4929 12.5852 17.0846 12.0964 16.5075 12.0523C16.4172 12.0443 16.3937 12.0162 16.3858 11.9281C16.3662 11.6636 16.3426 11.3991 16.3152 11.1347C16.3073 11.0545 16.3348 11.0305 16.4054 11.0064C17.1513 10.734 17.6106 10.193 17.7323 9.39562C17.8815 8.40988 17.2887 7.48826 16.3466 7.20376C16.3309 7.19975 16.3152 7.19174 16.2955 7.18372C16.3309 6.79103 16.3662 6.39834 16.3976 6.00966C16.4329 5.637 16.4643 5.26034 16.4997 4.88769C16.5154 4.7234 16.5232 4.5551 16.5468 4.39482C16.5507 4.36276 16.6017 4.32269 16.6371 4.31468C17.1474 4.18245 17.4693 3.73766 17.4379 3.20072C17.4065 2.64374 16.9354 2.20697 16.378 2.21899C15.8323 2.23101 15.3769 2.69583 15.373 3.2448C15.3651 3.71362 15.6203 4.1023 16.0561 4.2706C16.1189 4.29464 16.1385 4.3267 16.1306 4.39081C16.0443 5.28038 15.9579 6.16593 15.8715 7.0555C15.8715 7.07153 15.8637 7.09156 15.8637 7.09156C15.6439 7.13163 15.424 7.14766 15.2199 7.21578C14.6114 7.41213 14.1953 7.82886 13.9715 8.43793C13.944 8.51406 13.9087 8.53811 13.8341 8.52609C13.6692 8.50605 13.6692 8.51006 13.6378 8.34176C13.5318 7.80883 13.0725 7.44819 12.5465 7.48425C12.044 7.52032 11.6161 7.94506 11.5847 8.44594C11.5493 9.00693 11.9066 9.48377 12.4326 9.58795C12.8605 9.6721 13.3159 9.45171 13.524 9.05902C13.6221 8.87871 13.6417 8.87069 13.8616 8.93481C13.8262 9.53186 13.995 10.0608 14.4073 10.4935C14.8195 10.9263 15.3298 11.1227 15.9265 11.0986C15.954 11.3671 15.9697 11.6356 16.0089 11.896C16.0325 12.0523 16.0011 12.1364 15.8598 12.2286C15.2552 12.6253 15.2395 13.5149 15.8166 13.9476C15.8872 14.0037 15.899 14.0398 15.8676 14.1239C15.6635 14.6368 15.4672 15.1537 15.267 15.6707C15.2552 15.6987 15.2434 15.7227 15.2434 15.7268C15.0942 15.7268 14.9529 15.7107 14.8195 15.7308C14.4426 15.7869 14.1599 16.0674 14.0853 16.448C14.0736 16.5161 14.0539 16.5602 13.9793 16.5803C13.2963 16.7566 12.6132 16.9329 11.9301 17.1092C11.9144 17.1132 11.9026 17.1132 11.8791 17.1172C11.5807 16.2917 11.0272 15.7668 10.1478 15.6987C9.26848 15.6306 8.64429 16.0513 8.22031 16.8247C6.77565 16.3318 5.32705 15.8389 3.87454 15.3461C3.96875 14.721 3.83136 14.16 3.43093 13.6751C3.11295 13.2905 2.70075 13.0581 2.21396 13.002C1.16972 12.8737 0.317835 13.5389 0.07444 14.4485C-0.188583 15.4342 0.309978 16.452 1.2286 16.8247C2.14722 17.1973 3.28175 16.8287 3.76069 15.7468C5.20143 16.2437 6.6461 16.7445 8.09076 17.2454C8.0201 17.602 8.0358 17.9547 8.1418 18.3033C7.64323 18.5397 7.14859 18.7681 6.65395 19.0005C6.46944 18.704 6.22212 18.5197 5.88451 18.4716C5.3192 18.3834 4.76568 18.8242 4.71072 19.4052C4.65576 20.0103 5.09151 20.5432 5.66859 20.5753C6.27708 20.6113 6.74817 20.1706 6.77957 19.5495C6.7835 19.5094 6.80705 19.4533 6.83846 19.4373C7.32917 19.2009 7.81989 18.9725 8.3106 18.7401C8.31453 18.736 8.3263 18.7401 8.31453 18.7561C8.49119 18.9324 8.65214 19.1287 8.84843 19.281C9.20174 19.5615 9.61394 19.6817 10.0615 19.6617C10.1478 19.6577 10.1871 19.6817 10.2107 19.7699C10.3284 20.1626 10.454 20.5552 10.5797 20.9479C10.6072 21.0321 10.5993 21.0762 10.5247 21.1283C10.1714 21.3767 10.0418 21.8375 10.2067 22.2262C10.3795 22.6349 10.7956 22.8513 11.2196 22.7631C11.6239 22.679 11.9144 22.3063 11.9183 21.8776C11.9183 21.4448 11.6239 21.0641 11.2117 20.992C11.0861 20.968 11.0429 20.9119 11.0076 20.7997C10.8859 20.391 10.7524 19.9862 10.6268 19.5895C10.8427 19.4613 11.0586 19.3371 11.2745 19.2089C12.252 20.0303 13.2413 20.8638 14.2345 21.6973C13.7242 22.4866 13.7163 23.284 14.2149 24.0855C13.2256 24.9189 12.2324 25.7564 11.251 26.5818C11.039 26.4616 10.8309 26.3454 10.615 26.2212C10.6935 25.9808 10.776 25.7243 10.8584 25.4679C10.9134 25.2956 10.9683 25.1233 11.0154 24.951C11.0351 24.8789 11.0665 24.8468 11.145 24.8348C11.5415 24.7747 11.8398 24.4822 11.9026 24.0935C11.9694 23.7008 11.7849 23.3241 11.4316 23.1318C11.0351 22.9154 10.5286 23.0556 10.2774 23.4483C10.0261 23.849 10.1164 24.382 10.4933 24.6625C10.5836 24.7306 10.5954 24.7787 10.56 24.8869C10.4187 25.3036 10.2892 25.7243 10.1557 26.1491C9.39018 26.105 8.78954 26.4095 8.34201 27.0547C8.23994 27.0066 8.13787 26.9545 8.0358 26.9064C7.64323 26.7221 7.25066 26.5338 6.85808 26.3534C6.7992 26.3254 6.77172 26.2933 6.7678 26.2252C6.73246 25.7764 6.50084 25.4559 6.09649 25.3036C5.69607 25.1513 5.31528 25.2315 5.00515 25.548C4.69501 25.8646 4.61258 26.2533 4.76568 26.67C4.91093 27.0627 5.20536 27.2991 5.61756 27.3472C6.02976 27.3953 6.35952 27.231 6.59899 26.8864C6.65395 26.8062 6.68928 26.7982 6.77172 26.8383C7.22711 27.0547 7.68249 27.267 8.14965 27.4834C8.0358 27.828 8.01617 28.1807 8.07898 28.5373C6.63039 29.0382 5.18966 29.5391 3.74499 30.0359C3.21109 28.8619 1.90383 28.6094 1.03624 29.0822C0.164732 29.5591 -0.22784 30.633 0.133326 31.5706C0.494493 32.5083 1.4877 33.0252 2.44165 32.7687C3.36027 32.5243 4.04727 31.6067 3.86669 30.4647C5.30743 29.9638 6.75209 29.4629 8.20068 28.962C8.61681 29.7514 9.24492 30.1842 10.1321 30.1201C11.0154 30.056 11.569 29.535 11.8752 28.6976C11.9694 28.7216 12.0636 28.7456 12.1578 28.7697C12.7584 28.926 13.3552 29.0822 13.9558 29.2345C14.0186 29.2505 14.0618 29.2706 14.0775 29.3507C14.1874 29.8957 14.6467 30.1922 15.1806 30.072C15.1963 30.068 15.2159 30.064 15.2434 30.06C15.3259 30.2763 15.4083 30.4927 15.4907 30.7091C15.6203 31.0457 15.7498 31.3823 15.8833 31.7149C15.9069 31.775 15.9069 31.807 15.848 31.8511C15.1924 32.336 15.2513 33.2576 15.9579 33.6663C15.9854 33.6823 16.0207 33.7264 16.0168 33.7545C15.9893 34.067 15.9579 34.3796 15.9265 34.6921C15.9265 34.7041 15.9187 34.7122 15.9108 34.7282C15.3219 34.7041 14.8116 34.9005 14.4033 35.3372C13.9911 35.774 13.8223 36.2989 13.8616 36.908C13.8066 36.916 13.7595 36.916 13.7124 36.928C13.626 36.9481 13.5868 36.916 13.5475 36.8359C13.3277 36.359 12.8056 36.1266 12.3109 36.2789C11.8281 36.4272 11.514 36.9321 11.5847 37.4369C11.6592 37.9619 12.095 38.3505 12.6093 38.3546C13.1275 38.3586 13.5711 37.9779 13.6378 37.449C13.6574 37.3047 13.7399 37.3328 13.8223 37.3127C13.9126 37.2927 13.9401 37.3288 13.9754 37.4129C14.3013 38.2223 14.894 38.6591 15.7538 38.7192C15.7813 38.7072 15.8166 38.7112 15.8598 38.7112Z" fill="white"/>
<path d="M8.78169 15.4102C9.3627 15.4062 9.81416 14.9334 9.8063 14.3403C9.79845 13.7553 9.33522 13.2945 8.76206 13.2985C8.18498 13.3025 7.7296 13.7833 7.73745 14.3844C7.7453 14.9494 8.21639 15.4142 8.78169 15.4102Z" fill="white"/>
<path d="M8.77383 30.4286C8.19675 30.4286 7.73744 30.9014 7.73744 31.4905C7.73744 32.0715 8.20067 32.5443 8.77383 32.5443C9.34698 32.5443 9.80629 32.0755 9.81022 31.4905C9.81022 30.8974 9.35091 30.4246 8.77383 30.4286Z" fill="white"/>
<path d="M5.06795 12.3648C5.06795 12.8697 5.46052 13.2744 5.95516 13.2744C6.44587 13.2744 6.84237 12.8737 6.8463 12.3688C6.8463 11.868 6.4498 11.4592 5.95908 11.4592C5.46444 11.4552 5.06795 11.864 5.06795 12.3648Z" fill="white"/>
<path d="M5.06795 33.47C5.06795 33.9708 5.46444 34.3796 5.95516 34.3796C6.44587 34.3796 6.84237 33.9748 6.84237 33.474C6.84237 32.9691 6.44587 32.5684 5.95516 32.5644C5.46444 32.5644 5.06795 32.9651 5.06795 33.47Z" fill="white"/>
<path d="M17.4379 26.3414C17.8265 26.3414 18.1406 26.0209 18.1367 25.6202C18.1367 25.2235 17.8187 24.9029 17.4301 24.9029C17.0414 24.9069 16.7313 25.2275 16.7313 25.6242C16.7313 26.0249 17.0453 26.3414 17.4379 26.3414Z" fill="white"/>
<path d="M21.3335 26.6978C21.3686 26.6978 20.2812 26.6318 20.3163 26.6318C22.5634 26.612 24.12 24.7182 24.1005 22.7172C24.081 20.5654 22.4035 18.8384 20.3085 18.8384C20.2578 18.8384 20.2071 18.8384 20.1602 18.8424C20.1602 18.7828 20.1563 18.7233 20.1563 18.6637C20.1563 18.6558 20.1563 18.6439 20.1563 18.6359C20.1915 18.6359 20.2266 18.6359 20.2617 18.6359C22.4932 18.6319 24.3307 20.49 24.3307 22.7411C24.3307 24.9961 22.5088 26.8383 20.2851 26.8383C20.2617 26.8383 20.1563 27.132 20.2188 26.8383C20.2578 26.7747 21.3881 26.7534 21.3335 26.6978Z" fill="white"/>
<path d="M24.1739 22.7291C24.1739 22.7093 24.1739 22.6855 24.1739 22.6617C24.4119 22.6537 24.6538 22.6378 24.8918 22.6418C26.4367 22.6775 27.9738 22.5664 29.5031 22.3957C31.6956 22.1535 33.5916 21.28 35.2145 19.8031C36.4122 18.7113 37.2471 17.4131 37.5943 15.829C37.7543 15.1025 37.8323 14.3799 37.5592 13.6613C37.1691 12.6291 36.5566 11.7795 35.4876 11.3467C34.2548 10.8465 32.9752 10.6241 31.6488 10.8306C28.9413 11.2514 26.7332 12.5258 25.0868 14.7015C24.1817 15.8965 23.3351 17.1273 22.6095 18.4414C22.4964 18.6439 22.3715 18.8384 22.2506 19.0329C22.2194 19.0845 22.1726 19.1242 22.1336 19.1719L22.0984 19.1481L21.9736 19.0051C22.075 18.759 22.2077 18.489 22.3442 18.2667C23.1128 17.0201 23.7487 15.702 24.3495 14.372C25.2975 12.2678 25.4809 10.0961 24.923 7.85297C24.5328 6.28476 23.7487 4.9627 22.5159 3.89473C21.8761 3.34287 21.007 2.95919 20.3039 2.92998C20.2426 2.92743 20.3975 2.82278 20.3936 2.75132C21.0997 2.82675 21.7473 3.08481 22.3325 3.54535C23.3039 4.31159 24.092 5.2287 24.5797 6.3721C25.2195 7.86885 25.5004 9.42515 25.3833 11.0529C25.3014 12.1804 25.0634 13.2683 24.5875 14.3005C24.2793 14.9675 23.9515 15.6265 23.6355 16.2856C23.5887 16.3848 23.5419 16.4881 23.4951 16.5873C23.577 16.5278 23.6277 16.4563 23.6785 16.3809C24.0725 15.8171 24.4509 15.2454 24.8566 14.6936C26.1636 12.903 27.9074 11.704 30.0297 11.037C31.286 10.644 32.5617 10.4653 33.8725 10.7155C34.6137 10.8544 35.3433 11.0291 35.9909 11.4221C37.2744 12.2003 37.9532 13.3437 37.883 14.8404C37.8128 16.3293 37.2861 17.6791 36.3303 18.8344C34.446 21.1212 32.0155 22.4076 29.031 22.6339C28.1844 22.6974 27.3379 22.7569 26.5459 22.8125C27.1311 22.8522 27.7709 22.888 28.4107 22.9356C29.1403 22.9912 29.8737 23.0348 30.5915 23.2016C33.0298 23.7693 35.0117 25.0438 36.5176 27.0169C37.3485 28.1087 37.7972 29.3633 37.8908 30.725C37.9727 31.8804 37.5241 32.8491 36.7165 33.663C36.2991 34.0838 35.7841 34.3538 35.2301 34.5443C33.7984 35.0485 32.3432 35.1518 30.8568 34.7984C28.399 34.2148 26.382 32.9682 24.8801 30.9434C24.5758 30.5305 24.2871 30.1057 23.9906 29.6888C23.9515 29.6333 23.9086 29.5856 23.8696 29.534C23.8774 29.6332 23.9125 29.7166 23.9515 29.796C24.1388 30.1891 24.3261 30.5861 24.5172 30.9791C25.1063 32.2139 25.3833 33.52 25.4184 34.8778C25.4574 36.2475 25.1961 37.5656 24.7006 38.84C24.2207 40.0708 23.4132 41.0633 22.3871 41.8891C21.7629 42.3933 21.4783 42.5171 20.6669 42.5648C20.9493 42.5482 20.2687 42.6514 20.257 42.5958C20.2531 42.5799 21.1387 42.5322 21.1269 42.5203C21.8175 42.4806 21.5757 42.3139 22.157 41.8693C23.1323 41.1189 23.9398 40.2256 24.4236 39.0902C25.4691 36.6445 25.555 34.1592 24.5914 31.6739C24.014 30.1811 23.2805 28.7519 22.4574 27.3742C22.2974 27.1043 22.1531 26.8264 22.0009 26.5524C21.9931 26.5326 22.0009 26.5087 22.0009 26.4929C22.0594 26.477 22.1062 26.4651 22.1765 26.4452C22.3286 26.6993 22.4886 26.9494 22.6329 27.2075C23.3586 28.5097 24.2051 29.7365 25.1024 30.9236C26.4601 32.722 28.243 33.9091 30.4238 34.5285C32.0311 34.985 33.6111 34.9572 35.1833 34.3974C35.8895 34.1473 36.4942 33.7582 36.935 33.1429C37.5202 32.329 37.8635 31.4476 37.7192 30.4352C37.5436 29.2362 37.1613 28.1047 36.4122 27.132C34.6996 24.9048 32.4368 23.5867 29.624 23.2373C28.0791 23.0428 26.5225 22.9435 24.962 22.9753C24.7552 22.9793 24.5445 22.9713 24.3378 22.9634C24.291 22.9634 24.2441 22.9356 24.1973 22.9237L24.2051 22.8919" fill="white"/>
<path d="M24.1739 22.7291C24.1739 22.7093 24.1739 22.6855 24.1739 22.6617C24.4119 22.6537 24.6538 22.6378 24.8918 22.6418C26.4367 22.6775 27.9738 22.5664 29.5031 22.3957C31.6956 22.1535 33.5916 21.28 35.2145 19.8031C36.4122 18.7113 37.2471 17.4131 37.5943 15.829C37.7543 15.1025 37.8323 14.3799 37.5592 13.6613C37.1691 12.6291 36.5566 11.7795 35.4876 11.3467C34.2548 10.8465 32.9752 10.6241 31.6488 10.8306C28.9413 11.2514 26.7332 12.5258 25.0868 14.7015C24.1817 15.8965 23.3351 17.1273 22.6095 18.4414C22.4964 18.6439 22.3715 18.8384 22.2506 19.0329C22.2194 19.0845 22.1726 19.1242 22.1336 19.1719L22.0984 19.1481L21.9736 19.0051C22.075 18.759 22.2077 18.489 22.3442 18.2667C23.1128 17.0201 23.7487 15.702 24.3495 14.372C25.2975 12.2678 25.4809 10.0961 24.923 7.85297C24.5328 6.28476 23.7487 4.9627 22.5159 3.89473C21.8761 3.34287 21.007 2.95919 20.3039 2.92998C20.2426 2.92743 20.3975 2.82278 20.3936 2.75132C21.0997 2.82675 21.7473 3.08481 22.3325 3.54535C23.3039 4.31159 24.092 5.2287 24.5797 6.3721C25.2195 7.86885 25.5004 9.42515 25.3833 11.0529C25.3014 12.1804 25.0634 13.2683 24.5875 14.3005C24.2793 14.9675 23.9515 15.6265 23.6355 16.2856C23.5887 16.3848 23.5419 16.4881 23.4951 16.5873C23.577 16.5278 23.6277 16.4563 23.6785 16.3809C24.0725 15.8171 24.4509 15.2454 24.8566 14.6936C26.1636 12.903 27.9074 11.704 30.0297 11.037C31.286 10.644 32.5617 10.4653 33.8725 10.7155C34.6137 10.8544 35.3433 11.0291 35.9909 11.4221C37.2744 12.2003 37.9532 13.3437 37.883 14.8404C37.8128 16.3293 37.2861 17.6791 36.3303 18.8344C34.446 21.1212 32.0155 22.4076 29.031 22.6339C28.1844 22.6974 27.3379 22.7569 26.5459 22.8125C27.1311 22.8522 27.7709 22.888 28.4107 22.9356C29.1403 22.9912 29.8737 23.0348 30.5915 23.2016C33.0298 23.7693 35.0117 25.0438 36.5176 27.0169C37.3485 28.1087 37.7972 29.3633 37.8908 30.725C37.9727 31.8804 37.5241 32.8491 36.7165 33.663C36.2991 34.0838 35.7841 34.3538 35.2301 34.5443C33.7984 35.0485 32.3432 35.1518 30.8568 34.7984C28.399 34.2148 26.382 32.9682 24.8801 30.9434C24.5758 30.5305 24.2871 30.1057 23.9906 29.6888C23.9515 29.6333 23.9086 29.5856 23.8696 29.534C23.8774 29.6332 23.9125 29.7166 23.9515 29.796C24.1388 30.1891 24.3261 30.5861 24.5172 30.9791C25.1063 32.2139 25.3833 33.52 25.4184 34.8778C25.4574 36.2475 25.1961 37.5656 24.7006 38.84C24.2207 40.0708 23.4132 41.0633 22.3871 41.8891C21.7629 42.3933 21.4783 42.5171 20.6669 42.5648C20.9493 42.5482 20.2687 42.6514 20.257 42.5958C20.2531 42.5799 21.1387 42.5322 21.1269 42.5203C21.8175 42.4806 21.5757 42.3139 22.157 41.8693C23.1323 41.1189 23.9398 40.2256 24.4236 39.0902C25.4691 36.6445 25.555 34.1592 24.5914 31.6739C24.014 30.1811 23.2805 28.7519 22.4574 27.3742C22.2974 27.1043 22.1531 26.8264 22.0009 26.5524C21.9931 26.5326 22.0009 26.5087 22.0009 26.4929C22.0594 26.477 22.1062 26.4651 22.1765 26.4452C22.3286 26.6993 22.4886 26.9494 22.6329 27.2075C23.3586 28.5097 24.2051 29.7365 25.1024 30.9236C26.4601 32.722 28.243 33.9091 30.4238 34.5285C32.0311 34.985 33.6111 34.9572 35.1833 34.3974C35.8895 34.1473 36.4942 33.7582 36.935 33.1429C37.5202 32.329 37.8635 31.4476 37.7192 30.4352C37.5436 29.2362 37.1613 28.1047 36.4122 27.1321C34.6996 24.9048 32.4368 23.5867 29.624 23.2373C28.0791 23.0428 26.5225 22.9435 24.962 22.9753C24.7552 22.9793 24.5445 22.9713 24.3378 22.9634C24.291 22.9634 24.2441 22.9356 24.1973 22.9237L24.2051 22.8919M19.8069 45.4782L19.8381 0M21.3335 26.6978C21.3686 26.6978 20.2812 26.6318 20.3163 26.6318C22.5634 26.612 24.12 24.7182 24.1005 22.7172C24.081 20.5654 22.4035 18.8384 20.3085 18.8384C20.2578 18.8384 20.2071 18.8384 20.1602 18.8424C20.1602 18.7828 20.1563 18.7233 20.1563 18.6637C20.1563 18.6558 20.1563 18.6439 20.1563 18.6359C20.1915 18.6359 20.2266 18.6359 20.2617 18.6359C22.4932 18.6319 24.3307 20.49 24.3307 22.7411C24.3307 24.9961 22.5088 26.8383 20.2851 26.8383C20.2617 26.8383 20.1563 27.1321 20.2188 26.8383C20.2578 26.7747 21.3881 26.7534 21.3335 26.6978Z" stroke="white" stroke-width="1.5" stroke-miterlimit="10"/>
<path d="M45.2867 24.4699H43.1965V3.20025H40.957V1.96094H45.8839V13.0063H45.9436C46.3815 12.273 46.9488 11.7308 47.6456 11.3797C48.3522 11.0286 49.1186 10.853 49.9448 10.853C50.8107 10.853 51.602 11.0182 52.3186 11.3487C53.0452 11.6792 53.6722 12.1491 54.1997 12.7584C54.7273 13.3574 55.1353 14.0855 55.424 14.9427C55.7226 15.7999 55.8719 16.7501 55.8719 17.7931C55.8719 18.8982 55.7077 19.8896 55.3792 20.7675C55.0607 21.6453 54.6277 22.3889 54.0803 22.9982C53.5329 23.6076 52.8959 24.0775 52.1693 24.408C51.4427 24.7384 50.6763 24.9037 49.8701 24.9037C49.0639 24.9037 48.3174 24.723 47.6306 24.3615C46.9538 23.9897 46.3915 23.401 45.9436 22.5955H45.854L45.2867 24.4699ZM52.9158 17.8396C52.9158 16.6623 52.8362 15.7018 52.6769 14.9582C52.5177 14.2043 52.2887 13.6156 51.9901 13.1922C51.7015 12.7584 51.3531 12.4641 50.9451 12.3092C50.537 12.1543 50.0841 12.0768 49.5864 12.0768C48.9096 12.0768 48.3373 12.2111 47.8695 12.4796C47.4017 12.7481 47.0185 13.1302 46.7199 13.626C46.4313 14.1217 46.2173 14.7207 46.0779 15.423C45.9486 16.1149 45.8839 16.8946 45.8839 17.7622C45.8839 18.6503 45.9436 19.4146 46.063 20.0549C46.1924 20.6952 46.3566 21.2374 46.5557 21.6815C46.7548 22.1152 46.9837 22.4664 47.2425 22.7349C47.5112 22.9931 47.7799 23.1945 48.0487 23.3391C48.3274 23.4733 48.6011 23.5663 48.8698 23.6179C49.1485 23.6592 49.3973 23.6799 49.6163 23.6799C50.0941 23.6799 50.532 23.6024 50.9301 23.4475C51.3382 23.2926 51.6866 23.0034 51.9752 22.58C52.2738 22.1462 52.5027 21.5524 52.662 20.7985C52.8312 20.0342 52.9158 19.0479 52.9158 17.8396Z" fill="white"/>
<path d="M67.406 12.5106H65.2412V11.2713H70.0934V23.2306H72.3329V24.4699H67.406V22.487H67.3463C66.9084 23.3132 66.3659 23.9226 65.719 24.315C65.072 24.7075 64.2359 24.9037 63.2108 24.9037C61.7875 24.9037 60.7274 24.5474 60.0307 23.8348C59.3439 23.1119 59.0006 22.0636 59.0006 20.69V12.5106H56.8357V11.2713H61.6879V21.1548C61.6879 21.9913 61.8721 22.5955 62.2403 22.9673C62.6185 23.3287 63.156 23.5095 63.8527 23.5095C64.3404 23.5095 64.7983 23.4165 65.2263 23.2306C65.6642 23.0344 66.0424 22.7194 66.3609 22.2856C66.6894 21.8519 66.9432 21.2839 67.1224 20.5816C67.3115 19.8793 67.406 19.017 67.406 17.9945V12.5106Z" fill="white"/>
<path d="M81.8067 15.6553C81.7569 14.984 81.6474 14.416 81.4782 13.9513C81.319 13.4865 81.1 13.1096 80.8213 12.8204C80.5426 12.5312 80.2042 12.3247 79.8061 12.2007C79.4179 12.0665 78.97 11.9994 78.4624 11.9994C78.0742 11.9994 77.7159 12.0407 77.3875 12.1233C77.059 12.1956 76.7754 12.3144 76.5365 12.4796C76.2976 12.6345 76.1085 12.8411 75.9691 13.0992C75.8398 13.3574 75.7751 13.6673 75.7751 14.0287C75.7751 14.3902 75.8348 14.6897 75.9542 14.9272C76.0836 15.1544 76.2877 15.361 76.5663 15.5469C76.855 15.7225 77.2183 15.8929 77.6562 16.0581C78.1041 16.2233 78.6515 16.4196 79.2985 16.6468C79.8161 16.8327 80.3286 17.0289 80.8363 17.2355C81.3439 17.442 81.7967 17.7002 82.1949 18.01C82.6029 18.3198 82.9314 18.6968 83.1802 19.1409C83.4291 19.5747 83.5535 20.1065 83.5535 20.7365C83.5535 21.4491 83.3992 22.0688 83.0907 22.5955C82.7821 23.1222 82.374 23.5559 81.8664 23.8967C81.3588 24.2376 80.7815 24.4906 80.1346 24.6558C79.4876 24.8211 78.8257 24.9037 78.1489 24.9037C77.7906 24.9037 77.4074 24.883 76.9993 24.8417C76.6012 24.8004 76.203 24.7436 75.8049 24.6713C75.4167 24.599 75.0435 24.5164 74.6852 24.4235C74.3368 24.3202 74.0283 24.2169 73.7595 24.1136L73.655 19.6211H74.6852C74.735 20.406 74.8395 21.067 74.9987 21.604C75.1679 22.1307 75.3968 22.5542 75.6855 22.8743C75.9841 23.1945 76.3424 23.4217 76.7604 23.5559C77.1884 23.6902 77.6861 23.7573 78.2534 23.7573C78.6814 23.7573 79.0745 23.7212 79.4329 23.6489C79.8011 23.5663 80.1196 23.4423 80.3884 23.2771C80.6571 23.1015 80.8661 22.8743 81.0154 22.5955C81.1747 22.3166 81.2543 21.981 81.2543 21.5885C81.2543 21.2477 81.1946 20.9689 81.0751 20.752C80.9557 20.5248 80.7666 20.3234 80.5078 20.1478C80.249 19.9723 79.9156 19.807 79.5075 19.6521C79.0994 19.4972 78.6117 19.3165 78.0444 19.1099C77.4771 18.9034 76.9296 18.6916 76.4021 18.4748C75.8845 18.2476 75.4267 17.979 75.0286 17.6692C74.6304 17.3491 74.3119 16.9669 74.0731 16.5228C73.8342 16.0788 73.7148 15.5366 73.7148 14.8963C73.7148 14.194 73.8541 13.5898 74.1328 13.0838C74.4115 12.5674 74.7797 12.1439 75.2376 11.8135C75.7054 11.483 76.2379 11.2403 76.8351 11.0854C77.4422 10.9305 78.0693 10.853 78.7162 10.853C79.0447 10.853 79.3881 10.8737 79.7464 10.915C80.1047 10.9459 80.458 10.9924 80.8064 11.0544C81.1647 11.1164 81.5031 11.1886 81.8216 11.2713C82.1501 11.3436 82.4487 11.4159 82.7174 11.4881L82.8219 15.6553H81.8067Z" fill="white"/>
<path d="M89.4292 23.2306H91.4448V24.4699H84.5024V23.2306H86.7419V3.20025H84.5024V1.96094H89.4292V13.3471H89.489C89.907 12.5519 90.4544 11.9374 91.1312 11.5036C91.818 11.0699 92.6989 10.853 93.7738 10.853C95.1573 10.853 96.1775 11.2196 96.8344 11.9529C97.5013 12.6758 97.8347 13.7137 97.8347 15.0667V23.2306H99.9995V24.4699H93.1318V23.2306H95.1473V14.7104C95.1473 13.8428 94.9632 13.218 94.5949 12.8359C94.2267 12.4434 93.6992 12.2472 93.0124 12.2472C92.5147 12.2472 92.0469 12.3505 91.609 12.557C91.181 12.7636 90.8028 13.0838 90.4743 13.5175C90.1558 13.9513 89.902 14.509 89.7129 15.1906C89.5238 15.8722 89.4292 16.6933 89.4292 17.6537V23.2306Z" fill="white"/>
<path d="M50.751 42.4697C50.4822 43.678 50.0393 44.5714 49.4222 45.1497C48.8051 45.7177 47.9541 46.0017 46.8692 46.0017C46.3019 46.0017 45.7893 45.9294 45.3315 45.7848C44.8836 45.6403 44.5004 45.4131 44.1819 45.1032C43.8634 44.7831 43.6195 44.3803 43.4503 43.8949C43.2811 43.3992 43.1965 42.8002 43.1965 42.0979V33.6086H40.957V32.3693H43.1965V29.364L45.8839 28.8992V32.3693H49.7656V33.6086H45.8839V42.4387C45.8839 42.8621 45.9187 43.2081 45.9884 43.4766C46.068 43.7451 46.1775 43.9569 46.3168 44.1118C46.4562 44.2667 46.6204 44.3751 46.8095 44.4371C46.9986 44.4887 47.2126 44.5146 47.4515 44.5146C47.77 44.5146 48.0437 44.4681 48.2726 44.3751C48.5015 44.2719 48.7006 44.1221 48.8698 43.9259C49.049 43.7193 49.1983 43.4663 49.3177 43.1668C49.4471 42.8673 49.5665 42.5213 49.676 42.1289C49.8651 42.1599 50.0493 42.2012 50.2284 42.2528C50.4076 42.3044 50.5818 42.3767 50.751 42.4697Z" fill="white"/>
<path d="M58.4929 45.568H51.1774V44.3287H53.4168V33.6086H51.1774V32.3693H56.1042V34.7705H56.1639C56.3431 34.3677 56.562 34.0011 56.8208 33.6706C57.0896 33.3298 57.3832 33.0354 57.7017 32.7876C58.0202 32.5397 58.3586 32.3486 58.7169 32.2144C59.0752 32.0801 59.4385 32.013 59.8068 32.013C60.404 32.013 60.8966 32.1937 61.2848 32.5552C61.673 32.9167 61.8671 33.4176 61.8671 34.0579C61.8671 34.6259 61.7178 35.07 61.4192 35.3901C61.1206 35.7 60.7324 35.8549 60.2547 35.8549C59.757 35.8549 59.3738 35.7051 59.1051 35.4056C58.8463 35.1061 58.7169 34.7292 58.7169 34.2747C58.7169 34.0372 58.7617 33.779 58.8513 33.5002C58.4631 33.6448 58.0998 33.8771 57.7614 34.1973C57.4329 34.5071 57.1443 34.8996 56.8955 35.3746C56.6466 35.8497 56.4525 36.4022 56.3132 37.0322C56.1739 37.6519 56.1042 38.3438 56.1042 39.1081V44.3287H58.4929V45.568Z" fill="white"/>
<path d="M74.088 41.3698C73.7695 42.8673 73.1524 44.0137 72.2367 44.8089C71.321 45.6041 70.1316 46.0017 68.6685 46.0017C67.6632 46.0017 66.7674 45.821 65.9811 45.4595C65.1948 45.0877 64.528 44.5868 63.9805 43.9569C63.4331 43.3269 63.0151 42.5936 62.7264 41.7571C62.4378 40.9102 62.2935 40.0117 62.2935 39.0616C62.2935 38.0908 62.4428 37.1716 62.7414 36.3041C63.04 35.4366 63.463 34.6827 64.0104 34.0424C64.5678 33.4021 65.2297 32.896 65.9961 32.5242C66.7724 32.1421 67.6383 31.951 68.5938 31.951C69.4697 31.951 70.256 32.1111 70.9527 32.4313C71.6495 32.7514 72.2417 33.2007 72.7294 33.779C73.2171 34.347 73.5903 35.0287 73.8491 35.8239C74.1179 36.6191 74.2622 37.4918 74.2821 38.4419H65.2794C65.2695 38.6175 65.2645 38.7363 65.2645 38.7982C65.2645 38.8499 65.2645 38.8809 65.2645 38.8912C65.2645 40.1098 65.3491 41.1013 65.5183 41.8655C65.6975 42.6298 65.9413 43.2288 66.2499 43.6625C66.5684 44.086 66.9416 44.3751 67.3696 44.53C67.8075 44.685 68.2903 44.7624 68.8178 44.7624C69.3055 44.7624 69.7633 44.6953 70.1913 44.561C70.6293 44.4268 71.0224 44.2151 71.3708 43.9259C71.7191 43.6264 72.0227 43.2443 72.2815 42.7795C72.5502 42.3044 72.7642 41.7364 72.9235 41.0755C73.1225 41.0961 73.3216 41.1323 73.5207 41.1839C73.7197 41.2355 73.9088 41.2975 74.088 41.3698ZM71.2663 37.2336C71.2364 36.3764 71.1468 35.6845 70.9975 35.1578C70.8582 34.6207 70.6691 34.2024 70.4302 33.903C70.1913 33.6034 69.9077 33.4021 69.5792 33.2988C69.2607 33.1852 68.9074 33.1284 68.5192 33.1284C68.1111 33.1284 67.7279 33.1903 67.3696 33.3143C67.0212 33.4382 66.7077 33.6551 66.429 33.9649C66.1503 34.2747 65.9164 34.693 65.7273 35.2197C65.5482 35.7464 65.4237 36.4177 65.3541 37.2336H71.2663Z" fill="white"/>
<path d="M87.9213 41.3698C87.6028 42.8673 86.9857 44.0137 86.07 44.8089C85.1543 45.6041 83.9649 46.0017 82.5018 46.0017C81.4965 46.0017 80.6008 45.821 79.8145 45.4595C79.0282 45.0877 78.3613 44.5868 77.8139 43.9569C77.2664 43.3269 76.8484 42.5936 76.5598 41.7571C76.2711 40.9102 76.1268 40.0117 76.1268 39.0616C76.1268 38.0908 76.2761 37.1716 76.5747 36.3041C76.8733 35.4366 77.2963 34.6827 77.8437 34.0424C78.4011 33.4021 79.063 32.896 79.8294 32.5242C80.6057 32.1421 81.4717 31.951 82.4272 31.951C83.3031 31.951 84.0894 32.1111 84.7861 32.4313C85.4828 32.7514 86.075 33.2007 86.5627 33.779C87.0504 34.347 87.4237 35.0287 87.6825 35.8239C87.9512 36.6191 88.0955 37.4918 88.1154 38.4419H79.1128C79.1028 38.6175 79.0978 38.7363 79.0978 38.7982C79.0978 38.8499 79.0978 38.8809 79.0978 38.8912C79.0978 40.1098 79.1824 41.1013 79.3516 41.8655C79.5308 42.6298 79.7746 43.2288 80.0832 43.6625C80.4017 44.086 80.7749 44.3751 81.2029 44.53C81.6409 44.685 82.1236 44.7624 82.6511 44.7624C83.1388 44.7624 83.5967 44.6953 84.0247 44.561C84.4626 44.4268 84.8557 44.2151 85.2041 43.9259C85.5525 43.6264 85.856 43.2443 86.1148 42.7795C86.3836 42.3044 86.5976 41.7364 86.7568 41.0755C86.9559 41.0961 87.1549 41.1323 87.354 41.1839C87.5531 41.2355 87.7422 41.2975 87.9213 41.3698ZM85.0996 37.2336C85.0697 36.3764 84.9802 35.6845 84.8309 35.1578C84.6915 34.6207 84.5024 34.2024 84.2635 33.903C84.0247 33.6034 83.741 33.4021 83.4125 33.2988C83.094 33.1852 82.7407 33.1284 82.3525 33.1284C81.9444 33.1284 81.5612 33.1903 81.2029 33.3143C80.8546 33.4382 80.541 33.6551 80.2624 33.9649C79.9837 34.2747 79.7498 34.693 79.5607 35.2197C79.3815 35.7464 79.2571 36.4177 79.1874 37.2336H85.0996Z" fill="white"/>
</svg>
