<svg width="74" height="34" viewBox="0 0 74 34" fill="none" xmlns="http://www.w3.org/2000/svg">
<path d="M11.8948 28.7143C11.9184 28.9521 11.9419 29.181 11.9625 29.4128C12.0038 29.8468 12.045 30.2778 12.0921 30.7118C12.098 30.7772 12.0862 30.8069 12.0214 30.8307C11.6593 30.9733 11.4679 31.3389 11.5415 31.7254C11.6122 32.085 11.936 32.3496 12.307 32.3466C12.6839 32.3436 12.9989 32.0761 13.0696 31.6986C13.1432 31.2973 12.8841 30.8901 12.4896 30.8009C12.4277 30.7861 12.4101 30.7623 12.4042 30.6999C12.3659 30.2362 12.3217 29.7755 12.2805 29.3118C12.2599 29.0978 12.2422 28.8837 12.2246 28.6668C12.9106 28.426 13.314 27.9534 13.3081 27.2133C13.3022 26.4939 12.9018 26.0302 12.2305 25.7925C12.2511 25.5636 12.2746 25.3347 12.2952 25.1058C12.3011 25.0464 12.3365 25.0523 12.3747 25.0494C12.9636 25.0018 13.2934 24.3568 12.9842 23.8515C12.8282 23.6018 12.5985 23.471 12.3041 23.4829C12.2393 23.4859 12.2157 23.4651 12.1951 23.4056C12.045 22.9865 11.8919 22.5704 11.7417 22.1542C11.7299 22.1245 11.7358 22.077 11.7535 22.0532C11.9743 21.7262 11.9037 21.3041 11.5857 21.0901C11.2677 20.8761 10.8555 20.9683 10.6464 21.3071C10.617 21.3547 10.5876 21.3606 10.5404 21.3487C10.0311 21.2298 9.51877 21.1109 9.00941 20.9891C8.9888 20.9831 8.95936 20.9534 8.95936 20.9356C8.96525 20.5908 8.87397 20.2787 8.67376 19.9963C8.67082 19.9933 8.67082 19.9874 8.67082 19.9755C8.86809 19.812 9.07124 19.6455 9.27145 19.4791C9.7926 19.0481 10.3167 18.6171 10.8378 18.1831C10.8908 18.1385 10.9261 18.1385 10.9821 18.1802C11.3001 18.4239 11.6652 18.519 12.0509 18.4596C12.8017 18.3466 13.2374 17.7492 13.3081 17.1606C13.3964 16.3878 12.8606 15.6685 12.1156 15.5377C11.6711 15.4604 11.2765 15.5704 10.9173 15.8498C10.1724 15.2315 9.4275 14.6103 8.6767 13.9891C8.8092 13.7988 8.90342 13.5878 8.9358 13.356C8.95053 13.2579 8.95347 13.1598 8.95641 13.0617C8.95641 13.0141 8.96525 12.9933 9.01236 12.9814C9.52172 12.8566 10.034 12.7317 10.5434 12.6069C10.5934 12.595 10.6082 12.6218 10.6288 12.6574C10.7878 12.9368 11.0763 13.0647 11.3825 12.9933C11.83 12.8863 12.0332 12.3305 11.7594 11.95C11.7182 11.8935 11.7211 11.8549 11.7417 11.7954C11.8919 11.3942 12.0391 10.9929 12.1834 10.5887C12.2069 10.5262 12.2305 10.4995 12.3011 10.5025C12.7192 10.5173 13.0725 10.1903 13.0961 9.77719C13.1196 9.3343 12.8134 8.97167 12.3806 8.93897C12.3129 8.93303 12.2952 8.91222 12.2894 8.84683C12.2746 8.65065 12.257 8.45447 12.2364 8.25829C12.2305 8.19884 12.2511 8.18101 12.3041 8.16318C12.8635 7.96105 13.208 7.55978 13.2993 6.96827C13.4111 6.23706 12.9665 5.55341 12.2599 5.34237C12.2481 5.3394 12.2364 5.33345 12.2216 5.32751C12.2481 5.03622 12.2746 4.74492 12.2982 4.4566C12.3247 4.18017 12.3482 3.90076 12.3747 3.62433C12.3865 3.50246 12.3924 3.37762 12.4101 3.25872C12.413 3.23494 12.4513 3.20522 12.4778 3.19927C12.8605 3.10119 13.102 2.77125 13.0784 2.37295C13.0549 1.95978 12.7016 1.63579 12.2835 1.64471C11.8742 1.65363 11.5327 1.99843 11.5297 2.40564C11.5238 2.75341 11.7152 3.04174 12.042 3.16658C12.0891 3.18441 12.1039 3.20819 12.098 3.25575C12.0332 3.91562 11.9684 4.57252 11.9037 5.23239C11.9037 5.24428 11.8978 5.25915 11.8978 5.25915C11.7329 5.28887 11.568 5.30076 11.4149 5.35129C10.9585 5.49694 10.6464 5.80607 10.4786 6.25787C10.458 6.31434 10.4315 6.33218 10.3756 6.32326C10.2519 6.3084 10.2519 6.31137 10.2284 6.18653C10.1489 5.7912 9.80437 5.52369 9.40984 5.55044C9.03297 5.57719 8.71204 5.89226 8.68848 6.26381C8.66198 6.67995 8.92991 7.03367 9.32445 7.11095C9.64538 7.17337 9.98692 7.00989 10.143 6.71859C10.2166 6.58483 10.2313 6.57889 10.3962 6.62645C10.3697 7.06933 10.4963 7.46169 10.8054 7.78271C11.1146 8.10373 11.4973 8.24938 11.9449 8.23154C11.9655 8.43069 11.9773 8.62984 12.0067 8.82305C12.0244 8.93897 12.0008 9.00139 11.8948 9.06976C11.4414 9.36402 11.4296 10.0239 11.8624 10.3449C11.9154 10.3865 11.9243 10.4133 11.9007 10.4757C11.7476 10.8562 11.6004 11.2396 11.4502 11.623C11.4414 11.6439 11.4326 11.6617 11.4326 11.6647C11.3207 11.6647 11.2147 11.6528 11.1146 11.6676C10.8319 11.7092 10.6199 11.9173 10.564 12.1997C10.5552 12.2502 10.5404 12.2829 10.4845 12.2978C9.9722 12.4286 9.45989 12.5594 8.94758 12.6901C8.9358 12.6931 8.92697 12.6931 8.90931 12.6961C8.68554 12.0838 8.27039 11.6944 7.61087 11.6439C6.95135 11.5933 6.48321 11.9054 6.16522 12.4791C5.08172 12.1135 3.99527 11.7479 2.90588 11.3823C2.97655 10.9186 2.8735 10.5025 2.57318 10.1428C2.33469 9.85744 2.02554 9.68504 1.66045 9.64343C0.877265 9.54831 0.238352 10.0417 0.0558062 10.7165C-0.141462 11.4477 0.232461 12.2027 0.921426 12.4791C1.61039 12.7555 2.46129 12.4821 2.8205 11.6795C3.90105 12.0481 4.98456 12.4196 6.06806 12.7912C6.01506 13.0557 6.02684 13.3173 6.10634 13.5759C5.73241 13.7513 5.36143 13.9207 4.99045 14.0931C4.85207 13.8731 4.66657 13.7364 4.41337 13.7007C3.98939 13.6354 3.57424 13.9623 3.53302 14.3933C3.4918 14.8421 3.81862 15.2375 4.25143 15.2613C4.7078 15.288 5.06111 14.961 5.08466 14.5003C5.08761 14.4706 5.10527 14.429 5.12883 14.4171C5.49687 14.2417 5.8649 14.0723 6.23294 13.8999C6.23588 13.8969 6.24472 13.8999 6.23588 13.9118C6.36838 14.0426 6.48909 14.1882 6.63631 14.3012C6.9013 14.5092 7.21044 14.5984 7.54609 14.5836C7.61087 14.5806 7.64031 14.5984 7.65798 14.6638C7.74631 14.9551 7.84053 15.2464 7.93474 15.5377C7.95535 15.6001 7.94946 15.6328 7.89352 15.6714C7.62854 15.8557 7.53137 16.1976 7.65504 16.4859C7.78458 16.7891 8.09668 16.9496 8.41466 16.8842C8.71792 16.8218 8.9358 16.5453 8.93875 16.2273C8.93875 15.9063 8.71793 15.6239 8.40877 15.5704C8.31456 15.5526 8.28217 15.5109 8.25567 15.4277C8.1644 15.1245 8.06429 14.8243 7.97007 14.53C8.13201 14.4349 8.29395 14.3428 8.45588 14.2477C9.18901 14.857 9.93098 15.4753 10.6759 16.0935C10.2931 16.6791 10.2872 17.2706 10.6612 17.8651C9.9192 18.4833 9.17429 19.1046 8.43822 19.7169C8.27923 19.6277 8.12318 19.5415 7.96124 19.4494C8.02013 19.271 8.08196 19.0808 8.14379 18.8906C8.18501 18.7627 8.22623 18.6349 8.26156 18.5071C8.27628 18.4536 8.29984 18.4298 8.35872 18.4209C8.6561 18.3763 8.87986 18.1593 8.92697 17.871C8.97702 17.5797 8.83864 17.3003 8.57365 17.1576C8.27628 16.9971 7.89647 17.1012 7.70803 17.3925C7.5196 17.6897 7.58731 18.085 7.86997 18.2931C7.93769 18.3436 7.94652 18.3793 7.92002 18.4596C7.81403 18.7687 7.71686 19.0808 7.61676 19.3959C7.04262 19.3632 6.59214 19.5891 6.25649 20.0676C6.17994 20.032 6.10339 19.9933 6.02684 19.9576C5.73241 19.8209 5.43798 19.6812 5.14355 19.5475C5.09938 19.5266 5.07878 19.5029 5.07583 19.4523C5.04933 19.1194 4.87562 18.8816 4.57235 18.7687C4.27204 18.6557 3.98644 18.7152 3.75384 18.95C3.52124 19.1848 3.45941 19.4731 3.57424 19.7823C3.68318 20.0736 3.904 20.2489 4.21315 20.2846C4.5223 20.3203 4.76962 20.1984 4.94923 19.9428C4.99045 19.8833 5.01695 19.8774 5.07878 19.9071C5.42031 20.0676 5.76185 20.2252 6.11222 20.3857C6.02684 20.6413 6.01212 20.9029 6.05922 21.1674C4.97278 21.539 3.89223 21.9105 2.80872 22.2791C2.4083 21.4082 1.42785 21.2209 0.777159 21.5717C0.123525 21.9254 -0.170904 22.722 0.0999708 23.4175C0.370846 24.1131 1.11575 24.4965 1.83121 24.3063C2.52018 24.1249 3.03543 23.4443 2.9 22.5971C3.98055 22.2256 5.06406 21.854 6.1505 21.4825C6.4626 22.068 6.93368 22.3891 7.59909 22.3415C8.26156 22.2939 8.67671 21.9075 8.90636 21.2863C8.97702 21.3041 9.04769 21.322 9.11835 21.3398C9.56883 21.4557 10.0164 21.5717 10.4668 21.6846C10.5139 21.6965 10.5463 21.7114 10.5581 21.7708C10.6406 22.175 10.985 22.395 11.3855 22.3058C11.3972 22.3029 11.412 22.2999 11.4326 22.2969C11.4944 22.4574 11.5562 22.6179 11.6181 22.7784C11.7152 23.0281 11.8124 23.2778 11.9125 23.5245C11.9302 23.5691 11.9302 23.5929 11.886 23.6256C11.3943 23.9852 11.4385 24.6689 11.9684 24.9721C11.989 24.984 12.0155 25.0167 12.0126 25.0375C11.992 25.2693 11.9684 25.5012 11.9449 25.733C11.9449 25.7419 11.939 25.7479 11.9331 25.7598C11.4915 25.7419 11.1087 25.8876 10.8025 26.2116C10.4933 26.5356 10.3667 26.9249 10.3962 27.3767C10.355 27.3827 10.3196 27.3827 10.2843 27.3916C10.2195 27.4065 10.1901 27.3827 10.1606 27.3232C9.99575 26.9695 9.60416 26.7971 9.23318 26.9101C8.87103 27.0201 8.63549 27.3946 8.68848 27.7691C8.74442 28.1585 9.07124 28.4468 9.45694 28.4498C9.84559 28.4528 10.1783 28.1704 10.2284 27.778C10.2431 27.671 10.3049 27.6918 10.3667 27.677C10.4345 27.6621 10.4551 27.6888 10.4816 27.7513C10.7259 28.3517 11.1705 28.6757 11.8153 28.7203C11.8359 28.7113 11.8624 28.7143 11.8948 28.7143Z" fill="#96D840"/>
<path d="M6.58626 11.4298C7.02201 11.4269 7.36061 11.0761 7.35472 10.6362C7.34883 10.2022 7.0014 9.86041 6.57154 9.86339C6.13872 9.86636 5.79719 10.223 5.80307 10.6689C5.80896 11.088 6.16228 11.4328 6.58626 11.4298Z" fill="#96D840"/>
<path d="M6.58036 22.5704C6.14755 22.5704 5.80306 22.9211 5.80306 23.3581C5.80306 23.7891 6.15049 24.1398 6.58036 24.1398C7.01023 24.1398 7.35471 23.792 7.35765 23.3581C7.35765 22.9181 7.01317 22.5674 6.58036 22.5704Z" fill="#96D840"/>
<path d="M3.80094 9.17082C3.80094 9.54534 4.09537 9.84555 4.46635 9.84555C4.83439 9.84555 5.13177 9.54831 5.13471 9.17379C5.13471 8.80224 4.83733 8.49906 4.4693 8.49906C4.09831 8.49608 3.80094 8.79927 3.80094 9.17082Z" fill="#96D840"/>
<path d="M3.80094 24.8264C3.80094 25.198 4.09832 25.5012 4.46635 25.5012C4.83439 25.5012 5.13176 25.201 5.13176 24.8294C5.13176 24.4549 4.83439 24.1576 4.46635 24.1547C4.09832 24.1547 3.80094 24.4519 3.80094 24.8264Z" fill="#96D840"/>
<path d="M13.0784 19.5385C13.3699 19.5385 13.6055 19.3007 13.6025 19.0035C13.6025 18.7092 13.364 18.4714 13.0725 18.4714C12.7811 18.4744 12.5485 18.7122 12.5485 19.0065C12.5485 19.3037 12.784 19.5385 13.0784 19.5385Z" fill="#96D840"/>
<path d="M14.1548 19.7553C14.1811 19.7553 14.2104 19.7553 14.2367 19.7553C15.9221 19.7405 17.0895 18.3358 17.0749 16.8515C17.0603 15.2553 15.8021 13.9742 14.2309 13.9742C14.1928 13.9742 14.1548 13.9742 14.1197 13.9771C14.1197 13.9329 14.1167 13.8888 14.1167 13.8446C14.1167 13.8387 14.1167 13.8299 14.1167 13.824C14.1431 13.824 14.1694 13.824 14.1957 13.824C15.8694 13.821 17.2475 15.1993 17.2475 16.8691C17.2475 18.5419 15.8811 19.9084 14.2133 19.9084C14.1957 19.9084 14.1782 19.9084 14.1636 19.9084C14.1928 19.8613 14.1957 19.7965 14.1548 19.7553Z" fill="#439F57"/>
<path d="M17.1299 16.8603C17.1299 16.8456 17.1299 16.8279 17.1299 16.8102C17.3084 16.8043 17.4898 16.7926 17.6683 16.7955C18.827 16.822 19.9798 16.7396 21.1268 16.6129C22.7712 16.4333 24.1932 15.7854 25.4104 14.6898C26.3087 13.8799 26.9348 12.9169 27.1953 11.7418C27.3152 11.2029 27.3737 10.6669 27.1689 10.1339C26.8763 9.36814 26.4169 8.7379 25.6152 8.4169C24.6906 8.04582 23.7309 7.8809 22.7361 8.03404C20.7055 8.34622 19.0494 9.29157 17.8146 10.9054C17.1358 11.7919 16.5009 12.7049 15.9566 13.6797C15.8718 13.8299 15.7781 13.9742 15.6874 14.1185C15.664 14.1568 15.6289 14.1862 15.5997 14.2216L15.5733 14.2039L15.4797 14.0979C15.5558 13.9153 15.6552 13.715 15.7577 13.5501C16.3341 12.6253 16.811 11.6476 17.2616 10.661C17.9726 9.10014 18.1101 7.48921 17.6917 5.82527C17.3991 4.66198 16.811 3.68129 15.8864 2.88908C15.4065 2.47972 14.7548 2.19511 14.2274 2.17343C14.1815 2.17155 14.2976 2.09392 14.2947 2.04091C14.8243 2.09686 15.31 2.28829 15.7489 2.62991C16.4774 3.1983 17.0685 3.87861 17.4342 4.72677C17.9141 5.83705 18.1248 6.9915 18.037 8.19897C17.9755 9.03535 17.7971 9.84229 17.4401 10.608C17.2089 11.1028 16.9632 11.5916 16.7262 12.0805C16.691 12.1541 16.6559 12.2307 16.6208 12.3043C16.6823 12.2602 16.7203 12.2072 16.7583 12.1512C17.0539 11.733 17.3377 11.3089 17.642 10.8996C18.6222 9.57135 19.9301 8.68195 21.5218 8.18718C22.464 7.89563 23.4208 7.7631 24.4039 7.94864C24.9598 8.05171 25.507 8.1813 25.9927 8.47285C26.9553 9.05008 27.4644 9.89825 27.4118 11.0085C27.3591 12.1129 26.9641 13.1142 26.2472 13.9712C24.834 15.6676 23.0111 16.6218 20.7728 16.7896C20.1378 16.8367 19.5029 16.8809 18.9089 16.9221C19.3478 16.9516 19.8277 16.9781 20.3075 17.0134C20.8547 17.0547 21.4048 17.0871 21.9431 17.2108C23.7719 17.6319 25.2583 18.5773 26.3877 20.0409C27.0109 20.8508 27.3474 21.7814 27.4176 22.7916C27.4791 23.6486 27.1426 24.3672 26.5369 24.9709C26.2238 25.2831 25.8376 25.4833 25.4221 25.6247C24.3483 25.9987 23.2569 26.0753 22.1421 25.8132C20.2988 25.3803 18.786 24.4555 17.6595 22.9536C17.4313 22.6473 17.2148 22.3322 16.9924 22.0229C16.9632 21.9817 16.931 21.9464 16.9017 21.9081C16.9076 21.9817 16.9339 22.0436 16.9632 22.1025C17.1036 22.394 17.244 22.6885 17.3874 22.9801C17.8292 23.896 18.037 24.8649 18.0633 25.8721C18.0926 26.8881 17.8965 27.8659 17.5249 28.8112C17.165 29.7242 16.5594 30.4605 15.7898 31.073C15.3217 31.447 14.7833 31.6679 14.1747 31.7033C14.1952 31.6738 14.201 31.6385 14.1923 31.5972C14.1893 31.5854 14.1835 31.5707 14.1747 31.5619C14.6926 31.5324 15.1812 31.3881 15.6172 31.0583C16.3487 30.5017 16.9544 29.839 17.3172 28.9968C18.1014 27.1826 18.1657 25.339 17.443 23.4955C17.01 22.3881 16.4599 21.3279 15.8425 20.306C15.7225 20.1057 15.6143 19.8996 15.5002 19.6964C15.4943 19.6816 15.5002 19.664 15.5002 19.6522C15.5441 19.6404 15.5792 19.6316 15.6318 19.6168C15.746 19.8053 15.8659 19.9909 15.9742 20.1823C16.5184 21.1483 17.1533 22.0583 17.8263 22.9388C18.8445 24.2729 20.1817 25.1535 21.8173 25.6129C23.0228 25.9516 24.2078 25.931 25.387 25.5157C25.9166 25.3302 26.3701 25.0416 26.7008 24.5851C27.1397 23.9814 27.3971 23.3276 27.2889 22.5766C27.1572 21.6872 26.8705 20.8479 26.3087 20.1263C25.0242 18.4742 23.3271 17.4964 21.2175 17.2373C20.0588 17.093 18.8914 17.0193 17.721 17.0429C17.5659 17.0458 17.4079 17.0399 17.2528 17.0341C17.2177 17.0341 17.1826 17.0134 17.1475 17.0046L17.1533 16.981" fill="#439F57"/>
<path d="M17.1299 16.8603C17.1299 16.8456 17.1299 16.8279 17.1299 16.8102C17.3084 16.8043 17.4898 16.7926 17.6683 16.7955C18.827 16.822 19.9798 16.7396 21.1268 16.6129C22.7712 16.4333 24.1932 15.7854 25.4104 14.6898C26.3087 13.8799 26.9348 12.9169 27.1953 11.7418C27.3152 11.2029 27.3737 10.6669 27.1689 10.1339C26.8763 9.36814 26.4169 8.7379 25.6152 8.4169C24.6906 8.04582 23.7309 7.8809 22.7361 8.03404C20.7055 8.34622 19.0494 9.29157 17.8146 10.9054C17.1358 11.7919 16.5009 12.7049 15.9566 13.6797C15.8718 13.8299 15.7781 13.9742 15.6874 14.1185C15.664 14.1568 15.6289 14.1862 15.5997 14.2216L15.5733 14.2039L15.4797 14.0979C15.5558 13.9153 15.6552 13.715 15.7577 13.5501C16.3341 12.6253 16.811 11.6476 17.2616 10.661C17.9726 9.10014 18.1101 7.48921 17.6917 5.82527C17.3991 4.66198 16.811 3.68129 15.8864 2.88908C15.4065 2.47972 14.7548 2.19511 14.2274 2.17343C14.1815 2.17155 14.2976 2.09392 14.2947 2.04091C14.8243 2.09686 15.31 2.28829 15.7489 2.62991C16.4774 3.1983 17.0685 3.87861 17.4342 4.72677C17.9141 5.83705 18.1248 6.9915 18.037 8.19897C17.9755 9.03535 17.7971 9.84229 17.4401 10.608C17.2089 11.1028 16.9632 11.5916 16.7262 12.0805C16.691 12.1541 16.6559 12.2307 16.6208 12.3043C16.6823 12.2602 16.7203 12.2072 16.7583 12.1512C17.0539 11.733 17.3377 11.3089 17.642 10.8996C18.6222 9.57135 19.9301 8.68195 21.5218 8.18718C22.464 7.89563 23.4208 7.7631 24.4039 7.94864C24.9598 8.05171 25.507 8.1813 25.9927 8.47285C26.9553 9.05008 27.4644 9.89825 27.4118 11.0085C27.3591 12.1129 26.9641 13.1142 26.2472 13.9712C24.834 15.6676 23.0111 16.6218 20.7728 16.7896C20.1378 16.8367 19.5029 16.8809 18.9089 16.9221C19.3478 16.9516 19.8277 16.9781 20.3075 17.0134C20.8547 17.0547 21.4048 17.0871 21.9431 17.2108C23.7719 17.6319 25.2583 18.5773 26.3877 20.0409C27.0109 20.8508 27.3474 21.7814 27.4176 22.7916C27.4791 23.6486 27.1426 24.3672 26.5369 24.9709C26.2238 25.2831 25.8376 25.4833 25.4221 25.6247C24.3483 25.9987 23.2569 26.0753 22.1421 25.8132C20.2988 25.3803 18.786 24.4555 17.6595 22.9536C17.4313 22.6473 17.2148 22.3322 16.9924 22.0229C16.9632 21.9817 16.931 21.9464 16.9017 21.9081C16.9076 21.9817 16.9339 22.0436 16.9632 22.1025C17.1036 22.394 17.244 22.6885 17.3874 22.9801C17.8292 23.896 18.037 24.8649 18.0633 25.8721C18.0926 26.8881 17.8965 27.8659 17.5249 28.8112C17.165 29.7242 16.5594 30.4605 15.7898 31.073C15.3217 31.447 14.7833 31.6679 14.1747 31.7033C14.1952 31.6738 14.201 31.6385 14.1923 31.5972C14.1893 31.5854 14.1835 31.5707 14.1747 31.5619C14.6926 31.5324 15.1812 31.3881 15.6172 31.0583C16.3487 30.5017 16.9544 29.839 17.3172 28.9968C18.1014 27.1826 18.1657 25.339 17.443 23.4955C17.01 22.3881 16.4599 21.3279 15.8425 20.306C15.7225 20.1057 15.6143 19.8996 15.5002 19.6964C15.4943 19.6816 15.5002 19.664 15.5002 19.6522C15.5441 19.6404 15.5792 19.6316 15.6318 19.6168C15.746 19.8053 15.8659 19.9909 15.9742 20.1823C16.5184 21.1483 17.1533 22.0583 17.8263 22.9388C18.8445 24.2729 20.1817 25.1535 21.8173 25.6129C23.0228 25.9516 24.2078 25.931 25.387 25.5157C25.9166 25.3302 26.3701 25.0416 26.7008 24.5851C27.1397 23.9814 27.3971 23.3276 27.2889 22.5766C27.1572 21.6872 26.8705 20.8479 26.3087 20.1263C25.0242 18.4742 23.3271 17.4964 21.2175 17.2373C20.0588 17.093 18.8914 17.0193 17.721 17.0429C17.5659 17.0458 17.4079 17.0399 17.2528 17.0341C17.2177 17.0341 17.1826 17.0134 17.1475 17.0046L17.1533 16.981M13.8547 33.7353L13.8781 0M14.1548 19.7553C14.1811 19.7553 14.2104 19.7553 14.2367 19.7553C15.9221 19.7405 17.0895 18.3358 17.0749 16.8515C17.0603 15.2553 15.8021 13.9742 14.2309 13.9742C14.1928 13.9742 14.1548 13.9742 14.1197 13.9771C14.1197 13.9329 14.1167 13.8888 14.1167 13.8446C14.1167 13.8387 14.1167 13.8299 14.1167 13.824C14.1431 13.824 14.1694 13.824 14.1957 13.824C15.8694 13.821 17.2475 15.1993 17.2475 16.8691C17.2475 18.5419 15.8811 19.9084 14.2133 19.9084C14.1957 19.9084 14.1782 19.9084 14.1636 19.9084C14.1928 19.8613 14.1957 19.7965 14.1548 19.7553Z" stroke="#439F57" stroke-width="1.5" stroke-miterlimit="10"/>
<path d="M32.965 17.2019H31.3974V1.71119H29.7178V0.808594H33.4129V8.85295H33.4577C33.7861 8.31892 34.2116 7.92404 34.7342 7.6683C35.2642 7.41257 35.839 7.2847 36.4586 7.2847C37.108 7.2847 37.7015 7.40505 38.239 7.64574C38.7839 7.88643 39.2542 8.22866 39.6498 8.67244C40.0455 9.10869 40.3515 9.63896 40.568 10.2633C40.792 10.8876 40.9039 11.5795 40.9039 12.3392C40.9039 13.144 40.7808 13.8661 40.5344 14.5054C40.2955 15.1448 39.9708 15.6863 39.5602 16.1301C39.1497 16.5739 38.6719 16.9161 38.127 17.1568C37.582 17.3975 37.0073 17.5178 36.4026 17.5178C35.7979 17.5178 35.2381 17.3862 34.723 17.123C34.2154 16.8522 33.7936 16.4235 33.4577 15.8368H33.3905L32.965 17.2019ZM38.6869 12.3731C38.6869 11.5156 38.6271 10.8161 38.5077 10.2745C38.3883 9.72546 38.2166 9.29673 37.9926 8.98834C37.7761 8.67244 37.5149 8.45807 37.2088 8.34525C36.9027 8.23242 36.5631 8.17601 36.1898 8.17601C35.6822 8.17601 35.253 8.27379 34.9021 8.46935C34.5513 8.66491 34.2639 8.94321 34.04 9.30425C33.8235 9.66529 33.663 10.1015 33.5585 10.613C33.4614 11.117 33.4129 11.6848 33.4129 12.3167C33.4129 12.9635 33.4577 13.5201 33.5473 13.9865C33.6443 14.4528 33.7675 14.8477 33.9168 15.1711C34.0661 15.487 34.2378 15.7427 34.4319 15.9383C34.6334 16.1264 34.835 16.273 35.0365 16.3783C35.2455 16.4761 35.4508 16.5438 35.6524 16.5814C35.8614 16.6115 36.048 16.6265 36.2122 16.6265C36.5706 16.6265 36.899 16.5701 37.1976 16.4573C37.5037 16.3445 37.7649 16.1339 37.9814 15.8255C38.2054 15.5096 38.3771 15.0771 38.4965 14.528C38.6234 13.9714 38.6869 13.2531 38.6869 12.3731Z" fill="#439F57"/>
<path d="M49.5546 8.49192H47.9309V7.58932H51.5701V16.2993H53.2497V17.2019H49.5546V15.7578H49.5098C49.1813 16.3595 48.7745 16.8033 48.2893 17.0891C47.804 17.3749 47.177 17.5178 46.4081 17.5178C45.3406 17.5178 44.5456 17.2584 44.0231 16.7394C43.508 16.2128 43.2504 15.4494 43.2504 14.449V8.49192H41.6268V7.58932H45.266V14.7875C45.266 15.3968 45.4041 15.8368 45.6803 16.1075C45.9639 16.3708 46.367 16.5024 46.8896 16.5024C47.2554 16.5024 47.5988 16.4347 47.9197 16.2993C48.2482 16.1564 48.5319 15.927 48.7707 15.6111C49.0171 15.2952 49.2074 14.8815 49.3418 14.3701C49.4836 13.8586 49.5546 13.2305 49.5546 12.4859V8.49192Z" fill="#439F57"/>
<path d="M60.3551 10.7822C60.3178 10.2933 60.2356 9.87965 60.1087 9.54118C59.9893 9.20271 59.8251 8.92817 59.6161 8.71757C59.407 8.50696 59.1532 8.35653 58.8546 8.26627C58.5635 8.16849 58.2276 8.1196 57.8469 8.1196C57.5557 8.1196 57.287 8.14968 57.0407 8.20986C56.7943 8.26251 56.5816 8.34901 56.4024 8.46935C56.2233 8.58218 56.0814 8.73261 55.9769 8.92065C55.8799 9.10869 55.8313 9.33434 55.8313 9.59759C55.8313 9.86085 55.8761 10.079 55.9657 10.252C56.0628 10.4174 56.2158 10.5679 56.4248 10.7033C56.6413 10.8311 56.9138 10.9552 57.2422 11.0756C57.5781 11.1959 57.9887 11.3388 58.4739 11.5043C58.8621 11.6397 59.2465 11.7826 59.6272 11.9331C60.008 12.0835 60.3476 12.2715 60.6462 12.4972C60.9523 12.7228 61.1986 12.9974 61.3852 13.3208C61.5719 13.6367 61.6652 14.0241 61.6652 14.4829C61.6652 15.0019 61.5495 15.4532 61.318 15.8368C61.0866 16.2204 60.7806 16.5363 60.3999 16.7845C60.0192 17.0327 59.5862 17.217 59.101 17.3373C58.6158 17.4577 58.1193 17.5178 57.6117 17.5178C57.343 17.5178 57.0556 17.5028 56.7495 17.4727C56.4509 17.4426 56.1523 17.4013 55.8537 17.3486C55.5626 17.296 55.2827 17.2358 55.0139 17.1681C54.7527 17.0929 54.5213 17.0177 54.3197 16.9424L54.2413 13.6705H55.0139C55.0513 14.2422 55.1296 14.7236 55.2491 15.1147C55.376 15.4983 55.5477 15.8067 55.7642 16.0399C55.9881 16.273 56.2568 16.4385 56.5704 16.5363C56.8914 16.6341 57.2646 16.683 57.6901 16.683C58.0111 16.683 58.306 16.6566 58.5747 16.604C58.8509 16.5438 59.0898 16.4535 59.2913 16.3332C59.4929 16.2053 59.6496 16.0399 59.7616 15.8368C59.8811 15.6337 59.9408 15.3892 59.9408 15.1034C59.9408 14.8552 59.896 14.6521 59.8064 14.4942C59.7168 14.3287 59.575 14.182 59.3809 14.0541C59.1868 13.9263 58.9367 13.8059 58.6307 13.6931C58.3246 13.5803 57.9588 13.4487 57.5333 13.2982C57.1078 13.1478 56.6973 12.9936 56.3016 12.8356C55.9135 12.6702 55.5701 12.4746 55.2715 12.249C54.9729 12.0158 54.734 11.7375 54.5548 11.4141C54.3757 11.0906 54.2861 10.6957 54.2861 10.2294C54.2861 9.71794 54.3906 9.27793 54.5996 8.90937C54.8087 8.53329 55.0849 8.2249 55.4282 7.98421C55.7791 7.74352 56.1785 7.56676 56.6264 7.45394C57.0817 7.34111 57.552 7.2847 58.0372 7.2847C58.2836 7.2847 58.5411 7.29974 58.8098 7.32983C59.0786 7.35239 59.3436 7.38624 59.6049 7.43137C59.8736 7.4765 60.1274 7.52915 60.3663 7.58932C60.6126 7.64198 60.8366 7.69463 61.0381 7.74728L61.1165 10.7822H60.3551Z" fill="#439F57"/>
<path d="M66.072 16.2993H67.5836V17.2019H62.3769V16.2993H64.0565V1.71119H62.3769V0.808594H66.072V9.10117H66.1168C66.4303 8.522 66.8409 8.07447 67.3485 7.75856C67.8636 7.44265 68.5242 7.2847 69.3304 7.2847C70.368 7.2847 71.1332 7.55172 71.6259 8.08575C72.126 8.61226 72.3761 9.36819 72.3761 10.3535V16.2993H73.9997V17.2019H68.8489V16.2993H70.3606V10.094C70.3606 9.46221 70.2225 9.00715 69.9463 8.72885C69.6701 8.44303 69.2744 8.30012 68.7594 8.30012C68.3861 8.30012 68.0353 8.37533 67.7068 8.52576C67.3858 8.6762 67.1022 8.90937 66.8558 9.22528C66.6169 9.54118 66.4266 9.94735 66.2847 10.4438C66.1429 10.9402 66.072 11.5382 66.072 12.2377V16.2993Z" fill="#439F57"/>
<path d="M37.0632 30.3112C36.8617 31.1912 36.5295 31.8419 36.0667 32.2631C35.6038 32.6768 34.9656 32.8836 34.1519 32.8836C33.7264 32.8836 33.342 32.8309 32.9986 32.7256C32.6627 32.6203 32.3753 32.4549 32.1364 32.2292C31.8975 31.996 31.7146 31.7027 31.5877 31.3492C31.4608 30.9881 31.3974 30.5519 31.3974 30.0404V23.8577H29.7178V22.9551H31.3974V20.7663L33.4129 20.4278V22.9551H36.3242V23.8577H33.4129V30.2886C33.4129 30.597 33.439 30.849 33.4913 31.0446C33.551 31.2401 33.6331 31.3943 33.7376 31.5071C33.8421 31.62 33.9653 31.6989 34.1071 31.7441C34.249 31.7817 34.4095 31.8005 34.5886 31.8005C34.8275 31.8005 35.0328 31.7666 35.2045 31.6989C35.3762 31.6237 35.5255 31.5147 35.6524 31.3718C35.7867 31.2213 35.8987 31.037 35.9883 30.8189C36.0853 30.6008 36.1749 30.3488 36.257 30.063C36.3989 30.0856 36.537 30.1156 36.6713 30.1532C36.8057 30.1909 36.9363 30.2435 37.0632 30.3112Z" fill="#439F57"/>
<path d="M42.8697 32.5677H37.383V31.6651H39.0626V23.8577H37.383V22.9551H41.0782V24.7038H41.1229C41.2573 24.4105 41.4215 24.1435 41.6156 23.9028C41.8172 23.6546 42.0374 23.4402 42.2763 23.2597C42.5152 23.0792 42.769 22.94 43.0377 22.8422C43.3064 22.7445 43.5789 22.6956 43.8551 22.6956C44.303 22.6956 44.6725 22.8272 44.9636 23.0905C45.2548 23.3537 45.4003 23.7185 45.4003 24.1849C45.4003 24.5985 45.2884 24.922 45.0644 25.1551C44.8405 25.3808 44.5493 25.4936 44.191 25.4936C43.8178 25.4936 43.5304 25.3846 43.3288 25.1664C43.1347 24.9483 43.0377 24.6738 43.0377 24.3428C43.0377 24.1698 43.0713 23.9818 43.1385 23.7787C42.8473 23.884 42.5749 24.0532 42.3211 24.2864C42.0747 24.512 41.8582 24.7979 41.6716 25.1439C41.485 25.4899 41.3394 25.8923 41.2349 26.3511C41.1304 26.8024 41.0782 27.3063 41.0782 27.8629V31.6651H42.8697V32.5677Z" fill="#439F57"/>
<path d="M54.566 29.5102C54.3272 30.6008 53.8643 31.4357 53.1776 32.0148C52.4908 32.594 51.5987 32.8836 50.5014 32.8836C49.7474 32.8836 49.0756 32.752 48.4859 32.4887C47.8962 32.2179 47.396 31.8531 46.9854 31.3943C46.5749 30.9355 46.2613 30.4015 46.0449 29.7922C45.8284 29.1754 45.7201 28.5211 45.7201 27.8291C45.7201 27.122 45.8321 26.4526 46.0561 25.8208C46.28 25.189 46.5973 24.6399 47.0078 24.1736C47.4259 23.7072 47.9223 23.3387 48.4971 23.0679C49.0793 22.7896 49.7288 22.6504 50.4454 22.6504C51.1023 22.6504 51.6921 22.767 52.2146 23.0002C52.7371 23.2334 53.1813 23.5606 53.5471 23.9818C53.9129 24.3955 54.1928 24.8919 54.3869 25.471C54.5884 26.0502 54.6967 26.6858 54.7116 27.3778H47.9596C47.9521 27.5056 47.9484 27.5921 47.9484 27.6373C47.9484 27.6749 47.9484 27.6974 47.9484 27.705C47.9484 28.5925 48.0119 29.3146 48.1388 29.8712C48.2731 30.4278 48.456 30.864 48.6874 31.18C48.9263 31.4883 49.2062 31.6989 49.5272 31.8118C49.8557 31.9246 50.2177 31.981 50.6134 31.981C50.9792 31.981 51.3225 31.9321 51.6435 31.8343C51.972 31.7365 52.2669 31.5824 52.5281 31.3718C52.7894 31.1536 53.0171 30.8753 53.2112 30.5369C53.4127 30.1909 53.5732 29.7772 53.6926 29.2958C53.8419 29.3108 53.9912 29.3372 54.1405 29.3748C54.2898 29.4124 54.4317 29.4575 54.566 29.5102ZM52.4497 26.4977C52.4273 25.8735 52.3602 25.3695 52.2482 24.9859C52.1437 24.5948 52.0019 24.2902 51.8227 24.072C51.6435 23.8539 51.4308 23.7072 51.1844 23.632C50.9456 23.5493 50.6806 23.5079 50.3894 23.5079C50.0834 23.5079 49.796 23.553 49.5272 23.6433C49.266 23.7336 49.0308 23.8915 48.8218 24.1172C48.6128 24.3428 48.4374 24.6474 48.2955 25.031C48.1612 25.4146 48.0678 25.9035 48.0156 26.4977H52.4497Z" fill="#439F57"/>
<path d="M64.9411 29.5102C64.7022 30.6008 64.2394 31.4357 63.5526 32.0148C62.8658 32.594 61.9738 32.8836 60.8764 32.8836C60.1225 32.8836 59.4506 32.752 58.8609 32.4887C58.2712 32.2179 57.771 31.8531 57.3605 31.3943C56.9499 30.9355 56.6364 30.4015 56.4199 29.7922C56.2034 29.1754 56.0952 28.5211 56.0952 27.8291C56.0952 27.122 56.2071 26.4526 56.4311 25.8208C56.655 25.189 56.9723 24.6399 57.3829 24.1736C57.8009 23.7072 58.2973 23.3387 58.8721 23.0679C59.4544 22.7896 60.1038 22.6504 60.8204 22.6504C61.4773 22.6504 62.0671 22.767 62.5896 23.0002C63.1122 23.2334 63.5563 23.5606 63.9221 23.9818C64.2879 24.3955 64.5678 24.8919 64.7619 25.471C64.9635 26.0502 65.0717 26.6858 65.0866 27.3778H58.3346C58.3272 27.5056 58.3234 27.5921 58.3234 27.6373C58.3234 27.6749 58.3234 27.6974 58.3234 27.705C58.3234 28.5925 58.3869 29.3146 58.5138 29.8712C58.6482 30.4278 58.831 30.864 59.0625 31.18C59.3013 31.4883 59.5813 31.6989 59.9023 31.8118C60.2307 31.9246 60.5928 31.981 60.9884 31.981C61.3542 31.981 61.6976 31.9321 62.0186 31.8343C62.347 31.7365 62.6419 31.5824 62.9031 31.3718C63.1644 31.1536 63.3921 30.8753 63.5862 30.5369C63.7877 30.1909 63.9482 29.7772 64.0677 29.2958C64.217 29.3108 64.3663 29.3372 64.5156 29.3748C64.6649 29.4124 64.8067 29.4575 64.9411 29.5102ZM62.8248 26.4977C62.8024 25.8735 62.7352 25.3695 62.6232 24.9859C62.5187 24.5948 62.3769 24.2902 62.1977 24.072C62.0186 23.8539 61.8058 23.7072 61.5595 23.632C61.3206 23.5493 61.0556 23.5079 60.7645 23.5079C60.4584 23.5079 60.171 23.553 59.9023 23.6433C59.641 23.7336 59.4058 23.8915 59.1968 24.1172C58.9878 24.3428 58.8124 24.6474 58.6705 25.031C58.5362 25.4146 58.4429 25.9035 58.3906 26.4977H62.8248Z" fill="#439F57"/>
</svg>
