<svg width="147" height="17" viewBox="0 0 147 17" fill="none" xmlns="http://www.w3.org/2000/svg">
<path fill-rule="evenodd" clip-rule="evenodd" d="M20.2773 3.20312H12.8639L11.8213 4.27581V12.7533L12.8639 13.7997H20.2773L21.3232 12.7533V4.27772L20.2773 3.20312ZM19.2184 11.6801H13.9395V5.32415H19.2184V11.6801ZM8.66051 13.8016H1.24717L0.203125 12.7571V4.27968L1.24717 3.20508H8.66051L9.70408 4.27968V6.384H7.60119V5.3242H2.32129V11.682H7.60119V10.6375H9.70408V12.7571L8.66051 13.8016ZM28.7222 3.20312H35.06L36.1193 4.27772V12.7552L35.06 13.8016H28.7222L27.6634 12.7552V9.57624H25.5586V13.8011H23.4404V3.20312H25.5586V7.45473H27.6634V4.27581L28.7222 3.20312ZM29.7816 11.6801H34.0174V5.32415H29.7816V11.6801ZM46.6923 13.8016H39.2789L38.2354 12.7571V10.6375H40.353V11.682H45.6334V9.57819H42.4564V7.4586H45.6334V5.3242H40.353V6.384H38.2354V4.27968L39.2789 3.20508H46.6923L47.7363 4.27968V7.4586L46.6923 8.51839L47.7363 9.57819V12.7571L46.6923 13.8016ZM67.4243 3.20312H50.8981L49.8555 4.27581V12.7533L50.8981 13.8011H67.4252L68.4707 12.7547V4.27772L67.4243 3.20312ZM53.2482 10.418H51.9717V11.6955H53.2482V10.418ZM51.9717 5.31055H57.0692L57.6994 5.95931V9.15303L57.0692 9.79178H51.9717V5.31055ZM53.2487 8.5119H56.4305V6.58803H53.2487V8.5119ZM65.7279 5.31055H59.3524L58.7236 5.95693V10.1188L59.3524 10.7475H61.9054V11.6975H63.1824V10.7466H65.7279L66.3661 10.1178V5.95693L65.7279 5.31055ZM61.9054 9.47002H60.0006V6.58803H61.9054V9.47002ZM65.0977 9.47002H63.1824V6.58803H65.0977V9.47002Z" fill="#F4F4F4"/>
<path d="M73 0.5L73 16.5" stroke="#F4F4F4" stroke-linecap="round"/>
<path d="M83.6246 6.78924C83.6246 5.97618 84.5022 5.46585 85.2089 5.86805L89.9297 8.55504C90.0603 8.62935 90.17 8.73536 90.2487 8.86328L90.3035 8.95231C90.5411 9.33819 90.5393 9.82541 90.2988 10.2095L90.2487 10.2895C90.17 10.4153 90.0611 10.5196 89.9319 10.5928L85.1889 13.2812C84.4905 13.6771 83.6246 13.1726 83.6246 12.3698C83.6246 12.0687 83.7861 11.7907 84.0477 11.6416L87.2064 9.84123C87.4069 9.72692 87.4069 9.43782 87.2064 9.32352L84.0526 7.52594C83.788 7.37509 83.6246 7.09387 83.6246 6.78924Z" fill="#F4F4F4"/>
<path d="M87.416 3.47072C87.687 3.45056 87.918 3.66498 87.918 3.93672V5.21303C87.918 5.3569 87.8679 5.49629 87.7763 5.60727L81.1493 13.6412C81.1174 13.6799 81.0708 13.7033 81.0208 13.7058C80.7498 13.7192 80.5226 13.5031 80.5226 13.2317V11.9808C80.5226 11.836 80.573 11.6957 80.665 11.5839L87.2937 3.53408C87.3241 3.49716 87.3683 3.47427 87.416 3.47072Z" fill="#F4F4F4"/>
<path d="M84.0668 10.8123C84.0668 11.6254 83.1892 12.1357 82.4825 11.7335L77.7617 9.04652C77.6312 8.97222 77.5214 8.8662 77.4427 8.73828L77.3879 8.64925C77.1503 8.26337 77.1522 7.77615 77.3926 7.39206L77.4427 7.3121C77.5215 7.18625 77.6304 7.08201 77.7595 7.0088L82.5025 4.32031C83.2009 3.92442 84.0668 4.42893 84.0668 5.23176C84.0668 5.53287 83.9053 5.81083 83.6437 5.95994L80.485 7.76034C80.2845 7.87464 80.2845 8.16374 80.485 8.27804L83.6388 10.0756C83.9034 10.2265 84.0668 10.5077 84.0668 10.8123Z" fill="#F4F4F4"/>
<path d="M91.7682 13.5V4.28117H93.4455V13.5H91.7682ZM98.1643 13.5V5.9841H94.3999V4.28117H103.619V5.9841H99.8672V13.5H98.1643ZM106.356 13.5C106.032 13.5 105.733 13.4189 105.46 13.2567C105.195 13.0945 104.982 12.8811 104.82 12.6165C104.657 12.3434 104.576 12.0446 104.576 11.7203V6.06092C104.576 5.73655 104.657 5.44206 104.82 5.17745C104.982 4.9043 105.195 4.68663 105.46 4.52445C105.733 4.36227 106.032 4.28117 106.356 4.28117H112.003C112.327 4.28117 112.626 4.36227 112.899 4.52445C113.172 4.68663 113.39 4.9043 113.552 5.17745C113.714 5.44206 113.795 5.73655 113.795 6.06092V6.77794H112.092V6.13774C112.092 6.09506 112.075 6.06092 112.041 6.03531C112.007 6.00117 111.968 5.9841 111.926 5.9841H106.42C106.377 5.9841 106.339 6.00117 106.305 6.03531C106.279 6.06092 106.266 6.09506 106.266 6.13774V11.6434C106.266 11.6861 106.279 11.7245 106.305 11.7587C106.339 11.7843 106.377 11.7971 106.42 11.7971H111.926C111.968 11.7971 112.007 11.7843 112.041 11.7587C112.075 11.7245 112.092 11.6861 112.092 11.6434V9.97892H110.005V8.276H113.795V11.7203C113.795 12.0446 113.714 12.3434 113.552 12.6165C113.39 12.8811 113.172 13.0945 112.899 13.2567C112.626 13.4189 112.327 13.5 112.003 13.5H106.356ZM115.23 13.5V4.28117H123.719V5.9841H116.933V8.03272H122.388V9.74845H116.933V11.7971H123.719V13.5H115.23ZM125.008 13.5V4.28117H126.864L132.524 11.016V4.28117H134.226V13.5H132.37L126.698 6.75233V13.5H125.008ZM135.686 13.5V4.28117H144.175V5.9841H137.389V8.03272H142.844V9.74845H137.389V11.7971H144.175V13.5H135.686Z" fill="#F4F4F4"/>
</svg>
