<?xml version="1.0" encoding="utf-8"?>
<!-- Generator: Adobe Illustrator 24.1.2, SVG Export Plug-In . SVG Version: 6.00 Build 0)  -->
<svg version="1.1" id="Слой_1" xmlns="http://www.w3.org/2000/svg" xmlns:xlink="http://www.w3.org/1999/xlink" x="0px" y="0px"
	 viewBox="0 0 32 32" style="enable-background:new 0 0 32 32;" xml:space="preserve">
<style type="text/css">
	.st0{fill:url(#SVGID_1_);}
	.st1{fill:url(#SVGID_2_);}
	.st2{fill:url(#SVGID_3_);}
	.st3{fill:url(#SVGID_4_);}
	.st4{fill:url(#SVGID_5_);}
	.st5{fill:url(#SVGID_6_);}
	.st6{fill:#FFFFFF;filter:url(#Adobe_OpacityMaskFilter);}
	.st7{fill:#FFFFFF;}
	.st8{mask:url(#path-1-inside-1_1967_911_1_);fill:none;stroke:#003320;stroke-width:0.11;}
	.st9{fill:#FFFFFF;filter:url(#Adobe_OpacityMaskFilter_1_);}
	.st10{mask:url(#path-1-inside-1_1967_911_2_);fill:none;stroke:#003320;stroke-width:0.11;}
	.st11{fill:#FFFFFF;filter:url(#Adobe_OpacityMaskFilter_2_);}
	.st12{mask:url(#path-1-inside-1_1967_911_3_);fill:none;stroke:#003320;stroke-width:0.11;}
	.st13{fill:#FFFFFF;filter:url(#Adobe_OpacityMaskFilter_3_);}
	.st14{mask:url(#path-1-inside-1_1967_911_4_);fill:none;stroke:#003320;stroke-width:0.11;}
	.st15{fill:#FFFFFF;filter:url(#Adobe_OpacityMaskFilter_4_);}
	.st16{mask:url(#path-1-inside-1_1967_911_5_);fill:none;stroke:#003320;stroke-width:0.11;}
	.st17{fill:#FFFFFF;filter:url(#Adobe_OpacityMaskFilter_5_);}
	.st18{mask:url(#path-1-inside-1_1967_911_6_);fill:none;stroke:#003320;stroke-width:0.11;}
	.st19{fill:url(#SVGID_7_);}
	.st20{fill:url(#SVGID_8_);}
	.st21{fill:none;stroke:url(#SVGID_9_);stroke-width:1.5;stroke-miterlimit:10;}
</style>
<linearGradient id="SVGID_1_" gradientUnits="userSpaceOnUse" x1="22.0302" y1="22.0997" x2="-1.1633" y2="10.2919" gradientTransform="matrix(1 0 0 -1 0 34)">
	<stop  offset="0" style="stop-color:#023B28"/>
	<stop  offset="1" style="stop-color:#05A16D"/>
</linearGradient>
<path class="st0" d="M13.4,25.8c0,0.2,0,0.4,0.1,0.6c0,0.4,0.1,0.7,0.1,1.1c0,0.1,0,0.1-0.1,0.1c-0.3,0.1-0.5,0.4-0.4,0.7
	c0.1,0.3,0.3,0.5,0.6,0.5c0.3,0,0.6-0.2,0.6-0.5c0.1-0.3-0.2-0.7-0.5-0.7c-0.1,0-0.1,0-0.1-0.1c0-0.4-0.1-0.8-0.1-1.2
	c0-0.2,0-0.4,0-0.5c0.6-0.2,0.9-0.6,0.9-1.2c0-0.6-0.3-1-0.9-1.2c0-0.2,0-0.4,0.1-0.6c0,0,0,0,0.1,0c0.5,0,0.8-0.6,0.5-1
	c-0.1-0.2-0.3-0.3-0.6-0.3c-0.1,0-0.1,0-0.1-0.1c-0.1-0.3-0.2-0.7-0.4-1c0,0,0-0.1,0-0.1c0.2-0.3,0.1-0.6-0.1-0.8
	c-0.3-0.2-0.6-0.1-0.8,0.2c0,0,0,0-0.1,0c-0.4-0.1-0.8-0.2-1.3-0.3c0,0,0,0,0,0c0-0.3-0.1-0.5-0.2-0.8c0,0,0,0,0,0
	c0.2-0.1,0.3-0.3,0.5-0.4c0.4-0.4,0.9-0.7,1.3-1.1c0,0,0.1,0,0.1,0c0.3,0.2,0.6,0.3,0.9,0.2c0.6-0.1,1-0.6,1-1.1
	c0.1-0.6-0.4-1.2-1-1.3c-0.4-0.1-0.7,0-1,0.3c-0.6-0.5-1.2-1-1.8-1.5c0.1-0.2,0.2-0.3,0.2-0.5c0-0.1,0-0.2,0-0.2c0,0,0-0.1,0-0.1
	c0.4-0.1,0.8-0.2,1.3-0.3c0,0,0.1,0,0.1,0c0.1,0.2,0.4,0.3,0.6,0.3c0.4-0.1,0.5-0.6,0.3-0.9c0,0,0-0.1,0-0.1c0.1-0.3,0.2-0.7,0.4-1
	c0-0.1,0-0.1,0.1-0.1c0.3,0,0.6-0.3,0.7-0.6c0-0.4-0.2-0.7-0.6-0.7c-0.1,0-0.1,0-0.1-0.1c0-0.2,0-0.3,0-0.5c0,0,0-0.1,0.1-0.1
	c0.5-0.2,0.7-0.5,0.8-1c0.1-0.6-0.3-1.2-0.9-1.3c0,0,0,0,0,0c0-0.2,0-0.5,0.1-0.7c0-0.2,0-0.5,0.1-0.7c0-0.1,0-0.2,0-0.3
	c0,0,0,0,0.1,0c0.3-0.1,0.5-0.4,0.5-0.7c0-0.3-0.3-0.6-0.7-0.6c-0.3,0-0.6,0.3-0.6,0.6c0,0.3,0.2,0.5,0.4,0.6c0,0,0.1,0,0,0.1
	c-0.1,0.5-0.1,1.1-0.2,1.6c0,0,0,0,0,0c-0.1,0-0.3,0-0.4,0.1c-0.4,0.1-0.6,0.4-0.8,0.8c0,0,0,0.1-0.1,0.1c-0.1,0-0.1,0-0.1-0.1
	c-0.1-0.3-0.3-0.6-0.7-0.5c-0.3,0-0.6,0.3-0.6,0.6c0,0.3,0.2,0.6,0.5,0.7C11.6,8,11.9,7.8,12,7.6c0.1-0.1,0.1-0.1,0.2-0.1
	c0,0.4,0.1,0.7,0.3,1c0.3,0.3,0.6,0.4,0.9,0.4c0,0.2,0,0.3,0.1,0.5c0,0.1,0,0.1-0.1,0.2c-0.4,0.2-0.4,0.8,0,1.1c0,0,0.1,0.1,0,0.1
	c-0.1,0.3-0.2,0.6-0.4,1c0,0,0,0,0,0c-0.1,0-0.2,0-0.3,0c-0.2,0-0.4,0.2-0.5,0.4c0,0,0,0.1-0.1,0.1c-0.4,0.1-0.8,0.2-1.3,0.3
	c0,0,0,0,0,0c-0.2-0.5-0.5-0.8-1.1-0.9c-0.5,0-0.9,0.2-1.2,0.7c-0.9-0.3-1.8-0.6-2.7-0.9c0.1-0.4,0-0.7-0.3-1C5.6,10.2,5.3,10,5,10
	c-0.6-0.1-1.2,0.3-1.3,0.9c-0.2,0.6,0.1,1.2,0.7,1.5c0.6,0.2,1.3,0,1.6-0.7c0.9,0.3,1.8,0.6,2.7,0.9c0,0.2,0,0.4,0,0.7
	c-0.3,0.1-0.6,0.3-0.9,0.4c-0.1-0.2-0.3-0.3-0.5-0.3c-0.3-0.1-0.7,0.2-0.7,0.6c0,0.4,0.2,0.7,0.6,0.7c0.4,0,0.7-0.2,0.7-0.6
	c0,0,0-0.1,0-0.1c0.3-0.1,0.6-0.3,0.9-0.4c0,0,0,0,0,0c0.1,0.1,0.2,0.2,0.3,0.3c0.2,0.2,0.5,0.2,0.7,0.2c0.1,0,0.1,0,0.1,0.1
	c0.1,0.2,0.1,0.5,0.2,0.7c0,0.1,0,0.1,0,0.1c-0.2,0.2-0.3,0.4-0.2,0.7c0.1,0.3,0.4,0.4,0.6,0.3c0.2-0.1,0.4-0.3,0.4-0.5
	c0-0.3-0.2-0.5-0.4-0.5c-0.1,0-0.1,0-0.1-0.1c-0.1-0.3-0.2-0.5-0.2-0.7c0.1-0.1,0.3-0.2,0.4-0.2c0.6,0.5,1.2,1,1.8,1.5
	c-0.3,0.5-0.3,1,0,1.5c-0.6,0.5-1.2,1-1.8,1.5c-0.1-0.1-0.3-0.1-0.4-0.2c0-0.1,0.1-0.3,0.1-0.5c0-0.1,0.1-0.2,0.1-0.3
	c0,0,0-0.1,0.1-0.1c0.2,0,0.4-0.2,0.5-0.5c0-0.2-0.1-0.5-0.3-0.6c-0.2-0.1-0.6,0-0.7,0.2c-0.2,0.2-0.1,0.6,0.1,0.7
	c0.1,0,0.1,0.1,0,0.1c-0.1,0.3-0.2,0.5-0.2,0.8c-0.5,0-0.8,0.2-1.1,0.6c-0.1,0-0.1-0.1-0.2-0.1c-0.2-0.1-0.5-0.2-0.7-0.3
	c0,0-0.1,0-0.1-0.1c0-0.3-0.2-0.5-0.4-0.6c-0.2-0.1-0.5,0-0.7,0.2c-0.2,0.2-0.2,0.4-0.1,0.7c0.1,0.2,0.3,0.4,0.5,0.4
	c0.3,0,0.5-0.1,0.6-0.3c0,0,0.1-0.1,0.1,0c0.3,0.1,0.6,0.3,0.8,0.4c-0.1,0.2-0.1,0.4,0,0.6c-0.9,0.3-1.8,0.6-2.7,0.9
	c-0.3-0.7-1.1-0.9-1.7-0.6c-0.5,0.3-0.8,1-0.6,1.5C4,22,4.6,22.3,5.2,22.2c0.6-0.2,1-0.7,0.9-1.4c0.9-0.3,1.8-0.6,2.7-0.9
	c0.3,0.5,0.6,0.8,1.2,0.7c0.5,0,0.9-0.4,1.1-0.9c0.1,0,0.1,0,0.2,0c0.4,0.1,0.7,0.2,1.1,0.3c0,0,0.1,0,0.1,0.1
	c0.1,0.3,0.4,0.5,0.7,0.4c0,0,0,0,0,0c0.1,0.1,0.1,0.3,0.2,0.4c0.1,0.2,0.2,0.4,0.2,0.6c0,0,0,0.1,0,0.1c-0.4,0.3-0.4,0.9,0.1,1.1
	c0,0,0,0,0,0.1c0,0.2,0,0.4-0.1,0.6c0,0,0,0,0,0c-0.4,0-0.7,0.1-0.9,0.4c-0.3,0.3-0.4,0.6-0.3,1c0,0-0.1,0-0.1,0
	c-0.1,0-0.1,0-0.1-0.1c-0.1-0.3-0.5-0.4-0.8-0.3c-0.3,0.1-0.5,0.4-0.4,0.7c0,0.3,0.3,0.6,0.6,0.6c0.3,0,0.6-0.2,0.6-0.6
	c0-0.1,0.1-0.1,0.1-0.1c0.1,0,0.1,0,0.1,0.1C12.5,25.5,12.8,25.8,13.4,25.8C13.4,25.8,13.4,25.8,13.4,25.8z"/>
<linearGradient id="SVGID_2_" gradientUnits="userSpaceOnUse" x1="18.9326" y1="28.1843" x2="-4.2609" y2="16.3765" gradientTransform="matrix(1 0 0 -1 0 34)">
	<stop  offset="0" style="stop-color:#023B28"/>
	<stop  offset="1" style="stop-color:#05A16D"/>
</linearGradient>
<path class="st1" d="M9.1,11.5c0.4,0,0.6-0.3,0.6-0.7c0-0.4-0.3-0.6-0.6-0.6c-0.4,0-0.6,0.3-0.6,0.7C8.4,11.2,8.7,11.5,9.1,11.5z"/>
<linearGradient id="SVGID_3_" gradientUnits="userSpaceOnUse" x1="23.1971" y1="19.8077" x2="3.611690e-03" y2="7.9999" gradientTransform="matrix(1 0 0 -1 0 34)">
	<stop  offset="0" style="stop-color:#023B28"/>
	<stop  offset="1" style="stop-color:#05A16D"/>
</linearGradient>
<path class="st2" d="M9.1,20.7c-0.4,0-0.6,0.3-0.6,0.7c0,0.4,0.3,0.6,0.6,0.6c0.4,0,0.6-0.3,0.6-0.6C9.7,21,9.4,20.7,9.1,20.7z"/>
<linearGradient id="SVGID_4_" gradientUnits="userSpaceOnUse" x1="18.0805" y1="29.8579" x2="-5.1129" y2="18.0501" gradientTransform="matrix(1 0 0 -1 0 34)">
	<stop  offset="0" style="stop-color:#023B28"/>
	<stop  offset="1" style="stop-color:#05A16D"/>
</linearGradient>
<path class="st3" d="M6.8,9.6c0,0.3,0.2,0.6,0.5,0.6c0.3,0,0.5-0.2,0.5-0.6c0-0.3-0.2-0.6-0.5-0.6C7,9.1,6.8,9.3,6.8,9.6z"/>
<linearGradient id="SVGID_5_" gradientUnits="userSpaceOnUse" x1="23.3341" y1="19.5386" x2="0.1406" y2="7.7308" gradientTransform="matrix(1 0 0 -1 0 34)">
	<stop  offset="0" style="stop-color:#023B28"/>
	<stop  offset="1" style="stop-color:#05A16D"/>
</linearGradient>
<path class="st4" d="M6.8,22.6c0,0.3,0.2,0.6,0.5,0.6c0.3,0,0.5-0.2,0.5-0.6c0-0.3-0.2-0.6-0.5-0.6C7,22.1,6.8,22.3,6.8,22.6z"/>
<linearGradient id="SVGID_6_" gradientUnits="userSpaceOnUse" x1="22.8352" y1="20.5186" x2="-0.3583" y2="8.7108" gradientTransform="matrix(1 0 0 -1 0 34)">
	<stop  offset="0" style="stop-color:#023B28"/>
	<stop  offset="1" style="stop-color:#05A16D"/>
</linearGradient>
<path class="st5" d="M14.4,18.2c0.2,0,0.4-0.2,0.4-0.4c0-0.2-0.2-0.4-0.4-0.4c-0.2,0-0.4,0.2-0.4,0.4C14,18,14.2,18.2,14.4,18.2z"/>
<defs>
	<filter id="Adobe_OpacityMaskFilter" filterUnits="userSpaceOnUse" x="3.6" y="3.3" width="11" height="25.6">
		<feColorMatrix  type="matrix" values="1 0 0 0 0  0 1 0 0 0  0 0 1 0 0  0 0 0 1 0"/>
	</filter>
</defs>
<mask maskUnits="userSpaceOnUse" x="3.6" y="3.3" width="11" height="25.6" id="path-1-inside-1_1967_911_1_">
	<path class="st6" d="M13.4,25.8c0,0.2,0,0.4,0.1,0.6c0,0.4,0.1,0.7,0.1,1.1c0,0.1,0,0.1-0.1,0.1c-0.3,0.1-0.5,0.4-0.4,0.7
		c0.1,0.3,0.3,0.5,0.6,0.5c0.3,0,0.6-0.2,0.6-0.5c0.1-0.3-0.2-0.7-0.5-0.7c-0.1,0-0.1,0-0.1-0.1c0-0.4-0.1-0.8-0.1-1.2
		c0-0.2,0-0.4,0-0.5c0.6-0.2,0.9-0.6,0.9-1.2c0-0.6-0.3-1-0.9-1.2c0-0.2,0-0.4,0.1-0.6c0,0,0,0,0.1,0c0.5,0,0.8-0.6,0.5-1
		c-0.1-0.2-0.3-0.3-0.6-0.3c-0.1,0-0.1,0-0.1-0.1c-0.1-0.3-0.2-0.7-0.4-1c0,0,0-0.1,0-0.1c0.2-0.3,0.1-0.6-0.1-0.8
		c-0.3-0.2-0.6-0.1-0.8,0.2c0,0,0,0-0.1,0c-0.4-0.1-0.8-0.2-1.3-0.3c0,0,0,0,0,0c0-0.3-0.1-0.5-0.2-0.8c0,0,0,0,0,0
		c0.2-0.1,0.3-0.3,0.5-0.4c0.4-0.4,0.9-0.7,1.3-1.1c0,0,0.1,0,0.1,0c0.3,0.2,0.6,0.3,0.9,0.2c0.6-0.1,1-0.6,1-1.1
		c0.1-0.6-0.4-1.2-1-1.3c-0.4-0.1-0.7,0-1,0.3c-0.6-0.5-1.2-1-1.8-1.5c0.1-0.2,0.2-0.3,0.2-0.5c0-0.1,0-0.2,0-0.2c0,0,0-0.1,0-0.1
		c0.4-0.1,0.8-0.2,1.3-0.3c0,0,0.1,0,0.1,0c0.1,0.2,0.4,0.3,0.6,0.3c0.4-0.1,0.5-0.6,0.3-0.9c0,0,0-0.1,0-0.1c0.1-0.3,0.2-0.7,0.4-1
		c0-0.1,0-0.1,0.1-0.1c0.3,0,0.6-0.3,0.7-0.6c0-0.4-0.2-0.7-0.6-0.7c-0.1,0-0.1,0-0.1-0.1c0-0.2,0-0.3,0-0.5c0,0,0-0.1,0.1-0.1
		c0.5-0.2,0.7-0.5,0.8-1c0.1-0.6-0.3-1.2-0.9-1.3c0,0,0,0,0,0c0-0.2,0-0.5,0.1-0.7c0-0.2,0-0.5,0.1-0.7c0-0.1,0-0.2,0-0.3
		c0,0,0,0,0.1,0c0.3-0.1,0.5-0.4,0.5-0.7c0-0.3-0.3-0.6-0.7-0.6c-0.3,0-0.6,0.3-0.6,0.6c0,0.3,0.2,0.5,0.4,0.6c0,0,0.1,0,0,0.1
		c-0.1,0.5-0.1,1.1-0.2,1.6c0,0,0,0,0,0c-0.1,0-0.3,0-0.4,0.1c-0.4,0.1-0.6,0.4-0.8,0.8c0,0,0,0.1-0.1,0.1c-0.1,0-0.1,0-0.1-0.1
		c-0.1-0.3-0.3-0.6-0.7-0.5c-0.3,0-0.6,0.3-0.6,0.6c0,0.3,0.2,0.6,0.5,0.7C11.6,8,11.9,7.8,12,7.6c0.1-0.1,0.1-0.1,0.2-0.1
		c0,0.4,0.1,0.7,0.3,1c0.3,0.3,0.6,0.4,0.9,0.4c0,0.2,0,0.3,0.1,0.5c0,0.1,0,0.1-0.1,0.2c-0.4,0.2-0.4,0.8,0,1.1c0,0,0.1,0.1,0,0.1
		c-0.1,0.3-0.2,0.6-0.4,1c0,0,0,0,0,0c-0.1,0-0.2,0-0.3,0c-0.2,0-0.4,0.2-0.5,0.4c0,0,0,0.1-0.1,0.1c-0.4,0.1-0.8,0.2-1.3,0.3
		c0,0,0,0,0,0c-0.2-0.5-0.5-0.8-1.1-0.9c-0.5,0-0.9,0.2-1.2,0.7c-0.9-0.3-1.8-0.6-2.7-0.9c0.1-0.4,0-0.7-0.3-1C5.6,10.2,5.3,10,5,10
		c-0.6-0.1-1.2,0.3-1.3,0.9c-0.2,0.6,0.1,1.2,0.7,1.5c0.6,0.2,1.3,0,1.6-0.7c0.9,0.3,1.8,0.6,2.7,0.9c0,0.2,0,0.4,0,0.7
		c-0.3,0.1-0.6,0.3-0.9,0.4c-0.1-0.2-0.3-0.3-0.5-0.3c-0.3-0.1-0.7,0.2-0.7,0.6c0,0.4,0.2,0.7,0.6,0.7c0.4,0,0.7-0.2,0.7-0.6
		c0,0,0-0.1,0-0.1c0.3-0.1,0.6-0.3,0.9-0.4c0,0,0,0,0,0c0.1,0.1,0.2,0.2,0.3,0.3c0.2,0.2,0.5,0.2,0.7,0.2c0.1,0,0.1,0,0.1,0.1
		c0.1,0.2,0.1,0.5,0.2,0.7c0,0.1,0,0.1,0,0.1c-0.2,0.2-0.3,0.4-0.2,0.7c0.1,0.3,0.4,0.4,0.6,0.3c0.2-0.1,0.4-0.3,0.4-0.5
		c0-0.3-0.2-0.5-0.4-0.5c-0.1,0-0.1,0-0.1-0.1c-0.1-0.3-0.2-0.5-0.2-0.7c0.1-0.1,0.3-0.2,0.4-0.2c0.6,0.5,1.2,1,1.8,1.5
		c-0.3,0.5-0.3,1,0,1.5c-0.6,0.5-1.2,1-1.8,1.5c-0.1-0.1-0.3-0.1-0.4-0.2c0-0.1,0.1-0.3,0.1-0.5c0-0.1,0.1-0.2,0.1-0.3
		c0,0,0-0.1,0.1-0.1c0.2,0,0.4-0.2,0.5-0.5c0-0.2-0.1-0.5-0.3-0.6c-0.2-0.1-0.6,0-0.7,0.2c-0.2,0.2-0.1,0.6,0.1,0.7
		c0.1,0,0.1,0.1,0,0.1c-0.1,0.3-0.2,0.5-0.2,0.8c-0.5,0-0.8,0.2-1.1,0.6c-0.1,0-0.1-0.1-0.2-0.1c-0.2-0.1-0.5-0.2-0.7-0.3
		c0,0-0.1,0-0.1-0.1c0-0.3-0.2-0.5-0.4-0.6c-0.2-0.1-0.5,0-0.7,0.2c-0.2,0.2-0.2,0.4-0.1,0.7c0.1,0.2,0.3,0.4,0.5,0.4
		c0.3,0,0.5-0.1,0.6-0.3c0,0,0.1-0.1,0.1,0c0.3,0.1,0.6,0.3,0.8,0.4c-0.1,0.2-0.1,0.4,0,0.6c-0.9,0.3-1.8,0.6-2.7,0.9
		c-0.3-0.7-1.1-0.9-1.7-0.6c-0.5,0.3-0.8,1-0.6,1.5C4,22,4.6,22.3,5.2,22.2c0.6-0.2,1-0.7,0.9-1.4c0.9-0.3,1.8-0.6,2.7-0.9
		c0.3,0.5,0.6,0.8,1.2,0.7c0.5,0,0.9-0.4,1.1-0.9c0.1,0,0.1,0,0.2,0c0.4,0.1,0.7,0.2,1.1,0.3c0,0,0.1,0,0.1,0.1
		c0.1,0.3,0.4,0.5,0.7,0.4c0,0,0,0,0,0c0.1,0.1,0.1,0.3,0.2,0.4c0.1,0.2,0.2,0.4,0.2,0.6c0,0,0,0.1,0,0.1c-0.4,0.3-0.4,0.9,0.1,1.1
		c0,0,0,0,0,0.1c0,0.2,0,0.4-0.1,0.6c0,0,0,0,0,0c-0.4,0-0.7,0.1-0.9,0.4c-0.3,0.3-0.4,0.6-0.3,1c0,0-0.1,0-0.1,0
		c-0.1,0-0.1,0-0.1-0.1c-0.1-0.3-0.5-0.4-0.8-0.3c-0.3,0.1-0.5,0.4-0.4,0.7c0,0.3,0.3,0.6,0.6,0.6c0.3,0,0.6-0.2,0.6-0.6
		c0-0.1,0.1-0.1,0.1-0.1c0.1,0,0.1,0,0.1,0.1C12.5,25.5,12.8,25.8,13.4,25.8C13.4,25.8,13.4,25.8,13.4,25.8z"/>
	<path class="st7" d="M9.1,11.5c0.4,0,0.6-0.3,0.6-0.7c0-0.4-0.3-0.6-0.6-0.6c-0.4,0-0.6,0.3-0.6,0.7C8.4,11.2,8.7,11.5,9.1,11.5z"
		/>
	<path class="st7" d="M9.1,20.7c-0.4,0-0.6,0.3-0.6,0.7c0,0.4,0.3,0.6,0.6,0.6c0.4,0,0.6-0.3,0.6-0.6C9.7,21,9.4,20.7,9.1,20.7z"/>
	<path class="st7" d="M6.8,9.6c0,0.3,0.2,0.6,0.5,0.6c0.3,0,0.5-0.2,0.5-0.6c0-0.3-0.2-0.6-0.5-0.6C7,9.1,6.8,9.3,6.8,9.6z"/>
	<path class="st7" d="M6.8,22.6c0,0.3,0.2,0.6,0.5,0.6c0.3,0,0.5-0.2,0.5-0.6c0-0.3-0.2-0.6-0.5-0.6C7,22.1,6.8,22.3,6.8,22.6z"/>
	<path class="st7" d="M14.4,18.2c0.2,0,0.4-0.2,0.4-0.4c0-0.2-0.2-0.4-0.4-0.4c-0.2,0-0.4,0.2-0.4,0.4C14,18,14.2,18.2,14.4,18.2z"
		/>
</mask>
<path class="st8" d="M13.4,25.8c0,0.2,0,0.4,0.1,0.6c0,0.4,0.1,0.7,0.1,1.1c0,0.1,0,0.1-0.1,0.1c-0.3,0.1-0.5,0.4-0.4,0.7
	c0.1,0.3,0.3,0.5,0.6,0.5c0.3,0,0.6-0.2,0.6-0.5c0.1-0.3-0.2-0.7-0.5-0.7c-0.1,0-0.1,0-0.1-0.1c0-0.4-0.1-0.8-0.1-1.2
	c0-0.2,0-0.4,0-0.5c0.6-0.2,0.9-0.6,0.9-1.2c0-0.6-0.3-1-0.9-1.2c0-0.2,0-0.4,0.1-0.6c0,0,0,0,0.1,0c0.5,0,0.8-0.6,0.5-1
	c-0.1-0.2-0.3-0.3-0.6-0.3c-0.1,0-0.1,0-0.1-0.1c-0.1-0.3-0.2-0.7-0.4-1c0,0,0-0.1,0-0.1c0.2-0.3,0.1-0.6-0.1-0.8
	c-0.3-0.2-0.6-0.1-0.8,0.2c0,0,0,0-0.1,0c-0.4-0.1-0.8-0.2-1.3-0.3c0,0,0,0,0,0c0-0.3-0.1-0.5-0.2-0.8c0,0,0,0,0,0
	c0.2-0.1,0.3-0.3,0.5-0.4c0.4-0.4,0.9-0.7,1.3-1.1c0,0,0.1,0,0.1,0c0.3,0.2,0.6,0.3,0.9,0.2c0.6-0.1,1-0.6,1-1.1
	c0.1-0.6-0.4-1.2-1-1.3c-0.4-0.1-0.7,0-1,0.3c-0.6-0.5-1.2-1-1.8-1.5c0.1-0.2,0.2-0.3,0.2-0.5c0-0.1,0-0.2,0-0.2c0,0,0-0.1,0-0.1
	c0.4-0.1,0.8-0.2,1.3-0.3c0,0,0.1,0,0.1,0c0.1,0.2,0.4,0.3,0.6,0.3c0.4-0.1,0.5-0.6,0.3-0.9c0,0,0-0.1,0-0.1c0.1-0.3,0.2-0.7,0.4-1
	c0-0.1,0-0.1,0.1-0.1c0.3,0,0.6-0.3,0.7-0.6c0-0.4-0.2-0.7-0.6-0.7c-0.1,0-0.1,0-0.1-0.1c0-0.2,0-0.3,0-0.5c0,0,0-0.1,0.1-0.1
	c0.5-0.2,0.7-0.5,0.8-1c0.1-0.6-0.3-1.2-0.9-1.3c0,0,0,0,0,0c0-0.2,0-0.5,0.1-0.7c0-0.2,0-0.5,0.1-0.7c0-0.1,0-0.2,0-0.3
	c0,0,0,0,0.1,0c0.3-0.1,0.5-0.4,0.5-0.7c0-0.3-0.3-0.6-0.7-0.6c-0.3,0-0.6,0.3-0.6,0.6c0,0.3,0.2,0.5,0.4,0.6c0,0,0.1,0,0,0.1
	c-0.1,0.5-0.1,1.1-0.2,1.6c0,0,0,0,0,0c-0.1,0-0.3,0-0.4,0.1c-0.4,0.1-0.6,0.4-0.8,0.8c0,0,0,0.1-0.1,0.1c-0.1,0-0.1,0-0.1-0.1
	c-0.1-0.3-0.3-0.6-0.7-0.5c-0.3,0-0.6,0.3-0.6,0.6c0,0.3,0.2,0.6,0.5,0.7C11.6,8,11.9,7.8,12,7.6c0.1-0.1,0.1-0.1,0.2-0.1
	c0,0.4,0.1,0.7,0.3,1c0.3,0.3,0.6,0.4,0.9,0.4c0,0.2,0,0.3,0.1,0.5c0,0.1,0,0.1-0.1,0.2c-0.4,0.2-0.4,0.8,0,1.1c0,0,0.1,0.1,0,0.1
	c-0.1,0.3-0.2,0.6-0.4,1c0,0,0,0,0,0c-0.1,0-0.2,0-0.3,0c-0.2,0-0.4,0.2-0.5,0.4c0,0,0,0.1-0.1,0.1c-0.4,0.1-0.8,0.2-1.3,0.3
	c0,0,0,0,0,0c-0.2-0.5-0.5-0.8-1.1-0.9c-0.5,0-0.9,0.2-1.2,0.7c-0.9-0.3-1.8-0.6-2.7-0.9c0.1-0.4,0-0.7-0.3-1C5.6,10.2,5.3,10,5,10
	c-0.6-0.1-1.2,0.3-1.3,0.9c-0.2,0.6,0.1,1.2,0.7,1.5c0.6,0.2,1.3,0,1.6-0.7c0.9,0.3,1.8,0.6,2.7,0.9c0,0.2,0,0.4,0,0.7
	c-0.3,0.1-0.6,0.3-0.9,0.4c-0.1-0.2-0.3-0.3-0.5-0.3c-0.3-0.1-0.7,0.2-0.7,0.6c0,0.4,0.2,0.7,0.6,0.7c0.4,0,0.7-0.2,0.7-0.6
	c0,0,0-0.1,0-0.1c0.3-0.1,0.6-0.3,0.9-0.4c0,0,0,0,0,0c0.1,0.1,0.2,0.2,0.3,0.3c0.2,0.2,0.5,0.2,0.7,0.2c0.1,0,0.1,0,0.1,0.1
	c0.1,0.2,0.1,0.5,0.2,0.7c0,0.1,0,0.1,0,0.1c-0.2,0.2-0.3,0.4-0.2,0.7c0.1,0.3,0.4,0.4,0.6,0.3c0.2-0.1,0.4-0.3,0.4-0.5
	c0-0.3-0.2-0.5-0.4-0.5c-0.1,0-0.1,0-0.1-0.1c-0.1-0.3-0.2-0.5-0.2-0.7c0.1-0.1,0.3-0.2,0.4-0.2c0.6,0.5,1.2,1,1.8,1.5
	c-0.3,0.5-0.3,1,0,1.5c-0.6,0.5-1.2,1-1.8,1.5c-0.1-0.1-0.3-0.1-0.4-0.2c0-0.1,0.1-0.3,0.1-0.5c0-0.1,0.1-0.2,0.1-0.3
	c0,0,0-0.1,0.1-0.1c0.2,0,0.4-0.2,0.5-0.5c0-0.2-0.1-0.5-0.3-0.6c-0.2-0.1-0.6,0-0.7,0.2c-0.2,0.2-0.1,0.6,0.1,0.7
	c0.1,0,0.1,0.1,0,0.1c-0.1,0.3-0.2,0.5-0.2,0.8c-0.5,0-0.8,0.2-1.1,0.6c-0.1,0-0.1-0.1-0.2-0.1c-0.2-0.1-0.5-0.2-0.7-0.3
	c0,0-0.1,0-0.1-0.1c0-0.3-0.2-0.5-0.4-0.6c-0.2-0.1-0.5,0-0.7,0.2c-0.2,0.2-0.2,0.4-0.1,0.7c0.1,0.2,0.3,0.4,0.5,0.4
	c0.3,0,0.5-0.1,0.6-0.3c0,0,0.1-0.1,0.1,0c0.3,0.1,0.6,0.3,0.8,0.4c-0.1,0.2-0.1,0.4,0,0.6c-0.9,0.3-1.8,0.6-2.7,0.9
	c-0.3-0.7-1.1-0.9-1.7-0.6c-0.5,0.3-0.8,1-0.6,1.5C4,22,4.6,22.3,5.2,22.2c0.6-0.2,1-0.7,0.9-1.4c0.9-0.3,1.8-0.6,2.7-0.9
	c0.3,0.5,0.6,0.8,1.2,0.7c0.5,0,0.9-0.4,1.1-0.9c0.1,0,0.1,0,0.2,0c0.4,0.1,0.7,0.2,1.1,0.3c0,0,0.1,0,0.1,0.1
	c0.1,0.3,0.4,0.5,0.7,0.4c0,0,0,0,0,0c0.1,0.1,0.1,0.3,0.2,0.4c0.1,0.2,0.2,0.4,0.2,0.6c0,0,0,0.1,0,0.1c-0.4,0.3-0.4,0.9,0.1,1.1
	c0,0,0,0,0,0.1c0,0.2,0,0.4-0.1,0.6c0,0,0,0,0,0c-0.4,0-0.7,0.1-0.9,0.4c-0.3,0.3-0.4,0.6-0.3,1c0,0-0.1,0-0.1,0
	c-0.1,0-0.1,0-0.1-0.1c-0.1-0.3-0.5-0.4-0.8-0.3c-0.3,0.1-0.5,0.4-0.4,0.7c0,0.3,0.3,0.6,0.6,0.6c0.3,0,0.6-0.2,0.6-0.6
	c0-0.1,0.1-0.1,0.1-0.1c0.1,0,0.1,0,0.1,0.1C12.5,25.5,12.8,25.8,13.4,25.8C13.4,25.8,13.4,25.8,13.4,25.8z"/>
<defs>
	<filter id="Adobe_OpacityMaskFilter_1_" filterUnits="userSpaceOnUse" x="8.4" y="10.1" width="1.4" height="1.4">
		<feColorMatrix  type="matrix" values="1 0 0 0 0  0 1 0 0 0  0 0 1 0 0  0 0 0 1 0"/>
	</filter>
</defs>
<mask maskUnits="userSpaceOnUse" x="8.4" y="10.1" width="1.4" height="1.4" id="path-1-inside-1_1967_911_2_">
	<path class="st9" d="M13.4,25.8c0,0.2,0,0.4,0.1,0.6c0,0.4,0.1,0.7,0.1,1.1c0,0.1,0,0.1-0.1,0.1c-0.3,0.1-0.5,0.4-0.4,0.7
		c0.1,0.3,0.3,0.5,0.6,0.5c0.3,0,0.6-0.2,0.6-0.5c0.1-0.3-0.2-0.7-0.5-0.7c-0.1,0-0.1,0-0.1-0.1c0-0.4-0.1-0.8-0.1-1.2
		c0-0.2,0-0.4,0-0.5c0.6-0.2,0.9-0.6,0.9-1.2c0-0.6-0.3-1-0.9-1.2c0-0.2,0-0.4,0.1-0.6c0,0,0,0,0.1,0c0.5,0,0.8-0.6,0.5-1
		c-0.1-0.2-0.3-0.3-0.6-0.3c-0.1,0-0.1,0-0.1-0.1c-0.1-0.3-0.2-0.7-0.4-1c0,0,0-0.1,0-0.1c0.2-0.3,0.1-0.6-0.1-0.8
		c-0.3-0.2-0.6-0.1-0.8,0.2c0,0,0,0-0.1,0c-0.4-0.1-0.8-0.2-1.3-0.3c0,0,0,0,0,0c0-0.3-0.1-0.5-0.2-0.8c0,0,0,0,0,0
		c0.2-0.1,0.3-0.3,0.5-0.4c0.4-0.4,0.9-0.7,1.3-1.1c0,0,0.1,0,0.1,0c0.3,0.2,0.6,0.3,0.9,0.2c0.6-0.1,1-0.6,1-1.1
		c0.1-0.6-0.4-1.2-1-1.3c-0.4-0.1-0.7,0-1,0.3c-0.6-0.5-1.2-1-1.8-1.5c0.1-0.2,0.2-0.3,0.2-0.5c0-0.1,0-0.2,0-0.2c0,0,0-0.1,0-0.1
		c0.4-0.1,0.8-0.2,1.3-0.3c0,0,0.1,0,0.1,0c0.1,0.2,0.4,0.3,0.6,0.3c0.4-0.1,0.5-0.6,0.3-0.9c0,0,0-0.1,0-0.1c0.1-0.3,0.2-0.7,0.4-1
		c0-0.1,0-0.1,0.1-0.1c0.3,0,0.6-0.3,0.7-0.6c0-0.4-0.2-0.7-0.6-0.7c-0.1,0-0.1,0-0.1-0.1c0-0.2,0-0.3,0-0.5c0,0,0-0.1,0.1-0.1
		c0.5-0.2,0.7-0.5,0.8-1c0.1-0.6-0.3-1.2-0.9-1.3c0,0,0,0,0,0c0-0.2,0-0.5,0.1-0.7c0-0.2,0-0.5,0.1-0.7c0-0.1,0-0.2,0-0.3
		c0,0,0,0,0.1,0c0.3-0.1,0.5-0.4,0.5-0.7c0-0.3-0.3-0.6-0.7-0.6c-0.3,0-0.6,0.3-0.6,0.6c0,0.3,0.2,0.5,0.4,0.6c0,0,0.1,0,0,0.1
		c-0.1,0.5-0.1,1.1-0.2,1.6c0,0,0,0,0,0c-0.1,0-0.3,0-0.4,0.1c-0.4,0.1-0.6,0.4-0.8,0.8c0,0,0,0.1-0.1,0.1c-0.1,0-0.1,0-0.1-0.1
		c-0.1-0.3-0.3-0.6-0.7-0.5c-0.3,0-0.6,0.3-0.6,0.6c0,0.3,0.2,0.6,0.5,0.7C11.6,8,11.9,7.8,12,7.6c0.1-0.1,0.1-0.1,0.2-0.1
		c0,0.4,0.1,0.7,0.3,1c0.3,0.3,0.6,0.4,0.9,0.4c0,0.2,0,0.3,0.1,0.5c0,0.1,0,0.1-0.1,0.2c-0.4,0.2-0.4,0.8,0,1.1c0,0,0.1,0.1,0,0.1
		c-0.1,0.3-0.2,0.6-0.4,1c0,0,0,0,0,0c-0.1,0-0.2,0-0.3,0c-0.2,0-0.4,0.2-0.5,0.4c0,0,0,0.1-0.1,0.1c-0.4,0.1-0.8,0.2-1.3,0.3
		c0,0,0,0,0,0c-0.2-0.5-0.5-0.8-1.1-0.9c-0.5,0-0.9,0.2-1.2,0.7c-0.9-0.3-1.8-0.6-2.7-0.9c0.1-0.4,0-0.7-0.3-1C5.6,10.2,5.3,10,5,10
		c-0.6-0.1-1.2,0.3-1.3,0.9c-0.2,0.6,0.1,1.2,0.7,1.5c0.6,0.2,1.3,0,1.6-0.7c0.9,0.3,1.8,0.6,2.7,0.9c0,0.2,0,0.4,0,0.7
		c-0.3,0.1-0.6,0.3-0.9,0.4c-0.1-0.2-0.3-0.3-0.5-0.3c-0.3-0.1-0.7,0.2-0.7,0.6c0,0.4,0.2,0.7,0.6,0.7c0.4,0,0.7-0.2,0.7-0.6
		c0,0,0-0.1,0-0.1c0.3-0.1,0.6-0.3,0.9-0.4c0,0,0,0,0,0c0.1,0.1,0.2,0.2,0.3,0.3c0.2,0.2,0.5,0.2,0.7,0.2c0.1,0,0.1,0,0.1,0.1
		c0.1,0.2,0.1,0.5,0.2,0.7c0,0.1,0,0.1,0,0.1c-0.2,0.2-0.3,0.4-0.2,0.7c0.1,0.3,0.4,0.4,0.6,0.3c0.2-0.1,0.4-0.3,0.4-0.5
		c0-0.3-0.2-0.5-0.4-0.5c-0.1,0-0.1,0-0.1-0.1c-0.1-0.3-0.2-0.5-0.2-0.7c0.1-0.1,0.3-0.2,0.4-0.2c0.6,0.5,1.2,1,1.8,1.5
		c-0.3,0.5-0.3,1,0,1.5c-0.6,0.5-1.2,1-1.8,1.5c-0.1-0.1-0.3-0.1-0.4-0.2c0-0.1,0.1-0.3,0.1-0.5c0-0.1,0.1-0.2,0.1-0.3
		c0,0,0-0.1,0.1-0.1c0.2,0,0.4-0.2,0.5-0.5c0-0.2-0.1-0.5-0.3-0.6c-0.2-0.1-0.6,0-0.7,0.2c-0.2,0.2-0.1,0.6,0.1,0.7
		c0.1,0,0.1,0.1,0,0.1c-0.1,0.3-0.2,0.5-0.2,0.8c-0.5,0-0.8,0.2-1.1,0.6c-0.1,0-0.1-0.1-0.2-0.1c-0.2-0.1-0.5-0.2-0.7-0.3
		c0,0-0.1,0-0.1-0.1c0-0.3-0.2-0.5-0.4-0.6c-0.2-0.1-0.5,0-0.7,0.2c-0.2,0.2-0.2,0.4-0.1,0.7c0.1,0.2,0.3,0.4,0.5,0.4
		c0.3,0,0.5-0.1,0.6-0.3c0,0,0.1-0.1,0.1,0c0.3,0.1,0.6,0.3,0.8,0.4c-0.1,0.2-0.1,0.4,0,0.6c-0.9,0.3-1.8,0.6-2.7,0.9
		c-0.3-0.7-1.1-0.9-1.7-0.6c-0.5,0.3-0.8,1-0.6,1.5C4,22,4.6,22.3,5.2,22.2c0.6-0.2,1-0.7,0.9-1.4c0.9-0.3,1.8-0.6,2.7-0.9
		c0.3,0.5,0.6,0.8,1.2,0.7c0.5,0,0.9-0.4,1.1-0.9c0.1,0,0.1,0,0.2,0c0.4,0.1,0.7,0.2,1.1,0.3c0,0,0.1,0,0.1,0.1
		c0.1,0.3,0.4,0.5,0.7,0.4c0,0,0,0,0,0c0.1,0.1,0.1,0.3,0.2,0.4c0.1,0.2,0.2,0.4,0.2,0.6c0,0,0,0.1,0,0.1c-0.4,0.3-0.4,0.9,0.1,1.1
		c0,0,0,0,0,0.1c0,0.2,0,0.4-0.1,0.6c0,0,0,0,0,0c-0.4,0-0.7,0.1-0.9,0.4c-0.3,0.3-0.4,0.6-0.3,1c0,0-0.1,0-0.1,0
		c-0.1,0-0.1,0-0.1-0.1c-0.1-0.3-0.5-0.4-0.8-0.3c-0.3,0.1-0.5,0.4-0.4,0.7c0,0.3,0.3,0.6,0.6,0.6c0.3,0,0.6-0.2,0.6-0.6
		c0-0.1,0.1-0.1,0.1-0.1c0.1,0,0.1,0,0.1,0.1C12.5,25.5,12.8,25.8,13.4,25.8C13.4,25.8,13.4,25.8,13.4,25.8z"/>
	<path class="st7" d="M9.1,11.5c0.4,0,0.6-0.3,0.6-0.7c0-0.4-0.3-0.6-0.6-0.6c-0.4,0-0.6,0.3-0.6,0.7C8.4,11.2,8.7,11.5,9.1,11.5z"
		/>
	<path class="st7" d="M9.1,20.7c-0.4,0-0.6,0.3-0.6,0.7c0,0.4,0.3,0.6,0.6,0.6c0.4,0,0.6-0.3,0.6-0.6C9.7,21,9.4,20.7,9.1,20.7z"/>
	<path class="st7" d="M6.8,9.6c0,0.3,0.2,0.6,0.5,0.6c0.3,0,0.5-0.2,0.5-0.6c0-0.3-0.2-0.6-0.5-0.6C7,9.1,6.8,9.3,6.8,9.6z"/>
	<path class="st7" d="M6.8,22.6c0,0.3,0.2,0.6,0.5,0.6c0.3,0,0.5-0.2,0.5-0.6c0-0.3-0.2-0.6-0.5-0.6C7,22.1,6.8,22.3,6.8,22.6z"/>
	<path class="st7" d="M14.4,18.2c0.2,0,0.4-0.2,0.4-0.4c0-0.2-0.2-0.4-0.4-0.4c-0.2,0-0.4,0.2-0.4,0.4C14,18,14.2,18.2,14.4,18.2z"
		/>
</mask>
<path class="st10" d="M9.1,11.5c0.4,0,0.6-0.3,0.6-0.7c0-0.4-0.3-0.6-0.6-0.6c-0.4,0-0.6,0.3-0.6,0.7C8.4,11.2,8.7,11.5,9.1,11.5z"
	/>
<defs>
	<filter id="Adobe_OpacityMaskFilter_2_" filterUnits="userSpaceOnUse" x="8.4" y="20.7" width="1.4" height="1.4">
		<feColorMatrix  type="matrix" values="1 0 0 0 0  0 1 0 0 0  0 0 1 0 0  0 0 0 1 0"/>
	</filter>
</defs>
<mask maskUnits="userSpaceOnUse" x="8.4" y="20.7" width="1.4" height="1.4" id="path-1-inside-1_1967_911_3_">
	<path class="st11" d="M13.4,25.8c0,0.2,0,0.4,0.1,0.6c0,0.4,0.1,0.7,0.1,1.1c0,0.1,0,0.1-0.1,0.1c-0.3,0.1-0.5,0.4-0.4,0.7
		c0.1,0.3,0.3,0.5,0.6,0.5c0.3,0,0.6-0.2,0.6-0.5c0.1-0.3-0.2-0.7-0.5-0.7c-0.1,0-0.1,0-0.1-0.1c0-0.4-0.1-0.8-0.1-1.2
		c0-0.2,0-0.4,0-0.5c0.6-0.2,0.9-0.6,0.9-1.2c0-0.6-0.3-1-0.9-1.2c0-0.2,0-0.4,0.1-0.6c0,0,0,0,0.1,0c0.5,0,0.8-0.6,0.5-1
		c-0.1-0.2-0.3-0.3-0.6-0.3c-0.1,0-0.1,0-0.1-0.1c-0.1-0.3-0.2-0.7-0.4-1c0,0,0-0.1,0-0.1c0.2-0.3,0.1-0.6-0.1-0.8
		c-0.3-0.2-0.6-0.1-0.8,0.2c0,0,0,0-0.1,0c-0.4-0.1-0.8-0.2-1.3-0.3c0,0,0,0,0,0c0-0.3-0.1-0.5-0.2-0.8c0,0,0,0,0,0
		c0.2-0.1,0.3-0.3,0.5-0.4c0.4-0.4,0.9-0.7,1.3-1.1c0,0,0.1,0,0.1,0c0.3,0.2,0.6,0.3,0.9,0.2c0.6-0.1,1-0.6,1-1.1
		c0.1-0.6-0.4-1.2-1-1.3c-0.4-0.1-0.7,0-1,0.3c-0.6-0.5-1.2-1-1.8-1.5c0.1-0.2,0.2-0.3,0.2-0.5c0-0.1,0-0.2,0-0.2c0,0,0-0.1,0-0.1
		c0.4-0.1,0.8-0.2,1.3-0.3c0,0,0.1,0,0.1,0c0.1,0.2,0.4,0.3,0.6,0.3c0.4-0.1,0.5-0.6,0.3-0.9c0,0,0-0.1,0-0.1c0.1-0.3,0.2-0.7,0.4-1
		c0-0.1,0-0.1,0.1-0.1c0.3,0,0.6-0.3,0.7-0.6c0-0.4-0.2-0.7-0.6-0.7c-0.1,0-0.1,0-0.1-0.1c0-0.2,0-0.3,0-0.5c0,0,0-0.1,0.1-0.1
		c0.5-0.2,0.7-0.5,0.8-1c0.1-0.6-0.3-1.2-0.9-1.3c0,0,0,0,0,0c0-0.2,0-0.5,0.1-0.7c0-0.2,0-0.5,0.1-0.7c0-0.1,0-0.2,0-0.3
		c0,0,0,0,0.1,0c0.3-0.1,0.5-0.4,0.5-0.7c0-0.3-0.3-0.6-0.7-0.6c-0.3,0-0.6,0.3-0.6,0.6c0,0.3,0.2,0.5,0.4,0.6c0,0,0.1,0,0,0.1
		c-0.1,0.5-0.1,1.1-0.2,1.6c0,0,0,0,0,0c-0.1,0-0.3,0-0.4,0.1c-0.4,0.1-0.6,0.4-0.8,0.8c0,0,0,0.1-0.1,0.1c-0.1,0-0.1,0-0.1-0.1
		c-0.1-0.3-0.3-0.6-0.7-0.5c-0.3,0-0.6,0.3-0.6,0.6c0,0.3,0.2,0.6,0.5,0.7C11.6,8,11.9,7.8,12,7.6c0.1-0.1,0.1-0.1,0.2-0.1
		c0,0.4,0.1,0.7,0.3,1c0.3,0.3,0.6,0.4,0.9,0.4c0,0.2,0,0.3,0.1,0.5c0,0.1,0,0.1-0.1,0.2c-0.4,0.2-0.4,0.8,0,1.1c0,0,0.1,0.1,0,0.1
		c-0.1,0.3-0.2,0.6-0.4,1c0,0,0,0,0,0c-0.1,0-0.2,0-0.3,0c-0.2,0-0.4,0.2-0.5,0.4c0,0,0,0.1-0.1,0.1c-0.4,0.1-0.8,0.2-1.3,0.3
		c0,0,0,0,0,0c-0.2-0.5-0.5-0.8-1.1-0.9c-0.5,0-0.9,0.2-1.2,0.7c-0.9-0.3-1.8-0.6-2.7-0.9c0.1-0.4,0-0.7-0.3-1C5.6,10.2,5.3,10,5,10
		c-0.6-0.1-1.2,0.3-1.3,0.9c-0.2,0.6,0.1,1.2,0.7,1.5c0.6,0.2,1.3,0,1.6-0.7c0.9,0.3,1.8,0.6,2.7,0.9c0,0.2,0,0.4,0,0.7
		c-0.3,0.1-0.6,0.3-0.9,0.4c-0.1-0.2-0.3-0.3-0.5-0.3c-0.3-0.1-0.7,0.2-0.7,0.6c0,0.4,0.2,0.7,0.6,0.7c0.4,0,0.7-0.2,0.7-0.6
		c0,0,0-0.1,0-0.1c0.3-0.1,0.6-0.3,0.9-0.4c0,0,0,0,0,0c0.1,0.1,0.2,0.2,0.3,0.3c0.2,0.2,0.5,0.2,0.7,0.2c0.1,0,0.1,0,0.1,0.1
		c0.1,0.2,0.1,0.5,0.2,0.7c0,0.1,0,0.1,0,0.1c-0.2,0.2-0.3,0.4-0.2,0.7c0.1,0.3,0.4,0.4,0.6,0.3c0.2-0.1,0.4-0.3,0.4-0.5
		c0-0.3-0.2-0.5-0.4-0.5c-0.1,0-0.1,0-0.1-0.1c-0.1-0.3-0.2-0.5-0.2-0.7c0.1-0.1,0.3-0.2,0.4-0.2c0.6,0.5,1.2,1,1.8,1.5
		c-0.3,0.5-0.3,1,0,1.5c-0.6,0.5-1.2,1-1.8,1.5c-0.1-0.1-0.3-0.1-0.4-0.2c0-0.1,0.1-0.3,0.1-0.5c0-0.1,0.1-0.2,0.1-0.3
		c0,0,0-0.1,0.1-0.1c0.2,0,0.4-0.2,0.5-0.5c0-0.2-0.1-0.5-0.3-0.6c-0.2-0.1-0.6,0-0.7,0.2c-0.2,0.2-0.1,0.6,0.1,0.7
		c0.1,0,0.1,0.1,0,0.1c-0.1,0.3-0.2,0.5-0.2,0.8c-0.5,0-0.8,0.2-1.1,0.6c-0.1,0-0.1-0.1-0.2-0.1c-0.2-0.1-0.5-0.2-0.7-0.3
		c0,0-0.1,0-0.1-0.1c0-0.3-0.2-0.5-0.4-0.6c-0.2-0.1-0.5,0-0.7,0.2c-0.2,0.2-0.2,0.4-0.1,0.7c0.1,0.2,0.3,0.4,0.5,0.4
		c0.3,0,0.5-0.1,0.6-0.3c0,0,0.1-0.1,0.1,0c0.3,0.1,0.6,0.3,0.8,0.4c-0.1,0.2-0.1,0.4,0,0.6c-0.9,0.3-1.8,0.6-2.7,0.9
		c-0.3-0.7-1.1-0.9-1.7-0.6c-0.5,0.3-0.8,1-0.6,1.5C4,22,4.6,22.3,5.2,22.2c0.6-0.2,1-0.7,0.9-1.4c0.9-0.3,1.8-0.6,2.7-0.9
		c0.3,0.5,0.6,0.8,1.2,0.7c0.5,0,0.9-0.4,1.1-0.9c0.1,0,0.1,0,0.2,0c0.4,0.1,0.7,0.2,1.1,0.3c0,0,0.1,0,0.1,0.1
		c0.1,0.3,0.4,0.5,0.7,0.4c0,0,0,0,0,0c0.1,0.1,0.1,0.3,0.2,0.4c0.1,0.2,0.2,0.4,0.2,0.6c0,0,0,0.1,0,0.1c-0.4,0.3-0.4,0.9,0.1,1.1
		c0,0,0,0,0,0.1c0,0.2,0,0.4-0.1,0.6c0,0,0,0,0,0c-0.4,0-0.7,0.1-0.9,0.4c-0.3,0.3-0.4,0.6-0.3,1c0,0-0.1,0-0.1,0
		c-0.1,0-0.1,0-0.1-0.1c-0.1-0.3-0.5-0.4-0.8-0.3c-0.3,0.1-0.5,0.4-0.4,0.7c0,0.3,0.3,0.6,0.6,0.6c0.3,0,0.6-0.2,0.6-0.6
		c0-0.1,0.1-0.1,0.1-0.1c0.1,0,0.1,0,0.1,0.1C12.5,25.5,12.8,25.8,13.4,25.8C13.4,25.8,13.4,25.8,13.4,25.8z"/>
	<path class="st7" d="M9.1,11.5c0.4,0,0.6-0.3,0.6-0.7c0-0.4-0.3-0.6-0.6-0.6c-0.4,0-0.6,0.3-0.6,0.7C8.4,11.2,8.7,11.5,9.1,11.5z"
		/>
	<path class="st7" d="M9.1,20.7c-0.4,0-0.6,0.3-0.6,0.7c0,0.4,0.3,0.6,0.6,0.6c0.4,0,0.6-0.3,0.6-0.6C9.7,21,9.4,20.7,9.1,20.7z"/>
	<path class="st7" d="M6.8,9.6c0,0.3,0.2,0.6,0.5,0.6c0.3,0,0.5-0.2,0.5-0.6c0-0.3-0.2-0.6-0.5-0.6C7,9.1,6.8,9.3,6.8,9.6z"/>
	<path class="st7" d="M6.8,22.6c0,0.3,0.2,0.6,0.5,0.6c0.3,0,0.5-0.2,0.5-0.6c0-0.3-0.2-0.6-0.5-0.6C7,22.1,6.8,22.3,6.8,22.6z"/>
	<path class="st7" d="M14.4,18.2c0.2,0,0.4-0.2,0.4-0.4c0-0.2-0.2-0.4-0.4-0.4c-0.2,0-0.4,0.2-0.4,0.4C14,18,14.2,18.2,14.4,18.2z"
		/>
</mask>
<path class="st12" d="M9.1,20.7c-0.4,0-0.6,0.3-0.6,0.7c0,0.4,0.3,0.6,0.6,0.6c0.4,0,0.6-0.3,0.6-0.6C9.7,21,9.4,20.7,9.1,20.7z"/>
<defs>
	<filter id="Adobe_OpacityMaskFilter_3_" filterUnits="userSpaceOnUse" x="6.7" y="9" width="1.2" height="1.2">
		<feColorMatrix  type="matrix" values="1 0 0 0 0  0 1 0 0 0  0 0 1 0 0  0 0 0 1 0"/>
	</filter>
</defs>
<mask maskUnits="userSpaceOnUse" x="6.7" y="9" width="1.2" height="1.2" id="path-1-inside-1_1967_911_4_">
	<path class="st13" d="M13.4,25.8c0,0.2,0,0.4,0.1,0.6c0,0.4,0.1,0.7,0.1,1.1c0,0.1,0,0.1-0.1,0.1c-0.3,0.1-0.5,0.4-0.4,0.7
		c0.1,0.3,0.3,0.5,0.6,0.5c0.3,0,0.6-0.2,0.6-0.5c0.1-0.3-0.2-0.7-0.5-0.7c-0.1,0-0.1,0-0.1-0.1c0-0.4-0.1-0.8-0.1-1.2
		c0-0.2,0-0.4,0-0.5c0.6-0.2,0.9-0.6,0.9-1.2c0-0.6-0.3-1-0.9-1.2c0-0.2,0-0.4,0.1-0.6c0,0,0,0,0.1,0c0.5,0,0.8-0.6,0.5-1
		c-0.1-0.2-0.3-0.3-0.6-0.3c-0.1,0-0.1,0-0.1-0.1c-0.1-0.3-0.2-0.7-0.4-1c0,0,0-0.1,0-0.1c0.2-0.3,0.1-0.6-0.1-0.8
		c-0.3-0.2-0.6-0.1-0.8,0.2c0,0,0,0-0.1,0c-0.4-0.1-0.8-0.2-1.3-0.3c0,0,0,0,0,0c0-0.3-0.1-0.5-0.2-0.8c0,0,0,0,0,0
		c0.2-0.1,0.3-0.3,0.5-0.4c0.4-0.4,0.9-0.7,1.3-1.1c0,0,0.1,0,0.1,0c0.3,0.2,0.6,0.3,0.9,0.2c0.6-0.1,1-0.6,1-1.1
		c0.1-0.6-0.4-1.2-1-1.3c-0.4-0.1-0.7,0-1,0.3c-0.6-0.5-1.2-1-1.8-1.5c0.1-0.2,0.2-0.3,0.2-0.5c0-0.1,0-0.2,0-0.2c0,0,0-0.1,0-0.1
		c0.4-0.1,0.8-0.2,1.3-0.3c0,0,0.1,0,0.1,0c0.1,0.2,0.4,0.3,0.6,0.3c0.4-0.1,0.5-0.6,0.3-0.9c0,0,0-0.1,0-0.1c0.1-0.3,0.2-0.7,0.4-1
		c0-0.1,0-0.1,0.1-0.1c0.3,0,0.6-0.3,0.7-0.6c0-0.4-0.2-0.7-0.6-0.7c-0.1,0-0.1,0-0.1-0.1c0-0.2,0-0.3,0-0.5c0,0,0-0.1,0.1-0.1
		c0.5-0.2,0.7-0.5,0.8-1c0.1-0.6-0.3-1.2-0.9-1.3c0,0,0,0,0,0c0-0.2,0-0.5,0.1-0.7c0-0.2,0-0.5,0.1-0.7c0-0.1,0-0.2,0-0.3
		c0,0,0,0,0.1,0c0.3-0.1,0.5-0.4,0.5-0.7c0-0.3-0.3-0.6-0.7-0.6c-0.3,0-0.6,0.3-0.6,0.6c0,0.3,0.2,0.5,0.4,0.6c0,0,0.1,0,0,0.1
		c-0.1,0.5-0.1,1.1-0.2,1.6c0,0,0,0,0,0c-0.1,0-0.3,0-0.4,0.1c-0.4,0.1-0.6,0.4-0.8,0.8c0,0,0,0.1-0.1,0.1c-0.1,0-0.1,0-0.1-0.1
		c-0.1-0.3-0.3-0.6-0.7-0.5c-0.3,0-0.6,0.3-0.6,0.6c0,0.3,0.2,0.6,0.5,0.7C11.6,8,11.9,7.8,12,7.6c0.1-0.1,0.1-0.1,0.2-0.1
		c0,0.4,0.1,0.7,0.3,1c0.3,0.3,0.6,0.4,0.9,0.4c0,0.2,0,0.3,0.1,0.5c0,0.1,0,0.1-0.1,0.2c-0.4,0.2-0.4,0.8,0,1.1c0,0,0.1,0.1,0,0.1
		c-0.1,0.3-0.2,0.6-0.4,1c0,0,0,0,0,0c-0.1,0-0.2,0-0.3,0c-0.2,0-0.4,0.2-0.5,0.4c0,0,0,0.1-0.1,0.1c-0.4,0.1-0.8,0.2-1.3,0.3
		c0,0,0,0,0,0c-0.2-0.5-0.5-0.8-1.1-0.9c-0.5,0-0.9,0.2-1.2,0.7c-0.9-0.3-1.8-0.6-2.7-0.9c0.1-0.4,0-0.7-0.3-1C5.6,10.2,5.3,10,5,10
		c-0.6-0.1-1.2,0.3-1.3,0.9c-0.2,0.6,0.1,1.2,0.7,1.5c0.6,0.2,1.3,0,1.6-0.7c0.9,0.3,1.8,0.6,2.7,0.9c0,0.2,0,0.4,0,0.7
		c-0.3,0.1-0.6,0.3-0.9,0.4c-0.1-0.2-0.3-0.3-0.5-0.3c-0.3-0.1-0.7,0.2-0.7,0.6c0,0.4,0.2,0.7,0.6,0.7c0.4,0,0.7-0.2,0.7-0.6
		c0,0,0-0.1,0-0.1c0.3-0.1,0.6-0.3,0.9-0.4c0,0,0,0,0,0c0.1,0.1,0.2,0.2,0.3,0.3c0.2,0.2,0.5,0.2,0.7,0.2c0.1,0,0.1,0,0.1,0.1
		c0.1,0.2,0.1,0.5,0.2,0.7c0,0.1,0,0.1,0,0.1c-0.2,0.2-0.3,0.4-0.2,0.7c0.1,0.3,0.4,0.4,0.6,0.3c0.2-0.1,0.4-0.3,0.4-0.5
		c0-0.3-0.2-0.5-0.4-0.5c-0.1,0-0.1,0-0.1-0.1c-0.1-0.3-0.2-0.5-0.2-0.7c0.1-0.1,0.3-0.2,0.4-0.2c0.6,0.5,1.2,1,1.8,1.5
		c-0.3,0.5-0.3,1,0,1.5c-0.6,0.5-1.2,1-1.8,1.5c-0.1-0.1-0.3-0.1-0.4-0.2c0-0.1,0.1-0.3,0.1-0.5c0-0.1,0.1-0.2,0.1-0.3
		c0,0,0-0.1,0.1-0.1c0.2,0,0.4-0.2,0.5-0.5c0-0.2-0.1-0.5-0.3-0.6c-0.2-0.1-0.6,0-0.7,0.2c-0.2,0.2-0.1,0.6,0.1,0.7
		c0.1,0,0.1,0.1,0,0.1c-0.1,0.3-0.2,0.5-0.2,0.8c-0.5,0-0.8,0.2-1.1,0.6c-0.1,0-0.1-0.1-0.2-0.1c-0.2-0.1-0.5-0.2-0.7-0.3
		c0,0-0.1,0-0.1-0.1c0-0.3-0.2-0.5-0.4-0.6c-0.2-0.1-0.5,0-0.7,0.2c-0.2,0.2-0.2,0.4-0.1,0.7c0.1,0.2,0.3,0.4,0.5,0.4
		c0.3,0,0.5-0.1,0.6-0.3c0,0,0.1-0.1,0.1,0c0.3,0.1,0.6,0.3,0.8,0.4c-0.1,0.2-0.1,0.4,0,0.6c-0.9,0.3-1.8,0.6-2.7,0.9
		c-0.3-0.7-1.1-0.9-1.7-0.6c-0.5,0.3-0.8,1-0.6,1.5C4,22,4.6,22.3,5.2,22.2c0.6-0.2,1-0.7,0.9-1.4c0.9-0.3,1.8-0.6,2.7-0.9
		c0.3,0.5,0.6,0.8,1.2,0.7c0.5,0,0.9-0.4,1.1-0.9c0.1,0,0.1,0,0.2,0c0.4,0.1,0.7,0.2,1.1,0.3c0,0,0.1,0,0.1,0.1
		c0.1,0.3,0.4,0.5,0.7,0.4c0,0,0,0,0,0c0.1,0.1,0.1,0.3,0.2,0.4c0.1,0.2,0.2,0.4,0.2,0.6c0,0,0,0.1,0,0.1c-0.4,0.3-0.4,0.9,0.1,1.1
		c0,0,0,0,0,0.1c0,0.2,0,0.4-0.1,0.6c0,0,0,0,0,0c-0.4,0-0.7,0.1-0.9,0.4c-0.3,0.3-0.4,0.6-0.3,1c0,0-0.1,0-0.1,0
		c-0.1,0-0.1,0-0.1-0.1c-0.1-0.3-0.5-0.4-0.8-0.3c-0.3,0.1-0.5,0.4-0.4,0.7c0,0.3,0.3,0.6,0.6,0.6c0.3,0,0.6-0.2,0.6-0.6
		c0-0.1,0.1-0.1,0.1-0.1c0.1,0,0.1,0,0.1,0.1C12.5,25.5,12.8,25.8,13.4,25.8C13.4,25.8,13.4,25.8,13.4,25.8z"/>
	<path class="st7" d="M9.1,11.5c0.4,0,0.6-0.3,0.6-0.7c0-0.4-0.3-0.6-0.6-0.6c-0.4,0-0.6,0.3-0.6,0.7C8.4,11.2,8.7,11.5,9.1,11.5z"
		/>
	<path class="st7" d="M9.1,20.7c-0.4,0-0.6,0.3-0.6,0.7c0,0.4,0.3,0.6,0.6,0.6c0.4,0,0.6-0.3,0.6-0.6C9.7,21,9.4,20.7,9.1,20.7z"/>
	<path class="st7" d="M6.8,9.6c0,0.3,0.2,0.6,0.5,0.6c0.3,0,0.5-0.2,0.5-0.6c0-0.3-0.2-0.6-0.5-0.6C7,9.1,6.8,9.3,6.8,9.6z"/>
	<path class="st7" d="M6.8,22.6c0,0.3,0.2,0.6,0.5,0.6c0.3,0,0.5-0.2,0.5-0.6c0-0.3-0.2-0.6-0.5-0.6C7,22.1,6.8,22.3,6.8,22.6z"/>
	<path class="st7" d="M14.4,18.2c0.2,0,0.4-0.2,0.4-0.4c0-0.2-0.2-0.4-0.4-0.4c-0.2,0-0.4,0.2-0.4,0.4C14,18,14.2,18.2,14.4,18.2z"
		/>
</mask>
<path class="st14" d="M6.8,9.6c0,0.3,0.2,0.6,0.5,0.6c0.3,0,0.5-0.2,0.5-0.6c0-0.3-0.2-0.6-0.5-0.6C7,9.1,6.8,9.3,6.8,9.6z"/>
<defs>
	<filter id="Adobe_OpacityMaskFilter_4_" filterUnits="userSpaceOnUse" x="6.7" y="22" width="1.2" height="1.2">
		<feColorMatrix  type="matrix" values="1 0 0 0 0  0 1 0 0 0  0 0 1 0 0  0 0 0 1 0"/>
	</filter>
</defs>
<mask maskUnits="userSpaceOnUse" x="6.7" y="22" width="1.2" height="1.2" id="path-1-inside-1_1967_911_5_">
	<path class="st15" d="M13.4,25.8c0,0.2,0,0.4,0.1,0.6c0,0.4,0.1,0.7,0.1,1.1c0,0.1,0,0.1-0.1,0.1c-0.3,0.1-0.5,0.4-0.4,0.7
		c0.1,0.3,0.3,0.5,0.6,0.5c0.3,0,0.6-0.2,0.6-0.5c0.1-0.3-0.2-0.7-0.5-0.7c-0.1,0-0.1,0-0.1-0.1c0-0.4-0.1-0.8-0.1-1.2
		c0-0.2,0-0.4,0-0.5c0.6-0.2,0.9-0.6,0.9-1.2c0-0.6-0.3-1-0.9-1.2c0-0.2,0-0.4,0.1-0.6c0,0,0,0,0.1,0c0.5,0,0.8-0.6,0.5-1
		c-0.1-0.2-0.3-0.3-0.6-0.3c-0.1,0-0.1,0-0.1-0.1c-0.1-0.3-0.2-0.7-0.4-1c0,0,0-0.1,0-0.1c0.2-0.3,0.1-0.6-0.1-0.8
		c-0.3-0.2-0.6-0.1-0.8,0.2c0,0,0,0-0.1,0c-0.4-0.1-0.8-0.2-1.3-0.3c0,0,0,0,0,0c0-0.3-0.1-0.5-0.2-0.8c0,0,0,0,0,0
		c0.2-0.1,0.3-0.3,0.5-0.4c0.4-0.4,0.9-0.7,1.3-1.1c0,0,0.1,0,0.1,0c0.3,0.2,0.6,0.3,0.9,0.2c0.6-0.1,1-0.6,1-1.1
		c0.1-0.6-0.4-1.2-1-1.3c-0.4-0.1-0.7,0-1,0.3c-0.6-0.5-1.2-1-1.8-1.5c0.1-0.2,0.2-0.3,0.2-0.5c0-0.1,0-0.2,0-0.2c0,0,0-0.1,0-0.1
		c0.4-0.1,0.8-0.2,1.3-0.3c0,0,0.1,0,0.1,0c0.1,0.2,0.4,0.3,0.6,0.3c0.4-0.1,0.5-0.6,0.3-0.9c0,0,0-0.1,0-0.1c0.1-0.3,0.2-0.7,0.4-1
		c0-0.1,0-0.1,0.1-0.1c0.3,0,0.6-0.3,0.7-0.6c0-0.4-0.2-0.7-0.6-0.7c-0.1,0-0.1,0-0.1-0.1c0-0.2,0-0.3,0-0.5c0,0,0-0.1,0.1-0.1
		c0.5-0.2,0.7-0.5,0.8-1c0.1-0.6-0.3-1.2-0.9-1.3c0,0,0,0,0,0c0-0.2,0-0.5,0.1-0.7c0-0.2,0-0.5,0.1-0.7c0-0.1,0-0.2,0-0.3
		c0,0,0,0,0.1,0c0.3-0.1,0.5-0.4,0.5-0.7c0-0.3-0.3-0.6-0.7-0.6c-0.3,0-0.6,0.3-0.6,0.6c0,0.3,0.2,0.5,0.4,0.6c0,0,0.1,0,0,0.1
		c-0.1,0.5-0.1,1.1-0.2,1.6c0,0,0,0,0,0c-0.1,0-0.3,0-0.4,0.1c-0.4,0.1-0.6,0.4-0.8,0.8c0,0,0,0.1-0.1,0.1c-0.1,0-0.1,0-0.1-0.1
		c-0.1-0.3-0.3-0.6-0.7-0.5c-0.3,0-0.6,0.3-0.6,0.6c0,0.3,0.2,0.6,0.5,0.7C11.6,8,11.9,7.8,12,7.6c0.1-0.1,0.1-0.1,0.2-0.1
		c0,0.4,0.1,0.7,0.3,1c0.3,0.3,0.6,0.4,0.9,0.4c0,0.2,0,0.3,0.1,0.5c0,0.1,0,0.1-0.1,0.2c-0.4,0.2-0.4,0.8,0,1.1c0,0,0.1,0.1,0,0.1
		c-0.1,0.3-0.2,0.6-0.4,1c0,0,0,0,0,0c-0.1,0-0.2,0-0.3,0c-0.2,0-0.4,0.2-0.5,0.4c0,0,0,0.1-0.1,0.1c-0.4,0.1-0.8,0.2-1.3,0.3
		c0,0,0,0,0,0c-0.2-0.5-0.5-0.8-1.1-0.9c-0.5,0-0.9,0.2-1.2,0.7c-0.9-0.3-1.8-0.6-2.7-0.9c0.1-0.4,0-0.7-0.3-1C5.6,10.2,5.3,10,5,10
		c-0.6-0.1-1.2,0.3-1.3,0.9c-0.2,0.6,0.1,1.2,0.7,1.5c0.6,0.2,1.3,0,1.6-0.7c0.9,0.3,1.8,0.6,2.7,0.9c0,0.2,0,0.4,0,0.7
		c-0.3,0.1-0.6,0.3-0.9,0.4c-0.1-0.2-0.3-0.3-0.5-0.3c-0.3-0.1-0.7,0.2-0.7,0.6c0,0.4,0.2,0.7,0.6,0.7c0.4,0,0.7-0.2,0.7-0.6
		c0,0,0-0.1,0-0.1c0.3-0.1,0.6-0.3,0.9-0.4c0,0,0,0,0,0c0.1,0.1,0.2,0.2,0.3,0.3c0.2,0.2,0.5,0.2,0.7,0.2c0.1,0,0.1,0,0.1,0.1
		c0.1,0.2,0.1,0.5,0.2,0.7c0,0.1,0,0.1,0,0.1c-0.2,0.2-0.3,0.4-0.2,0.7c0.1,0.3,0.4,0.4,0.6,0.3c0.2-0.1,0.4-0.3,0.4-0.5
		c0-0.3-0.2-0.5-0.4-0.5c-0.1,0-0.1,0-0.1-0.1c-0.1-0.3-0.2-0.5-0.2-0.7c0.1-0.1,0.3-0.2,0.4-0.2c0.6,0.5,1.2,1,1.8,1.5
		c-0.3,0.5-0.3,1,0,1.5c-0.6,0.5-1.2,1-1.8,1.5c-0.1-0.1-0.3-0.1-0.4-0.2c0-0.1,0.1-0.3,0.1-0.5c0-0.1,0.1-0.2,0.1-0.3
		c0,0,0-0.1,0.1-0.1c0.2,0,0.4-0.2,0.5-0.5c0-0.2-0.1-0.5-0.3-0.6c-0.2-0.1-0.6,0-0.7,0.2c-0.2,0.2-0.1,0.6,0.1,0.7
		c0.1,0,0.1,0.1,0,0.1c-0.1,0.3-0.2,0.5-0.2,0.8c-0.5,0-0.8,0.2-1.1,0.6c-0.1,0-0.1-0.1-0.2-0.1c-0.2-0.1-0.5-0.2-0.7-0.3
		c0,0-0.1,0-0.1-0.1c0-0.3-0.2-0.5-0.4-0.6c-0.2-0.1-0.5,0-0.7,0.2c-0.2,0.2-0.2,0.4-0.1,0.7c0.1,0.2,0.3,0.4,0.5,0.4
		c0.3,0,0.5-0.1,0.6-0.3c0,0,0.1-0.1,0.1,0c0.3,0.1,0.6,0.3,0.8,0.4c-0.1,0.2-0.1,0.4,0,0.6c-0.9,0.3-1.8,0.6-2.7,0.9
		c-0.3-0.7-1.1-0.9-1.7-0.6c-0.5,0.3-0.8,1-0.6,1.5C4,22,4.6,22.3,5.2,22.2c0.6-0.2,1-0.7,0.9-1.4c0.9-0.3,1.8-0.6,2.7-0.9
		c0.3,0.5,0.6,0.8,1.2,0.7c0.5,0,0.9-0.4,1.1-0.9c0.1,0,0.1,0,0.2,0c0.4,0.1,0.7,0.2,1.1,0.3c0,0,0.1,0,0.1,0.1
		c0.1,0.3,0.4,0.5,0.7,0.4c0,0,0,0,0,0c0.1,0.1,0.1,0.3,0.2,0.4c0.1,0.2,0.2,0.4,0.2,0.6c0,0,0,0.1,0,0.1c-0.4,0.3-0.4,0.9,0.1,1.1
		c0,0,0,0,0,0.1c0,0.2,0,0.4-0.1,0.6c0,0,0,0,0,0c-0.4,0-0.7,0.1-0.9,0.4c-0.3,0.3-0.4,0.6-0.3,1c0,0-0.1,0-0.1,0
		c-0.1,0-0.1,0-0.1-0.1c-0.1-0.3-0.5-0.4-0.8-0.3c-0.3,0.1-0.5,0.4-0.4,0.7c0,0.3,0.3,0.6,0.6,0.6c0.3,0,0.6-0.2,0.6-0.6
		c0-0.1,0.1-0.1,0.1-0.1c0.1,0,0.1,0,0.1,0.1C12.5,25.5,12.8,25.8,13.4,25.8C13.4,25.8,13.4,25.8,13.4,25.8z"/>
	<path class="st7" d="M9.1,11.5c0.4,0,0.6-0.3,0.6-0.7c0-0.4-0.3-0.6-0.6-0.6c-0.4,0-0.6,0.3-0.6,0.7C8.4,11.2,8.7,11.5,9.1,11.5z"
		/>
	<path class="st7" d="M9.1,20.7c-0.4,0-0.6,0.3-0.6,0.7c0,0.4,0.3,0.6,0.6,0.6c0.4,0,0.6-0.3,0.6-0.6C9.7,21,9.4,20.7,9.1,20.7z"/>
	<path class="st7" d="M6.8,9.6c0,0.3,0.2,0.6,0.5,0.6c0.3,0,0.5-0.2,0.5-0.6c0-0.3-0.2-0.6-0.5-0.6C7,9.1,6.8,9.3,6.8,9.6z"/>
	<path class="st7" d="M6.8,22.6c0,0.3,0.2,0.6,0.5,0.6c0.3,0,0.5-0.2,0.5-0.6c0-0.3-0.2-0.6-0.5-0.6C7,22.1,6.8,22.3,6.8,22.6z"/>
	<path class="st7" d="M14.4,18.2c0.2,0,0.4-0.2,0.4-0.4c0-0.2-0.2-0.4-0.4-0.4c-0.2,0-0.4,0.2-0.4,0.4C14,18,14.2,18.2,14.4,18.2z"
		/>
</mask>
<path class="st16" d="M6.8,22.6c0,0.3,0.2,0.6,0.5,0.6c0.3,0,0.5-0.2,0.5-0.6c0-0.3-0.2-0.6-0.5-0.6C7,22.1,6.8,22.3,6.8,22.6z"/>
<defs>
	<filter id="Adobe_OpacityMaskFilter_5_" filterUnits="userSpaceOnUse" x="13.9" y="17.3" width="1" height="1">
		<feColorMatrix  type="matrix" values="1 0 0 0 0  0 1 0 0 0  0 0 1 0 0  0 0 0 1 0"/>
	</filter>
</defs>
<mask maskUnits="userSpaceOnUse" x="13.9" y="17.3" width="1" height="1" id="path-1-inside-1_1967_911_6_">
	<path class="st17" d="M13.4,25.8c0,0.2,0,0.4,0.1,0.6c0,0.4,0.1,0.7,0.1,1.1c0,0.1,0,0.1-0.1,0.1c-0.3,0.1-0.5,0.4-0.4,0.7
		c0.1,0.3,0.3,0.5,0.6,0.5c0.3,0,0.6-0.2,0.6-0.5c0.1-0.3-0.2-0.7-0.5-0.7c-0.1,0-0.1,0-0.1-0.1c0-0.4-0.1-0.8-0.1-1.2
		c0-0.2,0-0.4,0-0.5c0.6-0.2,0.9-0.6,0.9-1.2c0-0.6-0.3-1-0.9-1.2c0-0.2,0-0.4,0.1-0.6c0,0,0,0,0.1,0c0.5,0,0.8-0.6,0.5-1
		c-0.1-0.2-0.3-0.3-0.6-0.3c-0.1,0-0.1,0-0.1-0.1c-0.1-0.3-0.2-0.7-0.4-1c0,0,0-0.1,0-0.1c0.2-0.3,0.1-0.6-0.1-0.8
		c-0.3-0.2-0.6-0.1-0.8,0.2c0,0,0,0-0.1,0c-0.4-0.1-0.8-0.2-1.3-0.3c0,0,0,0,0,0c0-0.3-0.1-0.5-0.2-0.8c0,0,0,0,0,0
		c0.2-0.1,0.3-0.3,0.5-0.4c0.4-0.4,0.9-0.7,1.3-1.1c0,0,0.1,0,0.1,0c0.3,0.2,0.6,0.3,0.9,0.2c0.6-0.1,1-0.6,1-1.1
		c0.1-0.6-0.4-1.2-1-1.3c-0.4-0.1-0.7,0-1,0.3c-0.6-0.5-1.2-1-1.8-1.5c0.1-0.2,0.2-0.3,0.2-0.5c0-0.1,0-0.2,0-0.2c0,0,0-0.1,0-0.1
		c0.4-0.1,0.8-0.2,1.3-0.3c0,0,0.1,0,0.1,0c0.1,0.2,0.4,0.3,0.6,0.3c0.4-0.1,0.5-0.6,0.3-0.9c0,0,0-0.1,0-0.1c0.1-0.3,0.2-0.7,0.4-1
		c0-0.1,0-0.1,0.1-0.1c0.3,0,0.6-0.3,0.7-0.6c0-0.4-0.2-0.7-0.6-0.7c-0.1,0-0.1,0-0.1-0.1c0-0.2,0-0.3,0-0.5c0,0,0-0.1,0.1-0.1
		c0.5-0.2,0.7-0.5,0.8-1c0.1-0.6-0.3-1.2-0.9-1.3c0,0,0,0,0,0c0-0.2,0-0.5,0.1-0.7c0-0.2,0-0.5,0.1-0.7c0-0.1,0-0.2,0-0.3
		c0,0,0,0,0.1,0c0.3-0.1,0.5-0.4,0.5-0.7c0-0.3-0.3-0.6-0.7-0.6c-0.3,0-0.6,0.3-0.6,0.6c0,0.3,0.2,0.5,0.4,0.6c0,0,0.1,0,0,0.1
		c-0.1,0.5-0.1,1.1-0.2,1.6c0,0,0,0,0,0c-0.1,0-0.3,0-0.4,0.1c-0.4,0.1-0.6,0.4-0.8,0.8c0,0,0,0.1-0.1,0.1c-0.1,0-0.1,0-0.1-0.1
		c-0.1-0.3-0.3-0.6-0.7-0.5c-0.3,0-0.6,0.3-0.6,0.6c0,0.3,0.2,0.6,0.5,0.7C11.6,8,11.9,7.8,12,7.6c0.1-0.1,0.1-0.1,0.2-0.1
		c0,0.4,0.1,0.7,0.3,1c0.3,0.3,0.6,0.4,0.9,0.4c0,0.2,0,0.3,0.1,0.5c0,0.1,0,0.1-0.1,0.2c-0.4,0.2-0.4,0.8,0,1.1c0,0,0.1,0.1,0,0.1
		c-0.1,0.3-0.2,0.6-0.4,1c0,0,0,0,0,0c-0.1,0-0.2,0-0.3,0c-0.2,0-0.4,0.2-0.5,0.4c0,0,0,0.1-0.1,0.1c-0.4,0.1-0.8,0.2-1.3,0.3
		c0,0,0,0,0,0c-0.2-0.5-0.5-0.8-1.1-0.9c-0.5,0-0.9,0.2-1.2,0.7c-0.9-0.3-1.8-0.6-2.7-0.9c0.1-0.4,0-0.7-0.3-1C5.6,10.2,5.3,10,5,10
		c-0.6-0.1-1.2,0.3-1.3,0.9c-0.2,0.6,0.1,1.2,0.7,1.5c0.6,0.2,1.3,0,1.6-0.7c0.9,0.3,1.8,0.6,2.7,0.9c0,0.2,0,0.4,0,0.7
		c-0.3,0.1-0.6,0.3-0.9,0.4c-0.1-0.2-0.3-0.3-0.5-0.3c-0.3-0.1-0.7,0.2-0.7,0.6c0,0.4,0.2,0.7,0.6,0.7c0.4,0,0.7-0.2,0.7-0.6
		c0,0,0-0.1,0-0.1c0.3-0.1,0.6-0.3,0.9-0.4c0,0,0,0,0,0c0.1,0.1,0.2,0.2,0.3,0.3c0.2,0.2,0.5,0.2,0.7,0.2c0.1,0,0.1,0,0.1,0.1
		c0.1,0.2,0.1,0.5,0.2,0.7c0,0.1,0,0.1,0,0.1c-0.2,0.2-0.3,0.4-0.2,0.7c0.1,0.3,0.4,0.4,0.6,0.3c0.2-0.1,0.4-0.3,0.4-0.5
		c0-0.3-0.2-0.5-0.4-0.5c-0.1,0-0.1,0-0.1-0.1c-0.1-0.3-0.2-0.5-0.2-0.7c0.1-0.1,0.3-0.2,0.4-0.2c0.6,0.5,1.2,1,1.8,1.5
		c-0.3,0.5-0.3,1,0,1.5c-0.6,0.5-1.2,1-1.8,1.5c-0.1-0.1-0.3-0.1-0.4-0.2c0-0.1,0.1-0.3,0.1-0.5c0-0.1,0.1-0.2,0.1-0.3
		c0,0,0-0.1,0.1-0.1c0.2,0,0.4-0.2,0.5-0.5c0-0.2-0.1-0.5-0.3-0.6c-0.2-0.1-0.6,0-0.7,0.2c-0.2,0.2-0.1,0.6,0.1,0.7
		c0.1,0,0.1,0.1,0,0.1c-0.1,0.3-0.2,0.5-0.2,0.8c-0.5,0-0.8,0.2-1.1,0.6c-0.1,0-0.1-0.1-0.2-0.1c-0.2-0.1-0.5-0.2-0.7-0.3
		c0,0-0.1,0-0.1-0.1c0-0.3-0.2-0.5-0.4-0.6c-0.2-0.1-0.5,0-0.7,0.2c-0.2,0.2-0.2,0.4-0.1,0.7c0.1,0.2,0.3,0.4,0.5,0.4
		c0.3,0,0.5-0.1,0.6-0.3c0,0,0.1-0.1,0.1,0c0.3,0.1,0.6,0.3,0.8,0.4c-0.1,0.2-0.1,0.4,0,0.6c-0.9,0.3-1.8,0.6-2.7,0.9
		c-0.3-0.7-1.1-0.9-1.7-0.6c-0.5,0.3-0.8,1-0.6,1.5C4,22,4.6,22.3,5.2,22.2c0.6-0.2,1-0.7,0.9-1.4c0.9-0.3,1.8-0.6,2.7-0.9
		c0.3,0.5,0.6,0.8,1.2,0.7c0.5,0,0.9-0.4,1.1-0.9c0.1,0,0.1,0,0.2,0c0.4,0.1,0.7,0.2,1.1,0.3c0,0,0.1,0,0.1,0.1
		c0.1,0.3,0.4,0.5,0.7,0.4c0,0,0,0,0,0c0.1,0.1,0.1,0.3,0.2,0.4c0.1,0.2,0.2,0.4,0.2,0.6c0,0,0,0.1,0,0.1c-0.4,0.3-0.4,0.9,0.1,1.1
		c0,0,0,0,0,0.1c0,0.2,0,0.4-0.1,0.6c0,0,0,0,0,0c-0.4,0-0.7,0.1-0.9,0.4c-0.3,0.3-0.4,0.6-0.3,1c0,0-0.1,0-0.1,0
		c-0.1,0-0.1,0-0.1-0.1c-0.1-0.3-0.5-0.4-0.8-0.3c-0.3,0.1-0.5,0.4-0.4,0.7c0,0.3,0.3,0.6,0.6,0.6c0.3,0,0.6-0.2,0.6-0.6
		c0-0.1,0.1-0.1,0.1-0.1c0.1,0,0.1,0,0.1,0.1C12.5,25.5,12.8,25.8,13.4,25.8C13.4,25.8,13.4,25.8,13.4,25.8z"/>
	<path class="st7" d="M9.1,11.5c0.4,0,0.6-0.3,0.6-0.7c0-0.4-0.3-0.6-0.6-0.6c-0.4,0-0.6,0.3-0.6,0.7C8.4,11.2,8.7,11.5,9.1,11.5z"
		/>
	<path class="st7" d="M9.1,20.7c-0.4,0-0.6,0.3-0.6,0.7c0,0.4,0.3,0.6,0.6,0.6c0.4,0,0.6-0.3,0.6-0.6C9.7,21,9.4,20.7,9.1,20.7z"/>
	<path class="st7" d="M6.8,9.6c0,0.3,0.2,0.6,0.5,0.6c0.3,0,0.5-0.2,0.5-0.6c0-0.3-0.2-0.6-0.5-0.6C7,9.1,6.8,9.3,6.8,9.6z"/>
	<path class="st7" d="M6.8,22.6c0,0.3,0.2,0.6,0.5,0.6c0.3,0,0.5-0.2,0.5-0.6c0-0.3-0.2-0.6-0.5-0.6C7,22.1,6.8,22.3,6.8,22.6z"/>
	<path class="st7" d="M14.4,18.2c0.2,0,0.4-0.2,0.4-0.4c0-0.2-0.2-0.4-0.4-0.4c-0.2,0-0.4,0.2-0.4,0.4C14,18,14.2,18.2,14.4,18.2z"
		/>
</mask>
<path class="st18" d="M14.4,18.2c0.2,0,0.4-0.2,0.4-0.4c0-0.2-0.2-0.4-0.4-0.4c-0.2,0-0.4,0.2-0.4,0.4C14,18,14.2,18.2,14.4,18.2z"
	/>
<linearGradient id="SVGID_7_" gradientUnits="userSpaceOnUse" x1="32.8102" y1="25.5935" x2="8.8044" y2="14.4977" gradientTransform="matrix(1 0 0 -1 0 34)">
	<stop  offset="0" style="stop-color:#023B28"/>
	<stop  offset="1" style="stop-color:#05A16D"/>
</linearGradient>
<path class="st19" d="M16.8,18.4c0,0-0.6,0-0.6,0c1.4,0,2.3-1.2,2.3-2.4c0-1.3-1-2.4-2.3-2.4c0,0-0.1,0-0.1,0c0,0,0-0.1,0-0.1
	c0,0,0,0,0,0c0,0,0,0,0.1,0c1.4,0,2.5,1.1,2.5,2.5c0,1.4-1.1,2.5-2.5,2.5c0,0-0.1,0.2,0,0C16.1,18.5,16.8,18.5,16.8,18.4z"/>
<linearGradient id="SVGID_8_" gradientUnits="userSpaceOnUse" x1="32.8114" y1="25.5908" x2="8.8056" y2="14.495" gradientTransform="matrix(1 0 0 -1 0 34)">
	<stop  offset="0" style="stop-color:#023B28"/>
	<stop  offset="1" style="stop-color:#05A16D"/>
</linearGradient>
<path class="st20" d="M18.5,16C18.5,16,18.5,16,18.5,16c0.1,0,0.3-0.1,0.4-0.1c1,0,1.9,0,2.8-0.2c1.3-0.1,2.5-0.7,3.5-1.6
	c0.7-0.7,1.3-1.5,1.5-2.4c0.1-0.4,0.1-0.9,0-1.3c-0.2-0.6-0.6-1.2-1.3-1.4c-0.8-0.3-1.5-0.4-2.4-0.3c-1.7,0.3-3,1-4,2.4
	c-0.6,0.7-1.1,1.5-1.5,2.3c-0.1,0.1-0.1,0.2-0.2,0.4c0,0,0,0.1-0.1,0.1l0,0l-0.1-0.1c0.1-0.2,0.1-0.3,0.2-0.5
	c0.5-0.8,0.9-1.6,1.2-2.4c0.6-1.3,0.7-2.6,0.4-4c-0.2-1-0.7-1.8-1.5-2.4c-0.4-0.3-0.9-0.6-1.4-0.6c0,0,0.1-0.1,0.1-0.1
	c0.4,0,0.8,0.2,1.2,0.5c0.6,0.5,1.1,1,1.4,1.7c0.4,0.9,0.6,1.9,0.5,2.9c-0.1,0.7-0.2,1.4-0.5,2c-0.2,0.4-0.4,0.8-0.6,1.2
	c0,0.1-0.1,0.1-0.1,0.2c0.1,0,0.1-0.1,0.1-0.1c0.2-0.3,0.5-0.7,0.7-1c0.8-1.1,1.9-1.8,3.2-2.3c0.8-0.2,1.6-0.4,2.4-0.2
	C25,8.7,25.4,8.8,25.8,9c0.8,0.5,1.2,1.2,1.2,2.1c0,0.9-0.4,1.7-1,2.5c-1.2,1.4-2.7,2.2-4.5,2.3C21,16,20.5,16,20,16
	c0.4,0,0.8,0,1.1,0.1c0.4,0,0.9,0.1,1.3,0.2c1.5,0.3,2.7,1.1,3.6,2.3c0.5,0.7,0.8,1.4,0.8,2.3c0.1,0.7-0.2,1.3-0.7,1.8
	c-0.3,0.3-0.6,0.4-0.9,0.5c-0.9,0.3-1.8,0.4-2.7,0.2c-1.5-0.4-2.8-1.1-3.7-2.4c-0.2-0.3-0.4-0.5-0.5-0.8c0,0-0.1-0.1-0.1-0.1
	c0,0.1,0,0.1,0.1,0.2c0.1,0.2,0.2,0.5,0.3,0.7c0.4,0.8,0.5,1.6,0.6,2.4c0,0.8-0.1,1.7-0.4,2.4c-0.3,0.8-0.8,1.4-1.4,1.9
	c-0.4,0.3-0.6,0.4-1.1,0.4c0.2,0-0.2,0.1-0.3,0c0,0,0.5,0,0.5,0c0.4,0,0.3-0.1,0.6-0.4c0.6-0.5,1.1-1,1.4-1.7c0.6-1.5,0.7-3,0.1-4.6
	c-0.4-0.9-0.8-1.8-1.3-2.6c-0.1-0.2-0.2-0.3-0.3-0.5c0,0,0,0,0,0c0,0,0.1,0,0.1,0c0.1,0.2,0.2,0.3,0.3,0.5c0.4,0.8,1,1.6,1.5,2.3
	c0.8,1.1,1.9,1.8,3.3,2.2c1,0.3,2,0.3,2.9-0.1c0.4-0.2,0.8-0.4,1.1-0.8c0.4-0.5,0.6-1,0.5-1.7c-0.1-0.7-0.3-1.4-0.8-2
	c-1.1-1.4-2.4-2.2-4.2-2.4c-1-0.1-1.9-0.2-2.9-0.2c-0.1,0-0.3,0-0.4,0c0,0-0.1,0-0.1,0l0,0"/>
<linearGradient id="SVGID_9_" gradientUnits="userSpaceOnUse" x1="24.444" y1="26.3306" x2="11.944" y2="8.3306" gradientTransform="matrix(1 0 0 -1 0 34)">
	<stop  offset="0" style="stop-color:#003320"/>
	<stop  offset="1" style="stop-color:#009960"/>
</linearGradient>
<path class="st21" d="M18.5,16C18.5,16,18.5,16,18.5,16c0.1,0,0.3-0.1,0.4-0.1c1,0,1.9,0,2.8-0.2c1.3-0.1,2.5-0.7,3.5-1.6
	c0.7-0.7,1.3-1.5,1.5-2.4c0.1-0.4,0.1-0.9,0-1.3c-0.2-0.6-0.6-1.2-1.3-1.4c-0.8-0.3-1.5-0.4-2.4-0.3c-1.7,0.3-3,1-4,2.4
	c-0.6,0.7-1.1,1.5-1.5,2.3c-0.1,0.1-0.1,0.2-0.2,0.4c0,0,0,0.1-0.1,0.1l0,0l-0.1-0.1c0.1-0.2,0.1-0.3,0.2-0.5
	c0.5-0.8,0.9-1.6,1.2-2.4c0.6-1.3,0.7-2.6,0.4-4c-0.2-1-0.7-1.8-1.5-2.4c-0.4-0.3-0.9-0.6-1.4-0.6c0,0,0.1-0.1,0.1-0.1
	c0.4,0,0.8,0.2,1.2,0.5c0.6,0.5,1.1,1,1.4,1.7c0.4,0.9,0.6,1.9,0.5,2.9c-0.1,0.7-0.2,1.4-0.5,2c-0.2,0.4-0.4,0.8-0.6,1.2
	c0,0.1-0.1,0.1-0.1,0.2c0.1,0,0.1-0.1,0.1-0.1c0.2-0.3,0.5-0.7,0.7-1c0.8-1.1,1.9-1.8,3.2-2.3c0.8-0.2,1.6-0.4,2.4-0.2
	C25,8.7,25.4,8.8,25.8,9c0.8,0.5,1.2,1.2,1.2,2.1c0,0.9-0.4,1.7-1,2.5c-1.2,1.4-2.7,2.2-4.5,2.3C21,16,20.5,16,20,16
	c0.4,0,0.8,0,1.1,0.1c0.4,0,0.9,0.1,1.3,0.2c1.5,0.3,2.7,1.1,3.6,2.3c0.5,0.7,0.8,1.4,0.8,2.3c0.1,0.7-0.2,1.3-0.7,1.8
	c-0.3,0.3-0.6,0.4-0.9,0.5c-0.9,0.3-1.8,0.4-2.7,0.2c-1.5-0.4-2.8-1.1-3.7-2.4c-0.2-0.3-0.4-0.5-0.5-0.8c0,0-0.1-0.1-0.1-0.1
	c0,0.1,0,0.1,0.1,0.2c0.1,0.2,0.2,0.5,0.3,0.7c0.4,0.8,0.5,1.6,0.6,2.4c0,0.8-0.1,1.7-0.4,2.4c-0.3,0.8-0.8,1.4-1.4,1.9
	c-0.4,0.3-0.6,0.4-1.1,0.4c0.2,0-0.2,0.1-0.3,0c0,0,0.5,0,0.5,0c0.4,0,0.3-0.1,0.6-0.4c0.6-0.5,1.1-1,1.4-1.7c0.6-1.5,0.7-3,0.1-4.6
	c-0.4-0.9-0.8-1.8-1.3-2.6c-0.1-0.2-0.2-0.3-0.3-0.5c0,0,0,0,0,0c0,0,0.1,0,0.1,0c0.1,0.2,0.2,0.3,0.3,0.5c0.4,0.8,1,1.6,1.5,2.3
	c0.8,1.1,1.9,1.8,3.3,2.2c1,0.3,2,0.3,2.9-0.1c0.4-0.2,0.8-0.4,1.1-0.8c0.4-0.5,0.6-1,0.5-1.7c-0.1-0.7-0.3-1.4-0.8-2
	c-1.1-1.4-2.4-2.2-4.2-2.4c-1-0.1-1.9-0.2-2.9-0.2c-0.1,0-0.3,0-0.4,0c0,0-0.1,0-0.1,0l0,0 M15.9,30l0-28 M16.8,18.4
	c0,0-0.6,0-0.6,0c1.4,0,2.3-1.2,2.3-2.4c0-1.3-1-2.4-2.3-2.4c0,0-0.1,0-0.1,0c0,0,0-0.1,0-0.1c0,0,0,0,0,0c0,0,0,0,0.1,0
	c1.4,0,2.5,1.1,2.5,2.5c0,1.4-1.1,2.5-2.5,2.5c0,0-0.1,0.2,0,0C16.1,18.5,16.8,18.5,16.8,18.4z"/>
</svg>
