<svg width="32" height="32" viewBox="0 0 32 32" fill="none" xmlns="http://www.w3.org/2000/svg">
<rect width="32" height="32" fill="white"/>
<mask id="path-1-inside-1_1967_911" fill="white">
<path d="M13.4282 25.8349C13.4475 26.0322 13.4669 26.2222 13.4838 26.4146C13.5176 26.7748 13.5515 27.1325 13.5901 27.4927C13.595 27.547 13.5853 27.5717 13.5321 27.5914C13.2348 27.7098 13.0777 28.0133 13.1382 28.334C13.1962 28.6325 13.462 28.8521 13.7666 28.8496C14.076 28.8471 14.3346 28.6251 14.3926 28.3118C14.453 27.9787 14.2403 27.6407 13.9164 27.5667C13.8657 27.5544 13.8512 27.5347 13.8463 27.4829C13.8149 27.098 13.7787 26.7156 13.7448 26.3307C13.7279 26.1531 13.7134 25.9755 13.6989 25.7954C14.2621 25.5956 14.5932 25.2033 14.5884 24.589C14.5835 23.992 14.2548 23.6071 13.7037 23.4097C13.7207 23.2198 13.74 23.0298 13.7569 22.8398C13.7617 22.7905 13.7908 22.7954 13.8222 22.793C14.3056 22.7535 14.5763 22.2181 14.3225 21.7987C14.1944 21.5915 14.0059 21.483 13.7642 21.4928C13.711 21.4953 13.6917 21.478 13.6747 21.4287C13.5515 21.0808 13.4258 20.7354 13.3025 20.3901C13.2929 20.3654 13.2977 20.3259 13.3122 20.3062C13.4935 20.0348 13.4355 19.6845 13.1744 19.5068C12.9134 19.3292 12.575 19.4057 12.4034 19.6869C12.3792 19.7264 12.3551 19.7313 12.3164 19.7215C11.8982 19.6228 11.4777 19.5241 11.0596 19.423C11.0426 19.418 11.0185 19.3934 11.0185 19.3786C11.0233 19.0924 10.9484 18.8333 10.784 18.599C10.7816 18.5965 10.7816 18.5916 10.7816 18.5817C10.9435 18.446 11.1103 18.3079 11.2747 18.1697C11.7025 17.812 12.1327 17.4543 12.5605 17.0941C12.604 17.0571 12.633 17.0571 12.6789 17.0916C12.94 17.2939 13.2397 17.3728 13.5563 17.3235C14.1726 17.2298 14.5304 16.7339 14.5884 16.2454C14.6609 15.604 14.221 15.0069 13.6095 14.8984C13.2445 14.8342 12.9206 14.9255 12.6258 15.1574C12.0143 14.6443 11.4028 14.1287 10.7864 13.613C10.8952 13.4551 10.9725 13.28 10.9991 13.0876C11.0112 13.0061 11.0136 12.9247 11.016 12.8433C11.016 12.8038 11.0233 12.7866 11.062 12.7767C11.4801 12.6731 11.9007 12.5695 12.3188 12.4659C12.3599 12.456 12.372 12.4782 12.3889 12.5078C12.5194 12.7397 12.7563 12.8458 13.0076 12.7866C13.375 12.6978 13.5418 12.2364 13.317 11.9206C13.2832 11.8738 13.2856 11.8417 13.3025 11.7923C13.4258 11.4593 13.5466 11.1262 13.6651 10.7907C13.6844 10.7389 13.7037 10.7167 13.7617 10.7192C14.105 10.7315 14.395 10.4601 14.4143 10.1172C14.4337 9.74962 14.1823 9.44864 13.827 9.4215C13.7714 9.41657 13.7569 9.3993 13.7521 9.34503C13.74 9.1822 13.7255 9.01937 13.7086 8.85655C13.7037 8.8072 13.7207 8.7924 13.7642 8.7776C14.2234 8.60984 14.5062 8.27679 14.5811 7.78584C14.673 7.17895 14.308 6.61152 13.7279 6.43636C13.7182 6.43389 13.7086 6.42896 13.6965 6.42402C13.7182 6.18225 13.74 5.94048 13.7593 5.70118C13.7811 5.47174 13.8004 5.23984 13.8222 5.0104C13.8318 4.90925 13.8367 4.80563 13.8512 4.70695C13.8536 4.68721 13.885 4.66254 13.9068 4.65761C14.221 4.5762 14.4192 4.30235 14.3998 3.97177C14.3805 3.62884 14.0905 3.35994 13.7472 3.36734C13.4113 3.37474 13.1309 3.66092 13.1285 3.9989C13.1237 4.28755 13.2808 4.52685 13.5491 4.63047C13.5877 4.64527 13.5998 4.66501 13.595 4.70448C13.5418 5.25217 13.4886 5.79739 13.4355 6.34508C13.4355 6.35495 13.4306 6.36728 13.4306 6.36728C13.2953 6.39195 13.1599 6.40182 13.0342 6.44376C12.6596 6.56465 12.4034 6.82122 12.2656 7.19621C12.2487 7.24309 12.227 7.25789 12.181 7.25049C12.0795 7.23815 12.0795 7.24062 12.0602 7.13701C11.9949 6.80889 11.7121 6.58685 11.3883 6.60905C11.0789 6.63126 10.8154 6.89277 10.7961 7.20115C10.7743 7.54654 10.9943 7.84012 11.3182 7.90426C11.5816 7.95607 11.862 7.82038 11.9901 7.57861C12.0505 7.46759 12.0626 7.46266 12.198 7.50213C12.1762 7.86972 12.2801 8.19537 12.5339 8.46182C12.7877 8.72826 13.1019 8.84915 13.4693 8.83434C13.4862 8.99964 13.4959 9.16493 13.52 9.32529C13.5346 9.4215 13.5152 9.47331 13.4282 9.53005C13.056 9.77429 13.0463 10.322 13.4016 10.5884C13.4451 10.623 13.4524 10.6452 13.433 10.697C13.3074 11.0128 13.1865 11.331 13.0632 11.6493C13.056 11.6665 13.0487 11.6813 13.0487 11.6838C12.9569 11.6838 12.8699 11.6739 12.7877 11.6863C12.5557 11.7208 12.3816 11.8935 12.3357 12.1279C12.3285 12.1698 12.3164 12.1969 12.2705 12.2093C11.8499 12.3178 11.4294 12.4264 11.0088 12.5349C10.9991 12.5374 10.9919 12.5374 10.9774 12.5399C10.7937 12.0317 10.4529 11.7085 9.91148 11.6665C9.37008 11.6246 8.98578 11.8836 8.72474 12.3598C7.83529 12.0563 6.94342 11.7529 6.04913 11.4494C6.10714 11.0646 6.02255 10.7192 5.77602 10.4207C5.58024 10.1838 5.32646 10.0407 5.02675 10.0062C4.38383 9.92725 3.85934 10.3368 3.70949 10.8968C3.54755 11.5037 3.85451 12.1303 4.42008 12.3598C4.98566 12.5892 5.68417 12.3622 5.97904 11.6961C6.86608 12.002 7.75553 12.3104 8.64498 12.6188C8.60148 12.8384 8.61114 13.0555 8.6764 13.2701C8.36945 13.4157 8.0649 13.5563 7.76036 13.6994C7.64677 13.5168 7.49449 13.4033 7.28663 13.3737C6.93859 13.3195 6.59779 13.5908 6.56395 13.9486C6.53012 14.3211 6.7984 14.6492 7.1537 14.6689C7.52833 14.6911 7.81837 14.4198 7.83771 14.0374C7.84012 14.0127 7.85463 13.9782 7.87396 13.9683C8.17608 13.8227 8.47821 13.6821 8.78033 13.539C8.78275 13.5366 8.79 13.539 8.78275 13.5489C8.89151 13.6574 8.99061 13.7783 9.11146 13.8721C9.32899 14.0448 9.58277 14.1188 9.85831 14.1065C9.91148 14.104 9.93565 14.1188 9.95016 14.1731C10.0227 14.4148 10.1 14.6566 10.1774 14.8984C10.1943 14.9502 10.1894 14.9773 10.1435 15.0094C9.92599 15.1624 9.84623 15.4461 9.94774 15.6854C10.0541 15.937 10.3103 16.0702 10.5713 16.016C10.8203 15.9641 10.9991 15.7347 11.0015 15.4707C11.0015 15.2043 10.8203 14.9699 10.5665 14.9255C10.4891 14.9107 10.4626 14.8762 10.4408 14.8071C10.3659 14.5555 10.2837 14.3063 10.2064 14.062C10.3393 13.9831 10.4722 13.9066 10.6052 13.8277C11.207 14.3334 11.8161 14.8466 12.4276 15.3597C12.1134 15.8457 12.1085 16.3367 12.4155 16.8301C11.8064 17.3432 11.1949 17.8589 10.5907 18.3671C10.4601 18.2931 10.332 18.2215 10.1991 18.145C10.2474 17.997 10.2982 17.8391 10.349 17.6812C10.3828 17.5751 10.4166 17.4691 10.4456 17.363C10.4577 17.3186 10.4771 17.2988 10.5254 17.2914C10.7695 17.2544 10.9532 17.0743 10.9919 16.835C11.033 16.5932 10.9194 16.3613 10.7018 16.2429C10.4577 16.1097 10.1459 16.1961 9.99124 16.4378C9.83656 16.6845 9.89215 17.0126 10.1242 17.1853C10.1798 17.2273 10.187 17.2569 10.1653 17.3235C10.0783 17.5801 9.99849 17.8391 9.91632 18.1006C9.445 18.0735 9.07521 18.261 8.79967 18.6582C8.73683 18.6286 8.67398 18.5965 8.61114 18.5669C8.36944 18.4534 8.12774 18.3375 7.88605 18.2264C7.84979 18.2092 7.83287 18.1894 7.83046 18.1475C7.8087 17.8712 7.6661 17.6738 7.41715 17.5801C7.17062 17.4863 6.93617 17.5357 6.74523 17.7306C6.55429 17.9255 6.50353 18.1648 6.59779 18.4213C6.68722 18.6631 6.86849 18.8087 7.12228 18.8383C7.37606 18.8679 7.57909 18.7667 7.72653 18.5546C7.76036 18.5052 7.78212 18.5003 7.83287 18.525C8.11324 18.6582 8.39361 18.7889 8.68124 18.9222C8.61114 19.1343 8.59906 19.3514 8.63773 19.571C7.74586 19.8794 6.85883 20.1878 5.96938 20.4937C5.64067 19.7708 4.83581 19.6154 4.30165 19.9065C3.76508 20.2001 3.52338 20.8613 3.74574 21.4386C3.96811 22.0158 4.5796 22.3341 5.16693 22.1762C5.73251 22.0257 6.15548 21.4608 6.0443 20.7576C6.93134 20.4493 7.82079 20.1409 8.71266 19.8325C8.96886 20.3185 9.35558 20.585 9.90182 20.5455C10.4456 20.506 10.7864 20.1853 10.975 19.6697C11.033 19.6845 11.091 19.6993 11.149 19.7141C11.5188 19.8103 11.8862 19.9065 12.256 20.0003C12.2946 20.0101 12.3212 20.0225 12.3309 20.0718C12.3986 20.4073 12.6814 20.5899 13.0101 20.5159C13.0197 20.5134 13.0318 20.5109 13.0487 20.5085C13.0995 20.6417 13.1502 20.7749 13.201 20.9081C13.2808 21.1154 13.3605 21.3226 13.4427 21.5274C13.4572 21.5644 13.4572 21.5841 13.421 21.6112C13.0173 21.9098 13.0536 22.4772 13.4886 22.7288C13.5055 22.7387 13.5273 22.7658 13.5249 22.7831C13.508 22.9755 13.4886 23.168 13.4693 23.3604C13.4693 23.3678 13.4645 23.3727 13.4596 23.3826C13.0971 23.3678 12.7829 23.4887 12.5315 23.7576C12.2777 24.0265 12.1738 24.3497 12.198 24.7247C12.1641 24.7296 12.1351 24.7296 12.1061 24.737C12.0529 24.7494 12.0288 24.7296 12.0046 24.6803C11.8692 24.3867 11.5478 24.2436 11.2432 24.3374C10.946 24.4286 10.7526 24.7395 10.7961 25.0503C10.842 25.3735 11.1103 25.6128 11.4269 25.6153C11.746 25.6178 12.0191 25.3834 12.0602 25.0577C12.0723 24.9689 12.123 24.9862 12.1738 24.9739C12.2294 24.9615 12.2463 24.9837 12.268 25.0355C12.4687 25.5339 12.8336 25.8028 13.3629 25.8398C13.3799 25.8324 13.4016 25.8349 13.4282 25.8349Z"/>
<path d="M9.07037 11.4889C9.42809 11.4864 9.70604 11.1953 9.70121 10.8302C9.69637 10.47 9.41117 10.1863 9.05829 10.1888C8.70299 10.1912 8.42262 10.4873 8.42745 10.8573C8.43229 11.2052 8.72233 11.4914 9.07037 11.4889Z"/>
<path d="M9.06553 20.7354C8.71023 20.7354 8.42745 21.0266 8.42745 21.3892C8.42745 21.7469 8.71265 22.0381 9.06553 22.0381C9.41841 22.0381 9.7012 21.7494 9.70362 21.3892C9.70362 21.0241 9.42083 20.733 9.06553 20.7354Z"/>
<path d="M6.78389 9.61393C6.78389 9.92478 7.02559 10.174 7.33013 10.174C7.63226 10.174 7.87637 9.92725 7.87879 9.6164C7.87879 9.30802 7.63467 9.05638 7.33255 9.05638C7.02801 9.05391 6.78389 9.30555 6.78389 9.61393Z"/>
<path d="M6.78389 22.6079C6.78389 22.9163 7.02801 23.168 7.33013 23.168C7.63226 23.168 7.87637 22.9188 7.87637 22.6104C7.87637 22.2996 7.63226 22.0529 7.33013 22.0504C7.02801 22.0504 6.78389 22.2971 6.78389 22.6079Z"/>
<path d="M14.3998 18.219C14.6391 18.219 14.8325 18.0217 14.8301 17.775C14.8301 17.5307 14.6343 17.3334 14.395 17.3334C14.1557 17.3358 13.9648 17.5332 13.9648 17.7774C13.9648 18.0241 14.1581 18.219 14.3998 18.219Z"/>
</mask>
<path d="M13.4282 25.8349C13.4475 26.0322 13.4669 26.2222 13.4838 26.4146C13.5176 26.7748 13.5515 27.1325 13.5901 27.4927C13.595 27.547 13.5853 27.5717 13.5321 27.5914C13.2348 27.7098 13.0777 28.0133 13.1382 28.334C13.1962 28.6325 13.462 28.8521 13.7666 28.8496C14.076 28.8471 14.3346 28.6251 14.3926 28.3118C14.453 27.9787 14.2403 27.6407 13.9164 27.5667C13.8657 27.5544 13.8512 27.5347 13.8463 27.4829C13.8149 27.098 13.7787 26.7156 13.7448 26.3307C13.7279 26.1531 13.7134 25.9755 13.6989 25.7954C14.2621 25.5956 14.5932 25.2033 14.5884 24.589C14.5835 23.992 14.2548 23.6071 13.7037 23.4097C13.7207 23.2198 13.74 23.0298 13.7569 22.8398C13.7617 22.7905 13.7908 22.7954 13.8222 22.793C14.3056 22.7535 14.5763 22.2181 14.3225 21.7987C14.1944 21.5915 14.0059 21.483 13.7642 21.4928C13.711 21.4953 13.6917 21.478 13.6747 21.4287C13.5515 21.0808 13.4258 20.7354 13.3025 20.3901C13.2929 20.3654 13.2977 20.3259 13.3122 20.3062C13.4935 20.0348 13.4355 19.6845 13.1744 19.5068C12.9134 19.3292 12.575 19.4057 12.4034 19.6869C12.3792 19.7264 12.3551 19.7313 12.3164 19.7215C11.8982 19.6228 11.4777 19.5241 11.0596 19.423C11.0426 19.418 11.0185 19.3934 11.0185 19.3786C11.0233 19.0924 10.9484 18.8333 10.784 18.599C10.7816 18.5965 10.7816 18.5916 10.7816 18.5817C10.9435 18.446 11.1103 18.3079 11.2747 18.1697C11.7025 17.812 12.1327 17.4543 12.5605 17.0941C12.604 17.0571 12.633 17.0571 12.6789 17.0916C12.94 17.2939 13.2397 17.3728 13.5563 17.3235C14.1726 17.2298 14.5304 16.7339 14.5884 16.2454C14.6609 15.604 14.221 15.0069 13.6095 14.8984C13.2445 14.8342 12.9206 14.9255 12.6258 15.1574C12.0143 14.6443 11.4028 14.1287 10.7864 13.613C10.8952 13.4551 10.9725 13.28 10.9991 13.0876C11.0112 13.0061 11.0136 12.9247 11.016 12.8433C11.016 12.8038 11.0233 12.7866 11.062 12.7767C11.4801 12.6731 11.9007 12.5695 12.3188 12.4659C12.3599 12.456 12.372 12.4782 12.3889 12.5078C12.5194 12.7397 12.7563 12.8458 13.0076 12.7866C13.375 12.6978 13.5418 12.2364 13.317 11.9206C13.2832 11.8738 13.2856 11.8417 13.3025 11.7923C13.4258 11.4593 13.5466 11.1262 13.6651 10.7907C13.6844 10.7389 13.7037 10.7167 13.7617 10.7192C14.105 10.7315 14.395 10.4601 14.4143 10.1172C14.4337 9.74962 14.1823 9.44864 13.827 9.4215C13.7714 9.41657 13.7569 9.3993 13.7521 9.34503C13.74 9.1822 13.7255 9.01937 13.7086 8.85655C13.7037 8.8072 13.7207 8.7924 13.7642 8.7776C14.2234 8.60984 14.5062 8.27679 14.5811 7.78584C14.673 7.17895 14.308 6.61152 13.7279 6.43636C13.7182 6.43389 13.7086 6.42896 13.6965 6.42402C13.7182 6.18225 13.74 5.94048 13.7593 5.70118C13.7811 5.47174 13.8004 5.23984 13.8222 5.0104C13.8318 4.90925 13.8367 4.80563 13.8512 4.70695C13.8536 4.68721 13.885 4.66254 13.9068 4.65761C14.221 4.5762 14.4192 4.30235 14.3998 3.97177C14.3805 3.62884 14.0905 3.35994 13.7472 3.36734C13.4113 3.37474 13.1309 3.66092 13.1285 3.9989C13.1237 4.28755 13.2808 4.52685 13.5491 4.63047C13.5877 4.64527 13.5998 4.66501 13.595 4.70448C13.5418 5.25217 13.4886 5.79739 13.4355 6.34508C13.4355 6.35495 13.4306 6.36728 13.4306 6.36728C13.2953 6.39195 13.1599 6.40182 13.0342 6.44376C12.6596 6.56465 12.4034 6.82122 12.2656 7.19621C12.2487 7.24309 12.227 7.25789 12.181 7.25049C12.0795 7.23815 12.0795 7.24062 12.0602 7.13701C11.9949 6.80889 11.7121 6.58685 11.3883 6.60905C11.0789 6.63126 10.8154 6.89277 10.7961 7.20115C10.7743 7.54654 10.9943 7.84012 11.3182 7.90426C11.5816 7.95607 11.862 7.82038 11.9901 7.57861C12.0505 7.46759 12.0626 7.46266 12.198 7.50213C12.1762 7.86972 12.2801 8.19537 12.5339 8.46182C12.7877 8.72826 13.1019 8.84915 13.4693 8.83434C13.4862 8.99964 13.4959 9.16493 13.52 9.32529C13.5346 9.4215 13.5152 9.47331 13.4282 9.53005C13.056 9.77429 13.0463 10.322 13.4016 10.5884C13.4451 10.623 13.4524 10.6452 13.433 10.697C13.3074 11.0128 13.1865 11.331 13.0632 11.6493C13.056 11.6665 13.0487 11.6813 13.0487 11.6838C12.9569 11.6838 12.8699 11.6739 12.7877 11.6863C12.5557 11.7208 12.3816 11.8935 12.3357 12.1279C12.3285 12.1698 12.3164 12.1969 12.2705 12.2093C11.8499 12.3178 11.4294 12.4264 11.0088 12.5349C10.9991 12.5374 10.9919 12.5374 10.9774 12.5399C10.7937 12.0317 10.4529 11.7085 9.91148 11.6665C9.37008 11.6246 8.98578 11.8836 8.72474 12.3598C7.83529 12.0563 6.94342 11.7529 6.04913 11.4494C6.10714 11.0646 6.02255 10.7192 5.77602 10.4207C5.58024 10.1838 5.32646 10.0407 5.02675 10.0062C4.38383 9.92725 3.85934 10.3368 3.70949 10.8968C3.54755 11.5037 3.85451 12.1303 4.42008 12.3598C4.98566 12.5892 5.68417 12.3622 5.97904 11.6961C6.86608 12.002 7.75553 12.3104 8.64498 12.6188C8.60148 12.8384 8.61114 13.0555 8.6764 13.2701C8.36945 13.4157 8.0649 13.5563 7.76036 13.6994C7.64677 13.5168 7.49449 13.4033 7.28663 13.3737C6.93859 13.3195 6.59779 13.5908 6.56395 13.9486C6.53012 14.3211 6.7984 14.6492 7.1537 14.6689C7.52833 14.6911 7.81837 14.4198 7.83771 14.0374C7.84012 14.0127 7.85463 13.9782 7.87396 13.9683C8.17608 13.8227 8.47821 13.6821 8.78033 13.539C8.78275 13.5366 8.79 13.539 8.78275 13.5489C8.89151 13.6574 8.99061 13.7783 9.11146 13.8721C9.32899 14.0448 9.58277 14.1188 9.85831 14.1065C9.91148 14.104 9.93565 14.1188 9.95016 14.1731C10.0227 14.4148 10.1 14.6566 10.1774 14.8984C10.1943 14.9502 10.1894 14.9773 10.1435 15.0094C9.92599 15.1624 9.84623 15.4461 9.94774 15.6854C10.0541 15.937 10.3103 16.0702 10.5713 16.016C10.8203 15.9641 10.9991 15.7347 11.0015 15.4707C11.0015 15.2043 10.8203 14.9699 10.5665 14.9255C10.4891 14.9107 10.4626 14.8762 10.4408 14.8071C10.3659 14.5555 10.2837 14.3063 10.2064 14.062C10.3393 13.9831 10.4722 13.9066 10.6052 13.8277C11.207 14.3334 11.8161 14.8466 12.4276 15.3597C12.1134 15.8457 12.1085 16.3367 12.4155 16.8301C11.8064 17.3432 11.1949 17.8589 10.5907 18.3671C10.4601 18.2931 10.332 18.2215 10.1991 18.145C10.2474 17.997 10.2982 17.8391 10.349 17.6812C10.3828 17.5751 10.4166 17.4691 10.4456 17.363C10.4577 17.3186 10.4771 17.2988 10.5254 17.2914C10.7695 17.2544 10.9532 17.0743 10.9919 16.835C11.033 16.5932 10.9194 16.3613 10.7018 16.2429C10.4577 16.1097 10.1459 16.1961 9.99124 16.4378C9.83656 16.6845 9.89215 17.0126 10.1242 17.1853C10.1798 17.2273 10.187 17.2569 10.1653 17.3235C10.0783 17.5801 9.99849 17.8391 9.91632 18.1006C9.445 18.0735 9.07521 18.261 8.79967 18.6582C8.73683 18.6286 8.67398 18.5965 8.61114 18.5669C8.36944 18.4534 8.12774 18.3375 7.88605 18.2264C7.84979 18.2092 7.83287 18.1894 7.83046 18.1475C7.8087 17.8712 7.6661 17.6738 7.41715 17.5801C7.17062 17.4863 6.93617 17.5357 6.74523 17.7306C6.55429 17.9255 6.50353 18.1648 6.59779 18.4213C6.68722 18.6631 6.86849 18.8087 7.12228 18.8383C7.37606 18.8679 7.57909 18.7667 7.72653 18.5546C7.76036 18.5052 7.78212 18.5003 7.83287 18.525C8.11324 18.6582 8.39361 18.7889 8.68124 18.9222C8.61114 19.1343 8.59906 19.3514 8.63773 19.571C7.74586 19.8794 6.85883 20.1878 5.96938 20.4937C5.64067 19.7708 4.83581 19.6154 4.30165 19.9065C3.76508 20.2001 3.52338 20.8613 3.74574 21.4386C3.96811 22.0158 4.5796 22.3341 5.16693 22.1762C5.73251 22.0257 6.15548 21.4608 6.0443 20.7576C6.93134 20.4493 7.82079 20.1409 8.71266 19.8325C8.96886 20.3185 9.35558 20.585 9.90182 20.5455C10.4456 20.506 10.7864 20.1853 10.975 19.6697C11.033 19.6845 11.091 19.6993 11.149 19.7141C11.5188 19.8103 11.8862 19.9065 12.256 20.0003C12.2946 20.0101 12.3212 20.0225 12.3309 20.0718C12.3986 20.4073 12.6814 20.5899 13.0101 20.5159C13.0197 20.5134 13.0318 20.5109 13.0487 20.5085C13.0995 20.6417 13.1502 20.7749 13.201 20.9081C13.2808 21.1154 13.3605 21.3226 13.4427 21.5274C13.4572 21.5644 13.4572 21.5841 13.421 21.6112C13.0173 21.9098 13.0536 22.4772 13.4886 22.7288C13.5055 22.7387 13.5273 22.7658 13.5249 22.7831C13.508 22.9755 13.4886 23.168 13.4693 23.3604C13.4693 23.3678 13.4645 23.3727 13.4596 23.3826C13.0971 23.3678 12.7829 23.4887 12.5315 23.7576C12.2777 24.0265 12.1738 24.3497 12.198 24.7247C12.1641 24.7296 12.1351 24.7296 12.1061 24.737C12.0529 24.7494 12.0288 24.7296 12.0046 24.6803C11.8692 24.3867 11.5478 24.2436 11.2432 24.3374C10.946 24.4286 10.7526 24.7395 10.7961 25.0503C10.842 25.3735 11.1103 25.6128 11.4269 25.6153C11.746 25.6178 12.0191 25.3834 12.0602 25.0577C12.0723 24.9689 12.123 24.9862 12.1738 24.9739C12.2294 24.9615 12.2463 24.9837 12.268 25.0355C12.4687 25.5339 12.8336 25.8028 13.3629 25.8398C13.3799 25.8324 13.4016 25.8349 13.4282 25.8349Z" fill="url(#paint0_linear_1967_911)"/>
<path d="M9.07037 11.4889C9.42809 11.4864 9.70604 11.1953 9.70121 10.8302C9.69637 10.47 9.41117 10.1863 9.05829 10.1888C8.70299 10.1912 8.42262 10.4873 8.42745 10.8573C8.43229 11.2052 8.72233 11.4914 9.07037 11.4889Z" fill="url(#paint1_linear_1967_911)"/>
<path d="M9.06553 20.7354C8.71023 20.7354 8.42745 21.0266 8.42745 21.3892C8.42745 21.7469 8.71265 22.0381 9.06553 22.0381C9.41841 22.0381 9.7012 21.7494 9.70362 21.3892C9.70362 21.0241 9.42083 20.733 9.06553 20.7354Z" fill="url(#paint2_linear_1967_911)"/>
<path d="M6.78389 9.61393C6.78389 9.92478 7.02559 10.174 7.33013 10.174C7.63226 10.174 7.87637 9.92725 7.87879 9.6164C7.87879 9.30802 7.63467 9.05638 7.33255 9.05638C7.02801 9.05391 6.78389 9.30555 6.78389 9.61393Z" fill="url(#paint3_linear_1967_911)"/>
<path d="M6.78389 22.6079C6.78389 22.9163 7.02801 23.168 7.33013 23.168C7.63226 23.168 7.87637 22.9188 7.87637 22.6104C7.87637 22.2996 7.63226 22.0529 7.33013 22.0504C7.02801 22.0504 6.78389 22.2971 6.78389 22.6079Z" fill="url(#paint4_linear_1967_911)"/>
<path d="M14.3998 18.219C14.6391 18.219 14.8325 18.0217 14.8301 17.775C14.8301 17.5307 14.6343 17.3334 14.395 17.3334C14.1557 17.3358 13.9648 17.5332 13.9648 17.7774C13.9648 18.0241 14.1581 18.219 14.3998 18.219Z" fill="url(#paint5_linear_1967_911)"/>
<path d="M13.4282 25.8349C13.4475 26.0322 13.4669 26.2222 13.4838 26.4146C13.5176 26.7748 13.5515 27.1325 13.5901 27.4927C13.595 27.547 13.5853 27.5717 13.5321 27.5914C13.2348 27.7098 13.0777 28.0133 13.1382 28.334C13.1962 28.6325 13.462 28.8521 13.7666 28.8496C14.076 28.8471 14.3346 28.6251 14.3926 28.3118C14.453 27.9787 14.2403 27.6407 13.9164 27.5667C13.8657 27.5544 13.8512 27.5347 13.8463 27.4829C13.8149 27.098 13.7787 26.7156 13.7448 26.3307C13.7279 26.1531 13.7134 25.9755 13.6989 25.7954C14.2621 25.5956 14.5932 25.2033 14.5884 24.589C14.5835 23.992 14.2548 23.6071 13.7037 23.4097C13.7207 23.2198 13.74 23.0298 13.7569 22.8398C13.7617 22.7905 13.7908 22.7954 13.8222 22.793C14.3056 22.7535 14.5763 22.2181 14.3225 21.7987C14.1944 21.5915 14.0059 21.483 13.7642 21.4928C13.711 21.4953 13.6917 21.478 13.6747 21.4287C13.5515 21.0808 13.4258 20.7354 13.3025 20.3901C13.2929 20.3654 13.2977 20.3259 13.3122 20.3062C13.4935 20.0348 13.4355 19.6845 13.1744 19.5068C12.9134 19.3292 12.575 19.4057 12.4034 19.6869C12.3792 19.7264 12.3551 19.7313 12.3164 19.7215C11.8982 19.6228 11.4777 19.5241 11.0596 19.423C11.0426 19.418 11.0185 19.3934 11.0185 19.3786C11.0233 19.0924 10.9484 18.8333 10.784 18.599C10.7816 18.5965 10.7816 18.5916 10.7816 18.5817C10.9435 18.446 11.1103 18.3079 11.2747 18.1697C11.7025 17.812 12.1327 17.4543 12.5605 17.0941C12.604 17.0571 12.633 17.0571 12.6789 17.0916C12.94 17.2939 13.2397 17.3728 13.5563 17.3235C14.1726 17.2298 14.5304 16.7339 14.5884 16.2454C14.6609 15.604 14.221 15.0069 13.6095 14.8984C13.2445 14.8342 12.9206 14.9255 12.6258 15.1574C12.0143 14.6443 11.4028 14.1287 10.7864 13.613C10.8952 13.4551 10.9725 13.28 10.9991 13.0876C11.0112 13.0061 11.0136 12.9247 11.016 12.8433C11.016 12.8038 11.0233 12.7866 11.062 12.7767C11.4801 12.6731 11.9007 12.5695 12.3188 12.4659C12.3599 12.456 12.372 12.4782 12.3889 12.5078C12.5194 12.7397 12.7563 12.8458 13.0076 12.7866C13.375 12.6978 13.5418 12.2364 13.317 11.9206C13.2832 11.8738 13.2856 11.8417 13.3025 11.7923C13.4258 11.4593 13.5466 11.1262 13.6651 10.7907C13.6844 10.7389 13.7037 10.7167 13.7617 10.7192C14.105 10.7315 14.395 10.4601 14.4143 10.1172C14.4337 9.74962 14.1823 9.44864 13.827 9.4215C13.7714 9.41657 13.7569 9.3993 13.7521 9.34503C13.74 9.1822 13.7255 9.01937 13.7086 8.85655C13.7037 8.8072 13.7207 8.7924 13.7642 8.7776C14.2234 8.60984 14.5062 8.27679 14.5811 7.78584C14.673 7.17895 14.308 6.61152 13.7279 6.43636C13.7182 6.43389 13.7086 6.42896 13.6965 6.42402C13.7182 6.18225 13.74 5.94048 13.7593 5.70118C13.7811 5.47174 13.8004 5.23984 13.8222 5.0104C13.8318 4.90925 13.8367 4.80563 13.8512 4.70695C13.8536 4.68721 13.885 4.66254 13.9068 4.65761C14.221 4.5762 14.4192 4.30235 14.3998 3.97177C14.3805 3.62884 14.0905 3.35994 13.7472 3.36734C13.4113 3.37474 13.1309 3.66092 13.1285 3.9989C13.1237 4.28755 13.2808 4.52685 13.5491 4.63047C13.5877 4.64527 13.5998 4.66501 13.595 4.70448C13.5418 5.25217 13.4886 5.79739 13.4355 6.34508C13.4355 6.35495 13.4306 6.36728 13.4306 6.36728C13.2953 6.39195 13.1599 6.40182 13.0342 6.44376C12.6596 6.56465 12.4034 6.82122 12.2656 7.19621C12.2487 7.24309 12.227 7.25789 12.181 7.25049C12.0795 7.23815 12.0795 7.24062 12.0602 7.13701C11.9949 6.80889 11.7121 6.58685 11.3883 6.60905C11.0789 6.63126 10.8154 6.89277 10.7961 7.20115C10.7743 7.54654 10.9943 7.84012 11.3182 7.90426C11.5816 7.95607 11.862 7.82038 11.9901 7.57861C12.0505 7.46759 12.0626 7.46266 12.198 7.50213C12.1762 7.86972 12.2801 8.19537 12.5339 8.46182C12.7877 8.72826 13.1019 8.84915 13.4693 8.83434C13.4862 8.99964 13.4959 9.16493 13.52 9.32529C13.5346 9.4215 13.5152 9.47331 13.4282 9.53005C13.056 9.77429 13.0463 10.322 13.4016 10.5884C13.4451 10.623 13.4524 10.6452 13.433 10.697C13.3074 11.0128 13.1865 11.331 13.0632 11.6493C13.056 11.6665 13.0487 11.6813 13.0487 11.6838C12.9569 11.6838 12.8699 11.6739 12.7877 11.6863C12.5557 11.7208 12.3816 11.8935 12.3357 12.1279C12.3285 12.1698 12.3164 12.1969 12.2705 12.2093C11.8499 12.3178 11.4294 12.4264 11.0088 12.5349C10.9991 12.5374 10.9919 12.5374 10.9774 12.5399C10.7937 12.0317 10.4529 11.7085 9.91148 11.6665C9.37008 11.6246 8.98578 11.8836 8.72474 12.3598C7.83529 12.0563 6.94342 11.7529 6.04913 11.4494C6.10714 11.0646 6.02255 10.7192 5.77602 10.4207C5.58024 10.1838 5.32646 10.0407 5.02675 10.0062C4.38383 9.92725 3.85934 10.3368 3.70949 10.8968C3.54755 11.5037 3.85451 12.1303 4.42008 12.3598C4.98566 12.5892 5.68417 12.3622 5.97904 11.6961C6.86608 12.002 7.75553 12.3104 8.64498 12.6188C8.60148 12.8384 8.61114 13.0555 8.6764 13.2701C8.36945 13.4157 8.0649 13.5563 7.76036 13.6994C7.64677 13.5168 7.49449 13.4033 7.28663 13.3737C6.93859 13.3195 6.59779 13.5908 6.56395 13.9486C6.53012 14.3211 6.7984 14.6492 7.1537 14.6689C7.52833 14.6911 7.81837 14.4198 7.83771 14.0374C7.84012 14.0127 7.85463 13.9782 7.87396 13.9683C8.17608 13.8227 8.47821 13.6821 8.78033 13.539C8.78275 13.5366 8.79 13.539 8.78275 13.5489C8.89151 13.6574 8.99061 13.7783 9.11146 13.8721C9.32899 14.0448 9.58277 14.1188 9.85831 14.1065C9.91148 14.104 9.93565 14.1188 9.95016 14.1731C10.0227 14.4148 10.1 14.6566 10.1774 14.8984C10.1943 14.9502 10.1894 14.9773 10.1435 15.0094C9.92599 15.1624 9.84623 15.4461 9.94774 15.6854C10.0541 15.937 10.3103 16.0702 10.5713 16.016C10.8203 15.9641 10.9991 15.7347 11.0015 15.4707C11.0015 15.2043 10.8203 14.9699 10.5665 14.9255C10.4891 14.9107 10.4626 14.8762 10.4408 14.8071C10.3659 14.5555 10.2837 14.3063 10.2064 14.062C10.3393 13.9831 10.4722 13.9066 10.6052 13.8277C11.207 14.3334 11.8161 14.8466 12.4276 15.3597C12.1134 15.8457 12.1085 16.3367 12.4155 16.8301C11.8064 17.3432 11.1949 17.8589 10.5907 18.3671C10.4601 18.2931 10.332 18.2215 10.1991 18.145C10.2474 17.997 10.2982 17.8391 10.349 17.6812C10.3828 17.5751 10.4166 17.4691 10.4456 17.363C10.4577 17.3186 10.4771 17.2988 10.5254 17.2914C10.7695 17.2544 10.9532 17.0743 10.9919 16.835C11.033 16.5932 10.9194 16.3613 10.7018 16.2429C10.4577 16.1097 10.1459 16.1961 9.99124 16.4378C9.83656 16.6845 9.89215 17.0126 10.1242 17.1853C10.1798 17.2273 10.187 17.2569 10.1653 17.3235C10.0783 17.5801 9.99849 17.8391 9.91632 18.1006C9.445 18.0735 9.07521 18.261 8.79967 18.6582C8.73683 18.6286 8.67398 18.5965 8.61114 18.5669C8.36944 18.4534 8.12774 18.3375 7.88605 18.2264C7.84979 18.2092 7.83287 18.1894 7.83046 18.1475C7.8087 17.8712 7.6661 17.6738 7.41715 17.5801C7.17062 17.4863 6.93617 17.5357 6.74523 17.7306C6.55429 17.9255 6.50353 18.1648 6.59779 18.4213C6.68722 18.6631 6.86849 18.8087 7.12228 18.8383C7.37606 18.8679 7.57909 18.7667 7.72653 18.5546C7.76036 18.5052 7.78212 18.5003 7.83287 18.525C8.11324 18.6582 8.39361 18.7889 8.68124 18.9222C8.61114 19.1343 8.59906 19.3514 8.63773 19.571C7.74586 19.8794 6.85883 20.1878 5.96938 20.4937C5.64067 19.7708 4.83581 19.6154 4.30165 19.9065C3.76508 20.2001 3.52338 20.8613 3.74574 21.4386C3.96811 22.0158 4.5796 22.3341 5.16693 22.1762C5.73251 22.0257 6.15548 21.4608 6.0443 20.7576C6.93134 20.4493 7.82079 20.1409 8.71266 19.8325C8.96886 20.3185 9.35558 20.585 9.90182 20.5455C10.4456 20.506 10.7864 20.1853 10.975 19.6697C11.033 19.6845 11.091 19.6993 11.149 19.7141C11.5188 19.8103 11.8862 19.9065 12.256 20.0003C12.2946 20.0101 12.3212 20.0225 12.3309 20.0718C12.3986 20.4073 12.6814 20.5899 13.0101 20.5159C13.0197 20.5134 13.0318 20.5109 13.0487 20.5085C13.0995 20.6417 13.1502 20.7749 13.201 20.9081C13.2808 21.1154 13.3605 21.3226 13.4427 21.5274C13.4572 21.5644 13.4572 21.5841 13.421 21.6112C13.0173 21.9098 13.0536 22.4772 13.4886 22.7288C13.5055 22.7387 13.5273 22.7658 13.5249 22.7831C13.508 22.9755 13.4886 23.168 13.4693 23.3604C13.4693 23.3678 13.4645 23.3727 13.4596 23.3826C13.0971 23.3678 12.7829 23.4887 12.5315 23.7576C12.2777 24.0265 12.1738 24.3497 12.198 24.7247C12.1641 24.7296 12.1351 24.7296 12.1061 24.737C12.0529 24.7494 12.0288 24.7296 12.0046 24.6803C11.8692 24.3867 11.5478 24.2436 11.2432 24.3374C10.946 24.4286 10.7526 24.7395 10.7961 25.0503C10.842 25.3735 11.1103 25.6128 11.4269 25.6153C11.746 25.6178 12.0191 25.3834 12.0602 25.0577C12.0723 24.9689 12.123 24.9862 12.1738 24.9739C12.2294 24.9615 12.2463 24.9837 12.268 25.0355C12.4687 25.5339 12.8336 25.8028 13.3629 25.8398C13.3799 25.8324 13.4016 25.8349 13.4282 25.8349Z" stroke="#003320" stroke-width="0.110016" mask="url(#path-1-inside-1_1967_911)"/>
<path d="M9.07037 11.4889C9.42809 11.4864 9.70604 11.1953 9.70121 10.8302C9.69637 10.47 9.41117 10.1863 9.05829 10.1888C8.70299 10.1912 8.42262 10.4873 8.42745 10.8573C8.43229 11.2052 8.72233 11.4914 9.07037 11.4889Z" stroke="#003320" stroke-width="0.110016" mask="url(#path-1-inside-1_1967_911)"/>
<path d="M9.06553 20.7354C8.71023 20.7354 8.42745 21.0266 8.42745 21.3892C8.42745 21.7469 8.71265 22.0381 9.06553 22.0381C9.41841 22.0381 9.7012 21.7494 9.70362 21.3892C9.70362 21.0241 9.42083 20.733 9.06553 20.7354Z" stroke="#003320" stroke-width="0.110016" mask="url(#path-1-inside-1_1967_911)"/>
<path d="M6.78389 9.61393C6.78389 9.92478 7.02559 10.174 7.33013 10.174C7.63226 10.174 7.87637 9.92725 7.87879 9.6164C7.87879 9.30802 7.63467 9.05638 7.33255 9.05638C7.02801 9.05391 6.78389 9.30555 6.78389 9.61393Z" stroke="#003320" stroke-width="0.110016" mask="url(#path-1-inside-1_1967_911)"/>
<path d="M6.78389 22.6079C6.78389 22.9163 7.02801 23.168 7.33013 23.168C7.63226 23.168 7.87637 22.9188 7.87637 22.6104C7.87637 22.2996 7.63226 22.0529 7.33013 22.0504C7.02801 22.0504 6.78389 22.2971 6.78389 22.6079Z" stroke="#003320" stroke-width="0.110016" mask="url(#path-1-inside-1_1967_911)"/>
<path d="M14.3998 18.219C14.6391 18.219 14.8325 18.0217 14.8301 17.775C14.8301 17.5307 14.6343 17.3334 14.395 17.3334C14.1557 17.3358 13.9648 17.5332 13.9648 17.7774C13.9648 18.0241 14.1581 18.219 14.3998 18.219Z" stroke="#003320" stroke-width="0.110016" mask="url(#path-1-inside-1_1967_911)"/>
<path d="M16.8001 18.4373C16.8217 18.4373 16.1522 18.3967 16.1738 18.3967C17.5573 18.3845 18.5157 17.2185 18.5037 15.9866C18.4917 14.6617 17.4589 13.5984 16.169 13.5984C16.1378 13.5984 16.1066 13.5984 16.0777 13.6009C16.0777 13.5642 16.0753 13.5275 16.0753 13.4909C16.0753 13.486 16.0753 13.4787 16.0753 13.4738C16.097 13.4738 16.1186 13.4738 16.1402 13.4738C17.5141 13.4713 18.6454 14.6153 18.6454 16.0012C18.6454 17.3896 17.5237 18.5238 16.1546 18.5238C16.1402 18.5238 16.0753 18.7047 16.1138 18.5238C16.1378 18.4847 16.8337 18.4715 16.8001 18.4373Z" fill="url(#paint6_linear_1967_911)"/>
<path d="M18.5489 15.9939C18.5489 15.9817 18.5489 15.967 18.5489 15.9523C18.6954 15.9474 18.8443 15.9377 18.9908 15.9401C19.942 15.9621 20.8884 15.8937 21.8299 15.7886C23.1798 15.6395 24.3472 15.1017 25.3464 14.1924C26.0838 13.5202 26.5978 12.7209 26.8116 11.7456C26.91 11.2983 26.9581 10.8534 26.7899 10.411C26.5497 9.77547 26.1726 9.25238 25.5145 8.98594C24.7555 8.67796 23.9677 8.54107 23.151 8.66818C21.4841 8.92728 20.1246 9.71192 19.1109 11.0514C18.5537 11.7872 18.0325 12.5449 17.5857 13.354C17.5161 13.4787 17.4392 13.5984 17.3647 13.7182C17.3455 13.75 17.3167 13.7744 17.2927 13.8038L17.2711 13.7891L17.1942 13.7011C17.2566 13.5495 17.3383 13.3833 17.4224 13.2464C17.8956 12.4789 18.2871 11.6674 18.657 10.8485C19.2406 9.55303 19.3535 8.21598 19.0101 6.83492C18.7699 5.8694 18.2871 5.05544 17.5281 4.39791C17.1341 4.05814 16.5991 3.82192 16.1662 3.80393C16.1285 3.80236 16.2238 3.73793 16.2214 3.69393C16.6562 3.74038 17.0549 3.89926 17.4152 4.1828C18.0133 4.65456 18.4984 5.21921 18.7987 5.92318C19.1926 6.8447 19.3655 7.80288 19.2935 8.80506C19.243 9.49926 19.0965 10.169 18.8035 10.8045C18.6137 11.2152 18.412 11.621 18.2174 12.0267C18.1886 12.0878 18.1598 12.1514 18.1309 12.2125C18.1814 12.1758 18.2126 12.1318 18.2438 12.0854C18.4864 11.7383 18.7194 11.3863 18.9692 11.0465C19.7739 9.94413 20.8475 9.20594 22.1542 8.79529C22.9276 8.55329 23.7131 8.4433 24.5201 8.59729C24.9765 8.68285 25.4256 8.7904 25.8244 9.03239C26.6146 9.51148 27.0325 10.2155 26.9893 11.137C26.9461 12.0536 26.6218 12.8847 26.0333 13.596C24.8732 15.0039 23.3768 15.7959 21.5393 15.9352C21.0181 15.9743 20.4969 16.011 20.0093 16.0452C20.3696 16.0697 20.7635 16.0917 21.1574 16.121C21.6066 16.1552 22.0581 16.1821 22.5001 16.2848C24.0013 16.6343 25.2215 17.4189 26.1486 18.6338C26.6602 19.306 26.9365 20.0784 26.9941 20.9168C27.0445 21.6281 26.7683 22.2245 26.2711 22.7256C26.0141 22.9847 25.6971 23.1509 25.356 23.2683C24.4745 23.5787 23.5785 23.6423 22.6634 23.4247C21.1502 23.0654 19.9084 22.2979 18.9836 21.0512C18.7963 20.797 18.6185 20.5355 18.436 20.2788C18.412 20.2446 18.3856 20.2153 18.3615 20.1835C18.3663 20.2446 18.388 20.2959 18.412 20.3448C18.5273 20.5868 18.6426 20.8312 18.7603 21.0732C19.1229 21.8334 19.2935 22.6376 19.3151 23.4736C19.3391 24.3169 19.1782 25.1284 18.8731 25.913C18.5777 26.6708 18.0805 27.2819 17.4488 27.7903C17.0645 28.1007 16.8893 28.1769 16.3897 28.2063C16.5635 28.1961 16.1445 28.2596 16.1373 28.2254C16.1349 28.2156 16.6801 28.1862 16.6729 28.1789C17.0981 28.1544 16.9492 28.0519 17.3071 27.7781C17.9076 27.3161 18.4048 26.7661 18.7026 26.067C19.3463 24.5613 19.3992 23.0312 18.8059 21.501C18.4504 20.5819 17.9988 19.702 17.492 18.8538C17.3935 18.6876 17.3047 18.5165 17.211 18.3478C17.2062 18.3356 17.211 18.3209 17.211 18.3111C17.247 18.3014 17.2759 18.294 17.3191 18.2818C17.4128 18.4382 17.5112 18.5922 17.6001 18.7511C18.0469 19.5529 18.5681 20.3082 19.1205 21.039C19.9564 22.1463 21.0541 22.8772 22.3968 23.2585C23.3864 23.5396 24.3592 23.5225 25.3272 23.1778C25.7619 23.0238 26.1342 22.7843 26.4056 22.4054C26.7659 21.9043 26.9773 21.3617 26.8884 20.7384C26.7803 20.0002 26.5449 19.3035 26.0838 18.7047C25.0293 17.3334 23.6362 16.5219 21.9044 16.3068C20.9532 16.187 19.9949 16.1259 19.0341 16.1454C18.9068 16.1479 18.7771 16.143 18.6498 16.1381C18.6209 16.1381 18.5921 16.121 18.5633 16.1137L18.5681 16.0941" fill="url(#paint7_linear_1967_911)"/>
<path d="M18.5489 15.9939C18.5489 15.9817 18.5489 15.967 18.5489 15.9523C18.6954 15.9474 18.8443 15.9377 18.9908 15.9401C19.942 15.9621 20.8884 15.8937 21.8299 15.7886C23.1798 15.6395 24.3472 15.1017 25.3464 14.1924C26.0838 13.5202 26.5978 12.7209 26.8116 11.7456C26.91 11.2983 26.9581 10.8534 26.7899 10.411C26.5497 9.77547 26.1726 9.25238 25.5145 8.98594C24.7555 8.67796 23.9677 8.54107 23.151 8.66818C21.4841 8.92728 20.1246 9.71192 19.1109 11.0514C18.5537 11.7872 18.0325 12.5449 17.5857 13.354C17.5161 13.4787 17.4392 13.5984 17.3647 13.7182C17.3455 13.75 17.3167 13.7744 17.2927 13.8038L17.2711 13.7891L17.1942 13.7011C17.2566 13.5495 17.3383 13.3833 17.4224 13.2464C17.8956 12.4789 18.2871 11.6674 18.657 10.8485C19.2406 9.55303 19.3535 8.21598 19.0101 6.83492C18.7699 5.8694 18.2871 5.05544 17.5281 4.39791C17.1341 4.05814 16.5991 3.82192 16.1662 3.80393C16.1285 3.80236 16.2238 3.73793 16.2214 3.69393C16.6562 3.74038 17.0549 3.89926 17.4152 4.1828C18.0133 4.65456 18.4984 5.21921 18.7987 5.92318C19.1926 6.8447 19.3655 7.80288 19.2935 8.80506C19.243 9.49926 19.0965 10.169 18.8035 10.8045C18.6137 11.2152 18.412 11.621 18.2174 12.0267C18.1886 12.0878 18.1598 12.1514 18.1309 12.2125C18.1814 12.1758 18.2126 12.1318 18.2438 12.0854C18.4864 11.7383 18.7194 11.3863 18.9692 11.0465C19.7739 9.94413 20.8475 9.20594 22.1542 8.79529C22.9276 8.55329 23.7131 8.4433 24.5201 8.59729C24.9765 8.68285 25.4256 8.7904 25.8244 9.03239C26.6146 9.51148 27.0325 10.2155 26.9893 11.137C26.9461 12.0536 26.6218 12.8847 26.0333 13.596C24.8732 15.0039 23.3768 15.7959 21.5393 15.9352C21.0181 15.9743 20.4969 16.011 20.0093 16.0452C20.3696 16.0697 20.7635 16.0917 21.1574 16.121C21.6066 16.1552 22.0581 16.1821 22.5001 16.2848C24.0013 16.6343 25.2215 17.4189 26.1486 18.6338C26.6602 19.306 26.9365 20.0784 26.9941 20.9168C27.0445 21.6281 26.7683 22.2245 26.2711 22.7256C26.0141 22.9847 25.6971 23.1509 25.356 23.2683C24.4745 23.5787 23.5785 23.6423 22.6634 23.4247C21.1502 23.0654 19.9084 22.2979 18.9836 21.0512C18.7963 20.797 18.6185 20.5355 18.436 20.2788C18.412 20.2446 18.3856 20.2153 18.3615 20.1835C18.3663 20.2446 18.388 20.2959 18.412 20.3448C18.5273 20.5868 18.6426 20.8312 18.7603 21.0732C19.1229 21.8334 19.2935 22.6376 19.3151 23.4736C19.3391 24.3169 19.1782 25.1284 18.8731 25.913C18.5777 26.6708 18.0805 27.2819 17.4488 27.7903C17.0645 28.1007 16.8893 28.1769 16.3897 28.2063C16.5635 28.1961 16.1445 28.2596 16.1373 28.2254C16.1349 28.2156 16.6801 28.1862 16.6729 28.1789C17.0981 28.1544 16.9492 28.0519 17.3071 27.7781C17.9076 27.3161 18.4048 26.7661 18.7026 26.067C19.3463 24.5613 19.3992 23.0312 18.8059 21.501C18.4504 20.5819 17.9988 19.702 17.492 18.8538C17.3936 18.6876 17.3047 18.5165 17.211 18.3478C17.2062 18.3356 17.211 18.3209 17.211 18.3111C17.247 18.3014 17.2759 18.294 17.3191 18.2818C17.4128 18.4382 17.5112 18.5922 17.6001 18.7511C18.0469 19.5529 18.5681 20.3082 19.1205 21.039C19.9564 22.1463 21.0541 22.8772 22.3968 23.2585C23.3864 23.5396 24.3592 23.5225 25.3272 23.1778C25.7619 23.0238 26.1342 22.7843 26.4056 22.4054C26.7659 21.9043 26.9773 21.3617 26.8884 20.7384C26.7803 20.0002 26.5449 19.3035 26.0838 18.7047C25.0293 17.3334 23.6362 16.5219 21.9044 16.3068C20.9532 16.187 19.9949 16.1259 19.0341 16.1454C18.9068 16.1479 18.7771 16.143 18.6498 16.1381C18.6209 16.1381 18.5921 16.121 18.5633 16.1137L18.5681 16.0941M15.8602 30L15.8794 2M16.8001 18.4373C16.8217 18.4373 16.1522 18.3967 16.1738 18.3967C17.5573 18.3845 18.5157 17.2185 18.5037 15.9866C18.4917 14.6617 17.4589 13.5984 16.169 13.5984C16.1378 13.5984 16.1066 13.5984 16.0777 13.6009C16.0777 13.5642 16.0753 13.5275 16.0753 13.4909C16.0753 13.486 16.0753 13.4787 16.0753 13.4738C16.097 13.4738 16.1186 13.4738 16.1402 13.4738C17.5141 13.4713 18.6454 14.6153 18.6454 16.0012C18.6454 17.3896 17.5237 18.5238 16.1546 18.5238C16.1402 18.5238 16.0753 18.7047 16.1138 18.5238C16.1378 18.4847 16.8337 18.4715 16.8001 18.4373Z" stroke="url(#paint8_linear_1967_911)" stroke-width="1.5" stroke-miterlimit="10"/>
<defs>
<linearGradient id="paint0_linear_1967_911" x1="17.2227" y1="2.4571" x2="-5.97077" y2="14.2649" gradientUnits="userSpaceOnUse">
<stop stop-color="#023B28"/>
<stop offset="1" stop-color="#05A16D"/>
</linearGradient>
<linearGradient id="paint1_linear_1967_911" x1="17.2227" y1="2.4571" x2="-5.97077" y2="14.2649" gradientUnits="userSpaceOnUse">
<stop stop-color="#023B28"/>
<stop offset="1" stop-color="#05A16D"/>
</linearGradient>
<linearGradient id="paint2_linear_1967_911" x1="17.2227" y1="2.4571" x2="-5.97077" y2="14.2649" gradientUnits="userSpaceOnUse">
<stop stop-color="#023B28"/>
<stop offset="1" stop-color="#05A16D"/>
</linearGradient>
<linearGradient id="paint3_linear_1967_911" x1="17.2227" y1="2.4571" x2="-5.97077" y2="14.2649" gradientUnits="userSpaceOnUse">
<stop stop-color="#023B28"/>
<stop offset="1" stop-color="#05A16D"/>
</linearGradient>
<linearGradient id="paint4_linear_1967_911" x1="17.2227" y1="2.4571" x2="-5.97077" y2="14.2649" gradientUnits="userSpaceOnUse">
<stop stop-color="#023B28"/>
<stop offset="1" stop-color="#05A16D"/>
</linearGradient>
<linearGradient id="paint5_linear_1967_911" x1="17.2227" y1="2.4571" x2="-5.97077" y2="14.2649" gradientUnits="userSpaceOnUse">
<stop stop-color="#023B28"/>
<stop offset="1" stop-color="#05A16D"/>
</linearGradient>
<linearGradient id="paint6_linear_1967_911" x1="29.3868" y1="1" x2="5.38098" y2="12.0958" gradientUnits="userSpaceOnUse">
<stop stop-color="#023B28"/>
<stop offset="1" stop-color="#05A16D"/>
</linearGradient>
<linearGradient id="paint7_linear_1967_911" x1="29.3868" y1="1" x2="5.38098" y2="12.0958" gradientUnits="userSpaceOnUse">
<stop stop-color="#023B28"/>
<stop offset="1" stop-color="#05A16D"/>
</linearGradient>
<linearGradient id="paint8_linear_1967_911" x1="17" y1="2.5" x2="4.5" y2="20.5" gradientUnits="userSpaceOnUse">
<stop stop-color="#003320"/>
<stop offset="1" stop-color="#009960"/>
</linearGradient>
</defs>
</svg>
