<svg width="24" height="24" viewBox="0 0 24 24" fill="none" xmlns="http://www.w3.org/2000/svg">
<g clip-path="url(#clip0_1603_1352)">
<path d="M12.0016 4.94531C8.06875 4.94531 4.86719 8.14688 4.86719 12.0797C4.86719 16.0125 8.06875 19.2141 12.0016 19.2141C15.9344 19.2141 19.1359 16.0125 19.1359 12.0797C19.1359 8.14219 15.9344 4.94531 12.0016 4.94531ZM12.0016 17.2969C9.12344 17.2969 6.77969 14.9531 6.77969 12.075C6.77969 9.19688 9.12344 6.85312 12.0016 6.85312C14.8797 6.85312 17.2234 9.19688 17.2234 12.075C17.2234 14.9531 14.8797 17.2969 12.0016 17.2969Z" fill="#001300"/>
<path d="M11.9992 3.50625C12.5289 3.50625 12.9555 3.07969 12.9555 2.55V1.47187C12.9555 0.942187 12.5289 0.515625 11.9992 0.515625C11.4695 0.515625 11.043 0.942187 11.043 1.47187V2.55C11.043 3.07969 11.4695 3.50625 11.9992 3.50625Z" fill="#001300"/>
<path d="M11.9992 20.4922C11.4695 20.4922 11.043 20.9187 11.043 21.4484V22.5219C11.043 23.0516 11.4695 23.4781 11.9992 23.4781C12.5289 23.4781 12.9555 23.0516 12.9555 22.5219V21.4484C12.9555 20.9234 12.5289 20.4922 11.9992 20.4922Z" fill="#001300"/>
<path d="M22.5266 11.043H21.4484C20.9187 11.043 20.4922 11.4695 20.4922 11.9992C20.4922 12.5289 20.9187 12.9555 21.4484 12.9555H22.5266C23.0562 12.9555 23.4828 12.5289 23.4828 11.9992C23.4828 11.4695 23.0562 11.043 22.5266 11.043Z" fill="#001300"/>
<path d="M2.55 11.043H1.47187C0.942187 11.043 0.515625 11.4695 0.515625 11.9992C0.515625 12.5289 0.942187 12.9555 1.47187 12.9555H2.54531C3.075 12.9555 3.50156 12.5289 3.50156 11.9992C3.50625 11.4695 3.075 11.043 2.55 11.043Z" fill="#001300"/>
<path d="M18.768 3.88281L18.0039 4.64219C17.6289 5.01719 17.6289 5.62187 18.0039 5.99687C18.3789 6.37187 18.9836 6.37187 19.3586 5.99687L20.118 5.2375C20.493 4.8625 20.493 4.25781 20.118 3.88281C19.743 3.50781 19.1383 3.50781 18.768 3.88281Z" fill="#001300"/>
<path d="M4.64219 18.0061L3.88281 18.7654C3.50781 19.1404 3.50781 19.7451 3.88281 20.1201C4.25781 20.4951 4.8625 20.4951 5.2375 20.1201L5.99687 19.3607C6.37187 18.9857 6.37187 18.3811 5.99687 18.0061C5.62187 17.6311 5.01719 17.6357 4.64219 18.0061Z" fill="#001300"/>
<path d="M19.3586 18.0039C18.9836 17.6289 18.3789 17.6289 18.0039 18.0039C17.6289 18.3789 17.6289 18.9836 18.0039 19.3586L18.7633 20.118C19.1383 20.493 19.743 20.493 20.118 20.118C20.493 19.743 20.493 19.1383 20.118 18.7633L19.3586 18.0039Z" fill="#001300"/>
<path d="M4.64219 5.99687C5.01719 6.37187 5.62187 6.37187 5.99687 5.99687C6.37187 5.62187 6.37187 5.01719 5.99687 4.64219L5.2375 3.88281C4.8625 3.50781 4.25781 3.50781 3.88281 3.88281C3.50781 4.25781 3.50781 4.8625 3.88281 5.2375L4.64219 5.99687Z" fill="#001300"/>
</g>
<defs>
<clipPath id="clip0_1603_1352">
<rect width="24" height="24" fill="white"/>
</clipPath>
</defs>
</svg>
