<svg width="29" height="35" viewBox="0 0 29 35" fill="none" xmlns="http://www.w3.org/2000/svg">
<path d="M27.9872 15.2373C27.8247 15.3999 27.6318 15.5288 27.4195 15.6168C27.2072 15.7047 26.9797 15.75 26.7499 15.75C26.5201 15.75 26.2925 15.7047 26.0802 15.6168C25.8679 15.5288 25.675 15.3999 25.5125 15.2373L16.2498 5.97461V33.25C16.2498 33.7141 16.0654 34.1592 15.7373 34.4874C15.4091 34.8156 14.964 35 14.4998 35C14.0357 35 13.5906 34.8156 13.2624 34.4874C12.9342 34.1592 12.7499 33.7141 12.7499 33.25V5.97461L3.48715 15.2373C3.15899 15.5655 2.71392 15.7498 2.24983 15.7498C1.78575 15.7498 1.34067 15.5655 1.01251 15.2373C0.684357 14.9092 0.5 14.4641 0.5 14C0.5 13.7702 0.54526 13.5427 0.633198 13.3304C0.721135 13.1181 0.850027 12.9252 1.01251 12.7627L13.2626 0.512721C13.425 0.350175 13.6179 0.221231 13.8302 0.133256C14.0425 0.0452812 14.27 0 14.4998 0C14.7297 0 14.9572 0.0452812 15.1695 0.133256C15.3818 0.221231 15.5747 0.350175 15.7371 0.512721L27.9872 12.7627C28.1497 12.9252 28.2786 13.1181 28.3666 13.3304C28.4546 13.5427 28.4998 13.7702 28.4998 14C28.4998 14.2298 28.4546 14.4574 28.3666 14.6697C28.2786 14.882 28.1497 15.0749 27.9872 15.2373Z" fill="#F4F4F4"/>
</svg>
