<svg width="24" height="24" viewBox="0 0 24 24" fill="none" xmlns="http://www.w3.org/2000/svg">
<path d="M20.6869 12.5332C20.5579 12.1913 20.3922 11.8681 20.195 11.5681C20.2302 11.3416 20.2475 11.1099 20.2475 10.8744C20.2475 8.39 18.2317 6.375 15.748 6.375C14.5984 6.375 13.5493 6.8062 12.7544 7.51561C11.6805 6.7957 10.3892 6.375 8.99887 6.375C5.32133 6.375 2.32921 9.31763 2.25122 12.9764C0.905887 13.7556 0 15.2111 0 16.8737C0 19.3574 2.015 21.3731 4.49944 21.3731H19.4976C21.9813 21.3731 23.997 19.3536 23.997 16.8737C23.997 14.7994 22.5947 13.0544 20.6869 12.5332ZM15.748 7.87481C17.1271 7.87481 18.2895 8.80545 18.6389 10.0743C17.9048 9.63034 17.0446 9.37462 16.123 9.37462C15.6423 9.37462 15.1781 9.44437 14.7402 9.5741C14.5009 9.1879 14.2242 8.82869 13.9153 8.50023C14.4207 8.10803 15.0574 7.87481 15.748 7.87481ZM19.4998 19.8733H4.49719C2.84514 19.8733 1.49981 18.5302 1.49981 16.8737C1.49981 15.4541 2.48744 14.2625 3.81477 13.9521C3.77128 13.6828 3.74953 13.4061 3.74953 13.1242C3.74953 10.225 6.09974 7.87481 8.99887 7.87481C11.3701 7.87481 13.3738 9.44737 14.0247 11.6056C14.6014 11.1474 15.3288 10.8744 16.123 10.8744C17.8598 10.8744 19.2913 12.1868 19.4773 13.8741H19.4998C21.1519 13.8741 22.4972 15.2171 22.4972 16.8737C22.4972 18.5272 21.1556 19.8733 19.4998 19.8733Z" fill="#001300"/>
</svg>
