<svg width="48" height="48" viewBox="0 0 48 48" fill="none" xmlns="http://www.w3.org/2000/svg">
<path d="M18.4927 6.16881C15.1753 2.02291 9.72106 0.381111 4.48775 0.0114219C3.53957 -0.108589 2.74601 0.735517 2.93137 1.67807C4.34608 8.87204 5.85447 13.1432 7.82217 15.5269C10.8772 19.2278 14.412 18.0526 18.7324 19.5406C21.9656 24.495 22.2854 28.5668 22.5339 34.093C20.8197 34.4633 19.293 35.4707 18.2731 36.9096C15.8642 36.3095 13.3187 37.4272 12.0849 39.6141C10.073 39.9337 8.53042 41.6806 8.53042 43.7809C8.53042 46.1073 10.4231 48 12.7495 48H35.2515C37.5779 48 39.4706 46.1073 39.4706 43.7809C39.4706 41.6805 37.928 39.9337 35.9162 39.6141C34.6814 37.4255 32.1349 36.3099 29.7279 36.9096C28.708 35.4707 27.1814 34.4634 25.4672 34.093C25.7191 28.4887 26.0444 24.4814 29.2686 19.5406C33.5892 18.0526 37.1255 19.226 40.1789 15.5269C42.1466 13.1432 43.655 8.87204 45.0697 1.67807C45.2545 0.738423 44.4645 -0.108776 43.5134 0.0114219C38.2422 0.38383 32.8116 2.04044 29.5084 6.16881C27.0418 9.25158 26.1407 13.2799 26.8271 18.1481C25.6253 20.0205 24.6682 21.9971 24.0005 24.147C23.3328 21.9968 22.3755 20.0203 21.174 18.1481C21.8604 13.2799 20.9593 9.25158 18.4927 6.16881ZM31.7046 7.92612C34.4198 4.53273 39.0033 3.37903 41.929 2.98834C40.7404 8.51323 39.4833 11.9513 38.0097 13.7364C36.4698 15.6019 34.7449 15.5873 31.9746 16.0189C32.9597 14.9024 34.1 13.7436 35.4214 12.5326C35.994 12.0079 36.0328 11.1183 35.508 10.5456C34.9833 9.97305 34.0937 9.93423 33.521 10.459C31.9657 11.8844 30.6066 13.2795 29.4259 14.6667C29.5034 11.9839 30.2649 9.72543 31.7046 7.92612ZM27.8294 39.2241C28.1631 39.9546 29.0406 40.2577 29.7541 39.8891C31.3795 39.0494 33.1331 39.9339 33.6681 41.4392C34.0491 42.5108 35.2289 42.3684 35.2515 42.3745C36.027 42.3745 36.6579 43.0054 36.6579 43.7809C36.6579 44.5563 36.027 45.1872 35.2515 45.1872H12.7495C11.9741 45.1872 11.3432 44.5563 11.3432 43.7809C11.3432 43.0054 11.9741 42.3745 12.7495 42.3745C12.801 42.3606 13.9448 42.5312 14.3329 41.4392C14.864 39.945 16.6106 39.0437 18.247 39.8891C18.9605 40.2576 19.838 39.9545 20.1716 39.2241C20.8584 37.7211 22.3605 36.7497 23.9989 36.749H23.9993H24.0005C24.0005 36.749 24.0014 36.749 24.0017 36.749H24.0021C25.6405 36.7497 27.1427 37.7211 27.8294 39.2241ZM9.99136 13.7364C8.51776 11.9513 7.26065 8.51323 6.07208 2.98834C8.99781 3.37912 13.5813 4.53273 16.2964 7.92612C17.7362 9.72543 18.4977 11.9839 18.5751 14.6666C17.3944 13.2794 16.0354 11.8843 14.48 10.4589C13.9075 9.93414 13.0178 9.97295 12.493 10.5455C11.9683 11.1182 12.007 12.0078 12.5797 12.5326C13.9011 13.7435 15.0415 14.9023 16.0265 16.0188C13.2507 15.5864 11.5285 15.5986 9.99136 13.7364Z" fill="white"/>
</svg>
