<svg width="48" height="48" viewBox="0 0 48 48" fill="none" xmlns="http://www.w3.org/2000/svg">
<g clip-path="url(#clip0_1466_2083)">
<path d="M13.5 33H10.5C9.30693 32.9987 8.1631 32.5242 7.31947 31.6805C6.47584 30.8369 6.00131 29.6931 6 28.5V4.5C6.00131 3.30693 6.47584 2.1631 7.31947 1.31947C8.1631 0.475837 9.30693 0.00131022 10.5 0L13.5 0C14.6931 0.00131022 15.8369 0.475837 16.6805 1.31947C17.5242 2.1631 17.9987 3.30693 18 4.5V28.5C17.9987 29.6931 17.5242 30.8369 16.6805 31.6805C15.8369 32.5242 14.6931 32.9987 13.5 33ZM10.5 3C10.1023 3.00052 9.7211 3.15872 9.43991 3.43991C9.15872 3.7211 9.00052 4.10233 9 4.5V28.5C9.00052 28.8977 9.15872 29.2789 9.43991 29.5601C9.7211 29.8413 10.1023 29.9995 10.5 30H13.5C13.8977 29.9995 14.2789 29.8413 14.5601 29.5601C14.8413 29.2789 14.9995 28.8977 15 28.5V4.5C14.9995 4.10233 14.8413 3.7211 14.5601 3.43991C14.2789 3.15872 13.8977 3.00052 13.5 3H10.5Z" fill="white"/>
<path d="M10.5 9H7.5C7.10218 9 6.72064 8.84196 6.43934 8.56066C6.15804 8.27936 6 7.89782 6 7.5C6 7.10218 6.15804 6.72064 6.43934 6.43934C6.72064 6.15804 7.10218 6 7.5 6H10.5C10.8978 6 11.2794 6.15804 11.5607 6.43934C11.842 6.72064 12 7.10218 12 7.5C12 7.89782 11.842 8.27936 11.5607 8.56066C11.2794 8.84196 10.8978 9 10.5 9Z" fill="white"/>
<path d="M10.5 15H7.5C7.10218 15 6.72064 14.842 6.43934 14.5607C6.15804 14.2794 6 13.8978 6 13.5C6 13.1022 6.15804 12.7206 6.43934 12.4393C6.72064 12.158 7.10218 12 7.5 12H10.5C10.8978 12 11.2794 12.158 11.5607 12.4393C11.842 12.7206 12 13.1022 12 13.5C12 13.8978 11.842 14.2794 11.5607 14.5607C11.2794 14.842 10.8978 15 10.5 15Z" fill="white"/>
<path d="M10.5 21H7.5C7.10218 21 6.72064 20.842 6.43934 20.5607C6.15804 20.2794 6 19.8978 6 19.5C6 19.1022 6.15804 18.7206 6.43934 18.4393C6.72064 18.158 7.10218 18 7.5 18H10.5C10.8978 18 11.2794 18.158 11.5607 18.4393C11.842 18.7206 12 19.1022 12 19.5C12 19.8978 11.842 20.2794 11.5607 20.5607C11.2794 20.842 10.8978 21 10.5 21Z" fill="white"/>
<path d="M10.5 27H7.5C7.10218 27 6.72064 26.842 6.43934 26.5607C6.15804 26.2794 6 25.8978 6 25.5C6 25.1022 6.15804 24.7206 6.43934 24.4393C6.72064 24.158 7.10218 24 7.5 24H10.5C10.8978 24 11.2794 24.158 11.5607 24.4393C11.842 24.7206 12 25.1022 12 25.5C12 25.8978 11.842 26.2794 11.5607 26.5607C11.2794 26.842 10.8978 27 10.5 27Z" fill="white"/>
<path d="M25.5 33C25.303 33.0002 25.1079 32.9615 24.9259 32.8861C24.7439 32.8107 24.5786 32.7 24.4395 32.5605L21.4395 29.5605C21.1582 29.2793 21.0001 28.8978 21 28.5V4.5C21 3.30653 21.4741 2.16193 22.318 1.31802C23.1619 0.474106 24.3065 0 25.5 0C26.6935 0 27.8381 0.474106 28.682 1.31802C29.5259 2.16193 30 3.30653 30 4.5V28.5C29.9999 28.8978 29.8418 29.2793 29.5605 29.5605L26.5605 32.5605C26.4214 32.7 26.2561 32.8107 26.0741 32.8861C25.8921 32.9615 25.697 33.0002 25.5 33ZM24 27.8788L25.5 29.3788L27 27.8788V4.5C27 4.10218 26.842 3.72064 26.5607 3.43934C26.2794 3.15804 25.8978 3 25.5 3C25.1022 3 24.7206 3.15804 24.4393 3.43934C24.158 3.72064 24 4.10218 24 4.5V27.8788Z" fill="white"/>
<path d="M28.1784 25.5H22.5C22.1022 25.5 21.7206 25.342 21.4393 25.0607C21.158 24.7794 21 24.3978 21 24C21 23.6022 21.158 23.2206 21.4393 22.9393C21.7206 22.658 22.1022 22.5 22.5 22.5H28.1784C28.5762 22.5 28.9578 22.658 29.2391 22.9393C29.5204 23.2206 29.6784 23.6022 29.6784 24C29.6784 24.3978 29.5204 24.7794 29.2391 25.0607C28.9578 25.342 28.5762 25.5 28.1784 25.5Z" fill="white"/>
<path d="M22.5 19.5H16.5C16.1022 19.5 15.7206 19.342 15.4393 19.0607C15.158 18.7794 15 18.3978 15 18C15 17.6022 15.158 17.2206 15.4393 16.9393C15.7206 16.658 16.1022 16.5 16.5 16.5H22.5C22.8978 16.5 23.2794 16.658 23.5607 16.9393C23.842 17.2206 24 17.6022 24 18C24 18.3978 23.842 18.7794 23.5607 19.0607C23.2794 19.342 22.8978 19.5 22.5 19.5Z" fill="white"/>
<path d="M37.5 19.5H28.5C28.1022 19.5 27.7206 19.342 27.4393 19.0607C27.158 18.7794 27 18.3978 27 18C27 17.6022 27.158 17.2206 27.4393 16.9393C27.7206 16.658 28.1022 16.5 28.5 16.5H37.5C37.8978 16.5 38.2794 16.658 38.5607 16.9393C38.842 17.2206 39 17.6022 39 18C39 18.3978 38.842 18.7794 38.5607 19.0607C38.2794 19.342 37.8978 19.5 37.5 19.5Z" fill="white"/>
<path d="M43.5 48H4.5C3.30693 47.9987 2.1631 47.5242 1.31947 46.6805C0.475837 45.8369 0.00131022 44.6931 0 43.5L0 21C0.00131022 19.8069 0.475837 18.6631 1.31947 17.8195C2.1631 16.9758 3.30693 16.5013 4.5 16.5H7.5C7.89782 16.5 8.27936 16.658 8.56066 16.9393C8.84196 17.2206 9 17.6022 9 18C9 18.3978 8.84196 18.7794 8.56066 19.0607C8.27936 19.342 7.89782 19.5 7.5 19.5H4.5C4.10233 19.5005 3.7211 19.6587 3.43991 19.9399C3.15872 20.2211 3.00052 20.6023 3 21V43.5C3.00052 43.8977 3.15872 44.2789 3.43991 44.5601C3.7211 44.8413 4.10233 44.9995 4.5 45H43.5C43.8977 44.9995 44.2789 44.8413 44.5601 44.5601C44.8413 44.2789 44.9995 43.8977 45 43.5V28.5C45 28.1022 45.158 27.7206 45.4393 27.4393C45.7206 27.158 46.1022 27 46.5 27C46.8978 27 47.2794 27.158 47.5607 27.4393C47.842 27.7206 48 28.1022 48 28.5V43.5C47.9987 44.6931 47.5242 45.8369 46.6805 46.6805C45.8369 47.5242 44.6931 47.9987 43.5 48Z" fill="white"/>
<path d="M46.5 45C46.1022 45 45.7206 44.842 45.4393 44.5607C45.158 44.2794 45 43.8978 45 43.5C44.9992 42.7046 44.6829 41.942 44.1204 41.3796C43.558 40.8171 42.7954 40.5008 42 40.5H37.5C37.1022 40.5 36.7206 40.342 36.4393 40.0607C36.158 39.7794 36 39.3978 36 39V6C36 5.60218 36.158 5.22064 36.4393 4.93934C36.7206 4.65804 37.1022 4.5 37.5 4.5H42C43.5908 4.50179 45.1158 5.1345 46.2407 6.25933C47.3655 7.38416 47.9982 8.90925 48 10.5V43.5C48 43.8978 47.842 44.2794 47.5607 44.5607C47.2794 44.842 46.8978 45 46.5 45ZM39 37.5H42C43.0535 37.4986 44.0886 37.7763 45 38.3049V10.5C44.9992 9.70459 44.6829 8.94199 44.1204 8.37956C43.558 7.81712 42.7954 7.50079 42 7.5H39V37.5Z" fill="white"/>
</g>
<defs>
<clipPath id="clip0_1466_2083">
<rect width="48" height="48" fill="white"/>
</clipPath>
</defs>
</svg>
