<svg width="48" height="48" viewBox="0 0 48 48" fill="none" xmlns="http://www.w3.org/2000/svg">
<g clip-path="url(#clip0_1466_2080)">
<path d="M43.7809 35.245H39.6988V29.749C39.6988 24.8399 35.9481 20.7905 31.1619 20.3154C34.6041 17.623 36.2655 12.5162 34.8456 8.1785C35.0864 7.9771 35.3176 7.76136 35.5372 7.53072C37.0798 5.91047 37.9294 3.73602 37.9294 1.40789C37.9294 0.631196 37.2997 0.00151181 36.523 0.00151181H21.4542C16.6493 -0.0934658 12.4169 4.3011 12.9038 9.11843C11.9495 13.267 13.6566 17.8062 16.8337 20.3153C12.0474 20.7904 8.29665 24.8397 8.29665 29.7489V35.5346L0.643303 40.4365C-0.214497 40.9704 -0.214403 42.2715 0.643396 42.8051L8.40222 47.7741C8.62864 47.9192 8.89183 47.9963 9.16073 47.9963H43.7808C46.1072 47.9963 47.9999 46.1035 47.9999 43.7771V39.4642C48 37.1377 46.1073 35.245 43.7809 35.245ZM10.1986 38.0577H39.5616V45.1834H10.1986V38.0577ZM22.5694 23.0813H25.4262V23.1281C25.3475 25.0234 22.6474 25.022 22.5694 23.1281V23.0813ZM21.4542 2.81437H34.9636C34.7289 3.86869 34.2289 4.82559 33.4999 5.59132C32.4548 6.68904 31.0173 7.2936 29.4522 7.2936L15.8131 7.29332C16.4193 4.69367 18.6805 2.81437 21.4542 2.81437ZM15.4601 11.5184C15.4601 11.0439 15.5004 10.5711 15.5782 10.106L29.4522 10.1064C30.4515 10.1065 31.4188 9.93919 32.3214 9.61901C33.5813 14.8613 29.398 20.1236 23.9977 20.056C19.2901 20.056 15.4601 16.2261 15.4601 11.5184ZM17.7772 23.0813H19.7565V23.1281C19.9901 28.7558 28.0073 28.7515 28.2389 23.1281V23.0813H30.2182C33.8948 23.0813 36.8859 26.0724 36.8859 29.749V35.245H11.1095V29.749C11.1095 26.0725 14.1006 23.0813 17.7772 23.0813ZM7.38587 39.4582V43.783L4.00952 41.6208L7.38587 39.4582ZM45.1873 43.777C45.1873 44.5525 44.5564 45.1834 43.7809 45.1834H42.3745V38.0577H43.7809C44.5564 38.0577 45.1873 38.6886 45.1873 39.4641V43.777Z" fill="white"/>
</g>
<defs>
<clipPath id="clip0_1466_2080">
<rect width="48" height="48" fill="white"/>
</clipPath>
</defs>
</svg>
