<?xml version="1.0" encoding="utf-8"?>
<!-- Generator: Adobe Illustrator 24.1.2, SVG Export Plug-In . SVG Version: 6.00 Build 0)  -->
<svg version="1.1" id="Слой_1" xmlns="http://www.w3.org/2000/svg" xmlns:xlink="http://www.w3.org/1999/xlink" x="0px" y="0px"
	 viewBox="0 0 50 56" style="enable-background:new 0 0 50 56;" xml:space="preserve">
<style type="text/css">
	.st0{fill:#076553;}
</style>
<path class="st0" d="M45.1,28.2c-0.1-0.1-0.3-0.2-0.4-0.2c0.1-0.1,0.3-0.2,0.4-0.2c4.7-2.7,6.3-8.8,3.6-13.5c-1.3-2.3-3.4-3.9-6-4.6
	c-2.5-0.7-5.2-0.3-7.5,1c-0.1,0.1-0.3,0.2-0.4,0.2c0-0.2,0-0.3,0-0.5c0-5.5-4.4-9.9-9.8-9.9s-9.8,4.4-9.8,9.9c0,0.1,0,0.3,0,0.5
	c-0.1-0.1-0.3-0.2-0.4-0.2C10.1,7.9,4,9.5,1.3,14.2C-1.4,19,0.2,25,4.9,27.8c0.1,0.1,0.3,0.2,0.4,0.2c-0.1,0.1-0.3,0.2-0.4,0.2
	c-2.3,1.3-3.9,3.5-4.6,6c-0.7,2.6-0.3,5.2,1,7.5c2.7,4.7,8.7,6.4,13.4,3.6c0.1-0.1,0.3-0.2,0.4-0.2c0,0.2,0,0.3,0,0.5
	c0,5.5,4.4,9.9,9.8,9.9s9.8-4.4,9.8-9.9c0-0.1,0-0.3,0-0.5c0.1,0.1,0.3,0.2,0.4,0.2c2.3,1.3,4.9,1.7,7.5,1c2.5-0.7,4.7-2.3,6-4.6
	C51.4,37,49.8,31,45.1,28.2z"/>
</svg>
