<svg width="18" height="18" viewBox="0 0 18 18" fill="none" xmlns="http://www.w3.org/2000/svg">
<g clip-path="url(#clip0_1793_175)">
<path d="M15.3254 2.61392C13.6344 0.929306 11.385 0.000961305 8.99094 0C6.60223 0 4.34921 0.927521 2.64716 2.61172C0.942078 4.29881 0.00219727 6.54085 0 8.91664V8.91939V8.92104C0.000274658 10.359 0.378067 11.8096 1.0952 13.1337L0.0245819 18L4.94687 16.8804C6.19354 17.5086 7.58455 17.8399 8.9875 17.8404H8.99107C11.3794 17.8404 13.6324 16.9128 15.3347 15.2284C17.0413 13.54 17.9816 11.3008 17.9827 8.92351C17.9834 6.56296 17.0398 4.32216 15.3254 2.61392ZM8.99094 16.4355H8.98778C7.72806 16.435 6.47987 16.1187 5.37836 15.5207L5.14558 15.3943L1.87248 16.1388L2.58344 12.9077L2.44638 12.6714C1.76495 11.4962 1.40488 10.199 1.40488 8.91953C1.40749 4.77809 4.81023 1.40488 8.99066 1.40488C11.0102 1.4057 12.9078 2.18861 14.3339 3.60915C15.7814 5.05165 16.5784 6.93883 16.5777 8.9231C16.576 13.0655 13.1726 16.4355 8.99094 16.4355Z" fill="#08B37E"/>
<path d="M6.54518 4.98828H6.15105C6.01385 4.98828 5.79111 5.03964 5.60269 5.24467C5.41414 5.44984 4.88281 5.94574 4.88281 6.95428C4.88281 7.96283 5.61986 8.93732 5.72258 9.07423C5.82544 9.21101 7.14531 11.3468 9.23573 12.1684C10.9731 12.8512 11.3267 12.7154 11.7037 12.6812C12.0808 12.6471 12.9205 12.1854 13.0919 11.7068C13.2633 11.2282 13.2633 10.8179 13.212 10.7322C13.1605 10.6468 13.0233 10.5956 12.8177 10.4931C12.612 10.3905 11.604 9.88626 11.4154 9.81773C11.2269 9.74948 11.0898 9.71529 10.9526 9.92059C10.8154 10.1255 10.4115 10.5995 10.2915 10.7363C10.1716 10.8732 10.0516 10.8904 9.84589 10.7878C9.64017 10.685 8.98456 10.4647 8.1989 9.76651C7.58737 9.2231 7.16302 8.53014 7.043 8.32497C6.92311 8.11993 7.03023 8.00897 7.13336 7.90666C7.22578 7.81493 7.35062 7.68941 7.45348 7.56979C7.5562 7.45004 7.58545 7.36462 7.65411 7.22784C7.72264 7.09106 7.68831 6.97131 7.63695 6.86887C7.58545 6.76628 7.19077 5.75266 7.00784 5.34726H7.00798C6.8539 5.00586 6.69171 4.99432 6.54518 4.98828Z" fill="#08B37E"/>
</g>
<defs>
<clipPath id="clip0_1793_175">
<rect width="18" height="18" fill="white"/>
</clipPath>
</defs>
</svg>
