<svg width="18" height="18" viewBox="0 0 18 18" fill="none" xmlns="http://www.w3.org/2000/svg">
<g clip-path="url(#clip0_1793_171)">
<path d="M17.7244 1.93393C17.5047 1.6642 17.175 1.51562 16.7958 1.51562C16.5913 1.51562 16.3746 1.55845 16.1518 1.64286L0.912544 7.41679C0.102267 7.72385 -0.00679122 8.18607 0.000310609 8.43425C0.00737728 8.68119 0.141363 9.13311 0.956948 9.39398L4.18881 10.5783L5.89208 14.4772C6.0633 15.0164 6.42106 15.3947 6.87769 15.5174C6.98295 15.5457 7.09043 15.5597 7.19868 15.5597C7.56952 15.5597 7.94922 15.3964 8.27714 15.0884L9.68829 13.7626L13.1314 16.1325C13.4415 16.3616 13.7789 16.4827 14.1079 16.4826C14.7757 16.4826 15.3083 15.9938 15.4648 15.2372L17.9572 3.18301C18.0596 2.6876 17.9769 2.24402 17.7244 1.93393ZM5.25988 10.3953L9.65777 8.03693L6.59274 10.8484C6.48361 10.9485 6.42282 11.0896 6.42265 11.2365C6.42244 11.2419 6.42177 11.2472 6.42173 11.2526L6.41115 13.0306L5.25988 10.3953ZM7.555 14.3196C7.52248 14.3502 7.48989 14.377 7.45768 14.4004L7.47059 12.2361L8.79923 13.1506L7.555 14.3196ZM16.9243 2.96943L14.432 15.0236C14.4068 15.1452 14.3249 15.4279 14.1079 15.4279C14.0065 15.4279 13.8808 15.3757 13.7539 15.2809C13.7484 15.2769 13.7429 15.2729 13.7373 15.2691L9.94139 12.6564C9.94086 12.656 9.94034 12.6556 9.93984 12.6553L7.79369 11.1781L13.463 5.97772C13.6589 5.79803 13.6905 5.50063 13.5366 5.28385C13.3827 5.06707 13.0915 4.99872 12.8573 5.12434L4.54098 9.58407L1.30905 8.39972C1.3067 8.39884 1.30434 8.398 1.30195 8.39715L16.5255 2.62917C16.6538 2.58055 16.7433 2.57035 16.7958 2.57035C16.8219 2.57035 16.8848 2.57323 16.9066 2.59995C16.9344 2.63416 16.9695 2.7505 16.9243 2.96943Z" fill="#08B37E"/>
</g>
<defs>
<clipPath id="clip0_1793_171">
<rect width="18" height="18" fill="white"/>
</clipPath>
</defs>
</svg>
